<ttFont>
    <TTGlyph name="A" xMin="58" yMin="0" xMax="778" yMax="720">
      <contour>
        <pt x="206" y="720" on="1"/>
        <pt x="629" y="720" on="1"/>
        <pt x="691" y="720" on="0"/>
        <pt x="778" y="633" on="0"/>
        <pt x="778" y="572" on="1"/>
        <pt x="778" y="0" on="1"/>
        <pt x="621" y="0" on="1"/>
        <pt x="621" y="232" on="1"/>
        <pt x="213" y="232" on="1"/>
        <pt x="213" y="0" on="1"/>
        <pt x="58" y="0" on="1"/>
        <pt x="58" y="572" on="1"/>
        <pt x="58" y="634" on="0"/>
        <pt x="144" y="720" on="0"/>
      </contour>
      <contour>
        <pt x="213" y="388" on="1"/>
        <pt x="621" y="388" on="1"/>
        <pt x="621" y="564" on="1"/>
        <pt x="213" y="564" on="1"/>
      </contour>
    </TTGlyph>
    <TTGlyph name="A.alt" xMin="0" yMin="0" xMax="706" yMax="720">
      <contour>
        <pt x="0" y="0" on="1"/>
        <pt x="0" y="50" on="1"/>
        <pt x="549" y="720" on="1"/>
        <pt x="706" y="720" on="1"/>
        <pt x="706" y="0" on="1"/>
        <pt x="552" y="0" on="1"/>
        <pt x="552" y="174" on="1"/>
        <pt x="302" y="174" on="1"/>
        <pt x="156" y="0" on="1"/>
      </contour>
      <contour>
        <pt x="552" y="471" on="1"/>
        <pt x="430" y="327" on="1"/>
        <pt x="552" y="327" on="1"/>
      </contour>
    </TTGlyph>
    <TTGlyph name="A.alt2" xMin="54" yMin="0" xMax="761" yMax="720">
      <contour>
        <pt x="54" y="720" on="1"/>
        <pt x="211" y="720" on="1"/>
        <pt x="761" y="50" on="1"/>
        <pt x="761" y="0" on="1"/>
        <pt x="604" y="0" on="1"/>
        <pt x="457" y="174" on="1"/>
        <pt x="207" y="174" on="1"/>
        <pt x="207" y="0" on="1"/>
        <pt x="54" y="0" on="1"/>
      </contour>
      <contour>
        <pt x="207" y="471" on="1"/>
        <pt x="207" y="327" on="1"/>
        <pt x="329" y="327" on="1"/>
      </contour>
    </TTGlyph>
    <TTGlyph name="A.alt3" xMin="-28" yMin="0" xMax="876" yMax="720">
      <contour>
        <pt x="876" y="0" on="1"/>
        <pt x="698" y="0" on="1"/>
        <pt x="606" y="161" on="1"/>
        <pt x="244" y="161" on="1"/>
        <pt x="150" y="0" on="1"/>
        <pt x="-28" y="0" on="1"/>
        <pt x="358" y="720" on="1"/>
        <pt x="491" y="720" on="1"/>
      </contour>
      <contour>
        <pt x="424" y="512" on="1"/>
        <pt x="330" y="317" on="1"/>
        <pt x="519" y="317" on="1"/>
        <pt x="439" y="479" on="0"/>
      </contour>
    </TTGlyph>
    <TTGlyph name="AE" xMin="54" yMin="0" xMax="1283" yMax="720">
      <contour>
        <pt x="774" y="564" on="1"/>
        <pt x="774" y="438" on="1"/>
        <pt x="1183" y="438" on="1"/>
        <pt x="1183" y="282" on="1"/>
        <pt x="774" y="282" on="1"/>
        <pt x="774" y="156" on="1"/>
        <pt x="1283" y="156" on="1"/>
        <pt x="1283" y="0" on="1"/>
        <pt x="619" y="0" on="1"/>
        <pt x="619" y="232" on="1"/>
        <pt x="211" y="232" on="1"/>
        <pt x="211" y="0" on="1"/>
        <pt x="54" y="0" on="1"/>
        <pt x="54" y="572" on="1"/>
        <pt x="54" y="633" on="0"/>
        <pt x="141" y="720" on="0"/>
        <pt x="202" y="720" on="1"/>
        <pt x="1283" y="720" on="1"/>
        <pt x="1283" y="564" on="1"/>
      </contour>
      <contour>
        <pt x="619" y="388" on="1"/>
        <pt x="619" y="564" on="1"/>
        <pt x="211" y="564" on="1"/>
        <pt x="211" y="388" on="1"/>
      </contour>
    </TTGlyph>
    <TTGlyph name="Aacute" xMin="58" yMin="0" xMax="778" yMax="972">
      <contour>
        <pt x="206" y="720" on="1"/>
        <pt x="629" y="720" on="1"/>
        <pt x="691" y="720" on="0"/>
        <pt x="778" y="633" on="0"/>
        <pt x="778" y="572" on="1"/>
        <pt x="778" y="0" on="1"/>
        <pt x="621" y="0" on="1"/>
        <pt x="621" y="232" on="1"/>
        <pt x="213" y="232" on="1"/>
        <pt x="213" y="0" on="1"/>
        <pt x="58" y="0" on="1"/>
        <pt x="58" y="572" on="1"/>
        <pt x="58" y="634" on="0"/>
        <pt x="144" y="720" on="0"/>
      </contour>
      <contour>
        <pt x="213" y="388" on="1"/>
        <pt x="621" y="388" on="1"/>
        <pt x="621" y="564" on="1"/>
        <pt x="213" y="564" on="1"/>
      </contour>
      <contour>
        <pt x="334" y="769" on="1"/>
        <pt x="385" y="972" on="1"/>
        <pt x="542" y="972" on="1"/>
        <pt x="491" y="769" on="1"/>
      </contour>
    </TTGlyph>
    <TTGlyph name="Acircumflex" xMin="58" yMin="0" xMax="778" yMax="953">
      <contour>
        <pt x="206" y="720" on="1"/>
        <pt x="629" y="720" on="1"/>
        <pt x="691" y="720" on="0"/>
        <pt x="778" y="633" on="0"/>
        <pt x="778" y="572" on="1"/>
        <pt x="778" y="0" on="1"/>
        <pt x="621" y="0" on="1"/>
        <pt x="621" y="232" on="1"/>
        <pt x="213" y="232" on="1"/>
        <pt x="213" y="0" on="1"/>
        <pt x="58" y="0" on="1"/>
        <pt x="58" y="572" on="1"/>
        <pt x="58" y="634" on="0"/>
        <pt x="144" y="720" on="0"/>
      </contour>
      <contour>
        <pt x="213" y="388" on="1"/>
        <pt x="621" y="388" on="1"/>
        <pt x="621" y="564" on="1"/>
        <pt x="213" y="564" on="1"/>
      </contour>
      <contour>
        <pt x="399" y="769" on="1"/>
        <pt x="266" y="769" on="1"/>
        <pt x="376" y="953" on="1"/>
        <pt x="476" y="953" on="1"/>
        <pt x="586" y="769" on="1"/>
        <pt x="452" y="769" on="1"/>
        <pt x="424" y="813" on="1"/>
      </contour>
    </TTGlyph>
    <TTGlyph name="Adieresis" xMin="58" yMin="0" xMax="778" yMax="924">
      <contour>
        <pt x="206" y="720" on="1"/>
        <pt x="629" y="720" on="1"/>
        <pt x="691" y="720" on="0"/>
        <pt x="778" y="633" on="0"/>
        <pt x="778" y="572" on="1"/>
        <pt x="778" y="0" on="1"/>
        <pt x="621" y="0" on="1"/>
        <pt x="621" y="232" on="1"/>
        <pt x="213" y="232" on="1"/>
        <pt x="213" y="0" on="1"/>
        <pt x="58" y="0" on="1"/>
        <pt x="58" y="572" on="1"/>
        <pt x="58" y="634" on="0"/>
        <pt x="144" y="720" on="0"/>
      </contour>
      <contour>
        <pt x="213" y="388" on="1"/>
        <pt x="621" y="388" on="1"/>
        <pt x="621" y="564" on="1"/>
        <pt x="213" y="564" on="1"/>
      </contour>
      <contour>
        <pt x="606" y="924" on="1"/>
        <pt x="606" y="770" on="1"/>
        <pt x="452" y="770" on="1"/>
        <pt x="452" y="924" on="1"/>
      </contour>
      <contour>
        <pt x="392" y="924" on="1"/>
        <pt x="392" y="770" on="1"/>
        <pt x="239" y="770" on="1"/>
        <pt x="239" y="924" on="1"/>
      </contour>
    </TTGlyph>
    <TTGlyph name="Agrave" xMin="58" yMin="0" xMax="778" yMax="973">
      <contour>
        <pt x="206" y="720" on="1"/>
        <pt x="629" y="720" on="1"/>
        <pt x="691" y="720" on="0"/>
        <pt x="778" y="633" on="0"/>
        <pt x="778" y="572" on="1"/>
        <pt x="778" y="0" on="1"/>
        <pt x="621" y="0" on="1"/>
        <pt x="621" y="232" on="1"/>
        <pt x="213" y="232" on="1"/>
        <pt x="213" y="0" on="1"/>
        <pt x="58" y="0" on="1"/>
        <pt x="58" y="572" on="1"/>
        <pt x="58" y="634" on="0"/>
        <pt x="144" y="720" on="0"/>
      </contour>
      <contour>
        <pt x="213" y="388" on="1"/>
        <pt x="621" y="388" on="1"/>
        <pt x="621" y="564" on="1"/>
        <pt x="213" y="564" on="1"/>
      </contour>
      <contour>
        <pt x="451" y="973" on="1"/>
        <pt x="502" y="770" on="1"/>
        <pt x="345" y="770" on="1"/>
        <pt x="294" y="973" on="1"/>
      </contour>
    </TTGlyph>
    <TTGlyph name="Aring" xMin="58" yMin="0" xMax="778" yMax="972">
      <contour>
        <pt x="206" y="720" on="1"/>
        <pt x="629" y="720" on="1"/>
        <pt x="691" y="720" on="0"/>
        <pt x="778" y="633" on="0"/>
        <pt x="778" y="572" on="1"/>
        <pt x="778" y="0" on="1"/>
        <pt x="621" y="0" on="1"/>
        <pt x="621" y="232" on="1"/>
        <pt x="213" y="232" on="1"/>
        <pt x="213" y="0" on="1"/>
        <pt x="58" y="0" on="1"/>
        <pt x="58" y="572" on="1"/>
        <pt x="58" y="634" on="0"/>
        <pt x="144" y="720" on="0"/>
      </contour>
      <contour>
        <pt x="213" y="388" on="1"/>
        <pt x="621" y="388" on="1"/>
        <pt x="621" y="564" on="1"/>
        <pt x="213" y="564" on="1"/>
      </contour>
      <contour>
        <pt x="377" y="972" on="1"/>
        <pt x="428" y="972" on="1"/>
        <pt x="459" y="972" on="0"/>
        <pt x="504" y="927" on="0"/>
        <pt x="504" y="896" on="1"/>
        <pt x="504" y="847" on="1"/>
        <pt x="504" y="816" on="0"/>
        <pt x="459" y="771" on="0"/>
        <pt x="428" y="771" on="1"/>
        <pt x="377" y="771" on="1"/>
        <pt x="346" y="771" on="0"/>
        <pt x="300" y="816" on="0"/>
        <pt x="300" y="847" on="1"/>
        <pt x="300" y="896" on="1"/>
        <pt x="300" y="927" on="0"/>
        <pt x="346" y="972" on="0"/>
      </contour>
      <contour>
        <pt x="377" y="894" on="1"/>
        <pt x="377" y="840" on="1"/>
        <pt x="428" y="840" on="1"/>
        <pt x="428" y="894" on="1"/>
      </contour>
    </TTGlyph>
    <TTGlyph name="Atilde" xMin="58" yMin="0" xMax="778" yMax="951">
      <contour>
        <pt x="206" y="720" on="1"/>
        <pt x="629" y="720" on="1"/>
        <pt x="691" y="720" on="0"/>
        <pt x="778" y="633" on="0"/>
        <pt x="778" y="572" on="1"/>
        <pt x="778" y="0" on="1"/>
        <pt x="621" y="0" on="1"/>
        <pt x="621" y="232" on="1"/>
        <pt x="213" y="232" on="1"/>
        <pt x="213" y="0" on="1"/>
        <pt x="58" y="0" on="1"/>
        <pt x="58" y="572" on="1"/>
        <pt x="58" y="634" on="0"/>
        <pt x="144" y="720" on="0"/>
      </contour>
      <contour>
        <pt x="213" y="388" on="1"/>
        <pt x="621" y="388" on="1"/>
        <pt x="621" y="564" on="1"/>
        <pt x="213" y="564" on="1"/>
      </contour>
      <contour>
        <pt x="481" y="889" on="1"/>
        <pt x="520" y="889" on="0"/>
        <pt x="577" y="926" on="1"/>
        <pt x="577" y="800" on="1"/>
        <pt x="515" y="774" on="0"/>
        <pt x="441" y="774" on="0"/>
        <pt x="326" y="836" on="0"/>
        <pt x="297" y="836" on="1"/>
        <pt x="286" y="836" on="1"/>
        <pt x="244" y="836" on="0"/>
        <pt x="202" y="800" on="1"/>
        <pt x="202" y="924" on="1"/>
        <pt x="270" y="951" on="0"/>
        <pt x="297" y="951" on="1"/>
        <pt x="334" y="951" on="0"/>
        <pt x="450" y="893" on="0"/>
      </contour>
    </TTGlyph>
    <TTGlyph name="B" xMin="59" yMin="0" xMax="779" yMax="720">
      <contour>
        <pt x="751" y="572" on="1"/>
        <pt x="751" y="437" on="1"/>
        <pt x="751" y="409" on="0"/>
        <pt x="744" y="391" on="1"/>
        <pt x="779" y="347" on="0"/>
        <pt x="779" y="297" on="1"/>
        <pt x="779" y="148" on="1"/>
        <pt x="779" y="87" on="0"/>
        <pt x="692" y="0" on="0"/>
        <pt x="630" y="0" on="1"/>
        <pt x="59" y="0" on="1"/>
        <pt x="59" y="720" on="1"/>
        <pt x="603" y="720" on="1"/>
        <pt x="664" y="720" on="0"/>
        <pt x="751" y="633" on="0"/>
      </contour>
      <contour>
        <pt x="214" y="288" on="1"/>
        <pt x="214" y="156" on="1"/>
        <pt x="622" y="156" on="1"/>
        <pt x="622" y="288" on="1"/>
      </contour>
      <contour>
        <pt x="214" y="564" on="1"/>
        <pt x="214" y="444" on="1"/>
        <pt x="594" y="444" on="1"/>
        <pt x="594" y="564" on="1"/>
      </contour>
    </TTGlyph>
    <TTGlyph name="C" xMin="56" yMin="0" xMax="774" yMax="720">
      <contour>
        <pt x="774" y="564" on="1"/>
        <pt x="211" y="564" on="1"/>
        <pt x="211" y="156" on="1"/>
        <pt x="774" y="156" on="1"/>
        <pt x="774" y="0" on="1"/>
        <pt x="204" y="0" on="1"/>
        <pt x="142" y="0" on="0"/>
        <pt x="56" y="86" on="0"/>
        <pt x="56" y="148" on="1"/>
        <pt x="56" y="572" on="1"/>
        <pt x="56" y="634" on="0"/>
        <pt x="142" y="720" on="0"/>
        <pt x="204" y="720" on="1"/>
        <pt x="774" y="720" on="1"/>
      </contour>
    </TTGlyph>
    <TTGlyph name="C.alt" xMin="52" yMin="0" xMax="773" yMax="720">
      <contour>
        <pt x="773" y="599" on="1"/>
        <pt x="773" y="465" on="1"/>
        <pt x="616" y="465" on="1"/>
        <pt x="616" y="564" on="1"/>
        <pt x="207" y="564" on="1"/>
        <pt x="207" y="156" on="1"/>
        <pt x="616" y="156" on="1"/>
        <pt x="616" y="255" on="1"/>
        <pt x="770" y="255" on="1"/>
        <pt x="770" y="122" on="1"/>
        <pt x="761" y="70" on="0"/>
        <pt x="678" y="0" on="0"/>
        <pt x="624" y="0" on="1"/>
        <pt x="200" y="0" on="1"/>
        <pt x="138" y="0" on="0"/>
        <pt x="52" y="86" on="0"/>
        <pt x="52" y="148" on="1"/>
        <pt x="52" y="572" on="1"/>
        <pt x="52" y="634" on="0"/>
        <pt x="138" y="720" on="0"/>
        <pt x="200" y="720" on="1"/>
        <pt x="624" y="720" on="1"/>
        <pt x="677" y="720" on="0"/>
        <pt x="760" y="651" on="0"/>
      </contour>
    </TTGlyph>
    <TTGlyph name="Ccedilla" xMin="56" yMin="-156" xMax="774" yMax="720">
      <contour>
        <pt x="774" y="564" on="1"/>
        <pt x="211" y="564" on="1"/>
        <pt x="211" y="156" on="1"/>
        <pt x="774" y="156" on="1"/>
        <pt x="774" y="0" on="1"/>
        <pt x="531" y="0" on="1"/>
        <pt x="484" y="-156" on="1"/>
        <pt x="327" y="-156" on="1"/>
        <pt x="374" y="0" on="1"/>
        <pt x="204" y="0" on="1"/>
        <pt x="142" y="0" on="0"/>
        <pt x="56" y="86" on="0"/>
        <pt x="56" y="148" on="1"/>
        <pt x="56" y="572" on="1"/>
        <pt x="56" y="634" on="0"/>
        <pt x="142" y="720" on="0"/>
        <pt x="204" y="720" on="1"/>
        <pt x="774" y="720" on="1"/>
      </contour>
    </TTGlyph>
    <TTGlyph name="D" xMin="58" yMin="0" xMax="778" yMax="720">
      <contour>
        <pt x="58" y="720" on="1"/>
        <pt x="629" y="720" on="1"/>
        <pt x="691" y="720" on="0"/>
        <pt x="778" y="633" on="0"/>
        <pt x="778" y="572" on="1"/>
        <pt x="778" y="148" on="1"/>
        <pt x="778" y="87" on="0"/>
        <pt x="691" y="0" on="0"/>
        <pt x="629" y="0" on="1"/>
        <pt x="58" y="0" on="1"/>
      </contour>
      <contour>
        <pt x="213" y="564" on="1"/>
        <pt x="213" y="156" on="1"/>
        <pt x="621" y="156" on="1"/>
        <pt x="621" y="564" on="1"/>
      </contour>
    </TTGlyph>
    <TTGlyph name="E" xMin="58" yMin="0" xMax="723" yMax="720">
      <contour>
        <pt x="723" y="720" on="1"/>
        <pt x="723" y="564" on="1"/>
        <pt x="215" y="564" on="1"/>
        <pt x="215" y="438" on="1"/>
        <pt x="624" y="438" on="1"/>
        <pt x="624" y="282" on="1"/>
        <pt x="215" y="282" on="1"/>
        <pt x="215" y="156" on="1"/>
        <pt x="723" y="156" on="1"/>
        <pt x="723" y="0" on="1"/>
        <pt x="58" y="0" on="1"/>
        <pt x="58" y="720" on="1"/>
      </contour>
    </TTGlyph>
    <TTGlyph name="Eacute" xMin="58" yMin="0" xMax="723" yMax="973">
      <contour>
        <pt x="723" y="720" on="1"/>
        <pt x="723" y="564" on="1"/>
        <pt x="215" y="564" on="1"/>
        <pt x="215" y="438" on="1"/>
        <pt x="624" y="438" on="1"/>
        <pt x="624" y="282" on="1"/>
        <pt x="215" y="282" on="1"/>
        <pt x="215" y="156" on="1"/>
        <pt x="723" y="156" on="1"/>
        <pt x="723" y="0" on="1"/>
        <pt x="58" y="0" on="1"/>
        <pt x="58" y="720" on="1"/>
      </contour>
      <contour>
        <pt x="309" y="770" on="1"/>
        <pt x="360" y="973" on="1"/>
        <pt x="517" y="973" on="1"/>
        <pt x="466" y="770" on="1"/>
      </contour>
    </TTGlyph>
    <TTGlyph name="Ecircumflex" xMin="58" yMin="0" xMax="723" yMax="953">
      <contour>
        <pt x="723" y="720" on="1"/>
        <pt x="723" y="564" on="1"/>
        <pt x="215" y="564" on="1"/>
        <pt x="215" y="438" on="1"/>
        <pt x="624" y="438" on="1"/>
        <pt x="624" y="282" on="1"/>
        <pt x="215" y="282" on="1"/>
        <pt x="215" y="156" on="1"/>
        <pt x="723" y="156" on="1"/>
        <pt x="723" y="0" on="1"/>
        <pt x="58" y="0" on="1"/>
        <pt x="58" y="720" on="1"/>
      </contour>
      <contour>
        <pt x="364" y="769" on="1"/>
        <pt x="231" y="769" on="1"/>
        <pt x="341" y="953" on="1"/>
        <pt x="441" y="953" on="1"/>
        <pt x="551" y="769" on="1"/>
        <pt x="417" y="769" on="1"/>
        <pt x="389" y="813" on="1"/>
      </contour>
    </TTGlyph>
    <TTGlyph name="Edieresis" xMin="58" yMin="0" xMax="723" yMax="924">
      <contour>
        <pt x="723" y="720" on="1"/>
        <pt x="723" y="564" on="1"/>
        <pt x="215" y="564" on="1"/>
        <pt x="215" y="438" on="1"/>
        <pt x="624" y="438" on="1"/>
        <pt x="624" y="282" on="1"/>
        <pt x="215" y="282" on="1"/>
        <pt x="215" y="156" on="1"/>
        <pt x="723" y="156" on="1"/>
        <pt x="723" y="0" on="1"/>
        <pt x="58" y="0" on="1"/>
        <pt x="58" y="720" on="1"/>
      </contour>
      <contour>
        <pt x="581" y="924" on="1"/>
        <pt x="581" y="770" on="1"/>
        <pt x="427" y="770" on="1"/>
        <pt x="427" y="924" on="1"/>
      </contour>
      <contour>
        <pt x="367" y="924" on="1"/>
        <pt x="367" y="770" on="1"/>
        <pt x="214" y="770" on="1"/>
        <pt x="214" y="924" on="1"/>
      </contour>
    </TTGlyph>
    <TTGlyph name="Egrave" xMin="58" yMin="0" xMax="723" yMax="973">
      <contour>
        <pt x="723" y="720" on="1"/>
        <pt x="723" y="564" on="1"/>
        <pt x="215" y="564" on="1"/>
        <pt x="215" y="438" on="1"/>
        <pt x="624" y="438" on="1"/>
        <pt x="624" y="282" on="1"/>
        <pt x="215" y="282" on="1"/>
        <pt x="215" y="156" on="1"/>
        <pt x="723" y="156" on="1"/>
        <pt x="723" y="0" on="1"/>
        <pt x="58" y="0" on="1"/>
        <pt x="58" y="720" on="1"/>
      </contour>
      <contour>
        <pt x="436" y="973" on="1"/>
        <pt x="487" y="770" on="1"/>
        <pt x="330" y="770" on="1"/>
        <pt x="279" y="973" on="1"/>
      </contour>
    </TTGlyph>
    <TTGlyph name="Euro" xMin="35" yMin="0" xMax="739" yMax="720">
      <contour>
        <pt x="278" y="187" on="1"/>
        <pt x="278" y="153" on="1"/>
        <pt x="739" y="153" on="1"/>
        <pt x="739" y="0" on="1"/>
        <pt x="270" y="0" on="1"/>
        <pt x="210" y="0" on="0"/>
        <pt x="125" y="86" on="0"/>
        <pt x="125" y="145" on="1"/>
        <pt x="125" y="187" on="1"/>
        <pt x="35" y="187" on="1"/>
        <pt x="35" y="340" on="1"/>
        <pt x="125" y="340" on="1"/>
        <pt x="125" y="375" on="1"/>
        <pt x="35" y="375" on="1"/>
        <pt x="35" y="528" on="1"/>
        <pt x="125" y="528" on="1"/>
        <pt x="125" y="575" on="1"/>
        <pt x="125" y="635" on="0"/>
        <pt x="210" y="720" on="0"/>
        <pt x="270" y="720" on="1"/>
        <pt x="739" y="720" on="1"/>
        <pt x="739" y="567" on="1"/>
        <pt x="278" y="567" on="1"/>
        <pt x="278" y="528" on="1"/>
        <pt x="641" y="528" on="1"/>
        <pt x="641" y="375" on="1"/>
        <pt x="278" y="375" on="1"/>
        <pt x="278" y="340" on="1"/>
        <pt x="641" y="340" on="1"/>
        <pt x="641" y="187" on="1"/>
      </contour>
    </TTGlyph>
    <TTGlyph name="F" xMin="58" yMin="0" xMax="723" yMax="720">
      <contour>
        <pt x="58" y="720" on="1"/>
        <pt x="723" y="720" on="1"/>
        <pt x="723" y="564" on="1"/>
        <pt x="215" y="564" on="1"/>
        <pt x="215" y="438" on="1"/>
        <pt x="624" y="438" on="1"/>
        <pt x="624" y="282" on="1"/>
        <pt x="215" y="282" on="1"/>
        <pt x="215" y="0" on="1"/>
        <pt x="58" y="0" on="1"/>
      </contour>
    </TTGlyph>
    <TTGlyph name="G" xMin="56" yMin="0" xMax="776" yMax="720">
      <contour>
        <pt x="776" y="572" on="1"/>
        <pt x="776" y="504" on="1"/>
        <pt x="619" y="504" on="1"/>
        <pt x="619" y="564" on="1"/>
        <pt x="211" y="564" on="1"/>
        <pt x="211" y="156" on="1"/>
        <pt x="619" y="156" on="1"/>
        <pt x="619" y="264" on="1"/>
        <pt x="463" y="264" on="1"/>
        <pt x="463" y="420" on="1"/>
        <pt x="776" y="420" on="1"/>
        <pt x="776" y="148" on="1"/>
        <pt x="776" y="87" on="0"/>
        <pt x="689" y="0" on="0"/>
        <pt x="627" y="0" on="1"/>
        <pt x="204" y="0" on="1"/>
        <pt x="142" y="0" on="0"/>
        <pt x="56" y="86" on="0"/>
        <pt x="56" y="148" on="1"/>
        <pt x="56" y="572" on="1"/>
        <pt x="56" y="634" on="0"/>
        <pt x="142" y="720" on="0"/>
        <pt x="204" y="720" on="1"/>
        <pt x="627" y="720" on="1"/>
        <pt x="689" y="720" on="0"/>
        <pt x="776" y="633" on="0"/>
      </contour>
    </TTGlyph>
    <TTGlyph name="H" xMin="57" yMin="0" xMax="792" yMax="720">
      <contour>
        <pt x="637" y="720" on="1"/>
        <pt x="792" y="720" on="1"/>
        <pt x="792" y="0" on="1"/>
        <pt x="637" y="0" on="1"/>
        <pt x="637" y="282" on="1"/>
        <pt x="212" y="282" on="1"/>
        <pt x="212" y="0" on="1"/>
        <pt x="57" y="0" on="1"/>
        <pt x="57" y="720" on="1"/>
        <pt x="212" y="720" on="1"/>
        <pt x="212" y="438" on="1"/>
        <pt x="637" y="438" on="1"/>
      </contour>
    </TTGlyph>
    <TTGlyph name="I" xMin="57" yMin="0" xMax="213" yMax="720">
      <contour>
        <pt x="57" y="0" on="1"/>
        <pt x="57" y="720" on="1"/>
        <pt x="213" y="720" on="1"/>
        <pt x="213" y="0" on="1"/>
      </contour>
    </TTGlyph>
    <TTGlyph name="I.alt" xMin="49" yMin="0" xMax="769" yMax="720">
      <contour>
        <pt x="769" y="720" on="1"/>
        <pt x="769" y="564" on="1"/>
        <pt x="487" y="564" on="1"/>
        <pt x="487" y="156" on="1"/>
        <pt x="769" y="156" on="1"/>
        <pt x="769" y="0" on="1"/>
        <pt x="49" y="0" on="1"/>
        <pt x="49" y="156" on="1"/>
        <pt x="331" y="156" on="1"/>
        <pt x="331" y="564" on="1"/>
        <pt x="49" y="564" on="1"/>
        <pt x="49" y="720" on="1"/>
      </contour>
    </TTGlyph>
    <TTGlyph name="Iacute" xMin="36" yMin="0" xMax="244" yMax="973">
      <contour>
        <pt x="42" y="0" on="1"/>
        <pt x="42" y="720" on="1"/>
        <pt x="198" y="720" on="1"/>
        <pt x="198" y="0" on="1"/>
      </contour>
      <contour>
        <pt x="36" y="770" on="1"/>
        <pt x="87" y="973" on="1"/>
        <pt x="244" y="973" on="1"/>
        <pt x="193" y="770" on="1"/>
      </contour>
    </TTGlyph>
    <TTGlyph name="Icircumflex" xMin="-12" yMin="0" xMax="308" yMax="953">
      <contour>
        <pt x="62" y="0" on="1"/>
        <pt x="62" y="720" on="1"/>
        <pt x="218" y="720" on="1"/>
        <pt x="218" y="0" on="1"/>
      </contour>
      <contour>
        <pt x="121" y="769" on="1"/>
        <pt x="-12" y="769" on="1"/>
        <pt x="98" y="953" on="1"/>
        <pt x="198" y="953" on="1"/>
        <pt x="308" y="769" on="1"/>
        <pt x="174" y="769" on="1"/>
        <pt x="146" y="813" on="1"/>
      </contour>
    </TTGlyph>
    <TTGlyph name="Idieresis" xMin="-29" yMin="0" xMax="338" yMax="924">
      <contour>
        <pt x="74" y="0" on="1"/>
        <pt x="74" y="720" on="1"/>
        <pt x="230" y="720" on="1"/>
        <pt x="230" y="0" on="1"/>
      </contour>
      <contour>
        <pt x="338" y="924" on="1"/>
        <pt x="338" y="770" on="1"/>
        <pt x="184" y="770" on="1"/>
        <pt x="184" y="924" on="1"/>
      </contour>
      <contour>
        <pt x="124" y="924" on="1"/>
        <pt x="124" y="770" on="1"/>
        <pt x="-29" y="770" on="1"/>
        <pt x="-29" y="924" on="1"/>
      </contour>
    </TTGlyph>
    <TTGlyph name="Igrave" xMin="36" yMin="0" xMax="251" yMax="973">
      <contour>
        <pt x="95" y="0" on="1"/>
        <pt x="95" y="720" on="1"/>
        <pt x="251" y="720" on="1"/>
        <pt x="251" y="0" on="1"/>
      </contour>
      <contour>
        <pt x="193" y="973" on="1"/>
        <pt x="244" y="770" on="1"/>
        <pt x="87" y="770" on="1"/>
        <pt x="36" y="973" on="1"/>
      </contour>
    </TTGlyph>
    <TTGlyph name="J" xMin="4" yMin="0" xMax="724" yMax="720">
      <contour>
        <pt x="159" y="241" on="1"/>
        <pt x="159" y="156" on="1"/>
        <pt x="567" y="156" on="1"/>
        <pt x="567" y="720" on="1"/>
        <pt x="724" y="720" on="1"/>
        <pt x="724" y="148" on="1"/>
        <pt x="724" y="87" on="0"/>
        <pt x="637" y="0" on="0"/>
        <pt x="576" y="0" on="1"/>
        <pt x="152" y="0" on="1"/>
        <pt x="90" y="0" on="0"/>
        <pt x="4" y="86" on="0"/>
        <pt x="4" y="148" on="1"/>
        <pt x="4" y="241" on="1"/>
      </contour>
    </TTGlyph>
    <TTGlyph name="J.alt" xMin="3" yMin="0" xMax="604" yMax="720">
      <contour>
        <pt x="3" y="0" on="1"/>
        <pt x="3" y="156" on="1"/>
        <pt x="447" y="156" on="1"/>
        <pt x="447" y="720" on="1"/>
        <pt x="604" y="720" on="1"/>
        <pt x="604" y="148" on="1"/>
        <pt x="604" y="87" on="0"/>
        <pt x="516" y="0" on="0"/>
        <pt x="455" y="0" on="1"/>
      </contour>
    </TTGlyph>
    <TTGlyph name="K" xMin="57" yMin="0" xMax="752" yMax="720">
      <contour>
        <pt x="590" y="720" on="1"/>
        <pt x="752" y="720" on="1"/>
        <pt x="752" y="666" on="1"/>
        <pt x="495" y="360" on="1"/>
        <pt x="752" y="54" on="1"/>
        <pt x="752" y="0" on="1"/>
        <pt x="590" y="0" on="1"/>
        <pt x="354" y="282" on="1"/>
        <pt x="213" y="282" on="1"/>
        <pt x="213" y="0" on="1"/>
        <pt x="57" y="0" on="1"/>
        <pt x="57" y="720" on="1"/>
        <pt x="213" y="720" on="1"/>
        <pt x="213" y="438" on="1"/>
        <pt x="354" y="438" on="1"/>
        <pt x="444" y="545" on="1"/>
      </contour>
    </TTGlyph>
    <TTGlyph name="K.alt" xMin="54" yMin="0" xMax="775" yMax="720">
      <contour>
        <pt x="209" y="720" on="1"/>
        <pt x="209" y="435" on="1"/>
        <pt x="618" y="435" on="1"/>
        <pt x="618" y="720" on="1"/>
        <pt x="775" y="720" on="1"/>
        <pt x="775" y="445" on="1"/>
        <pt x="775" y="421" on="0"/>
        <pt x="744" y="373" on="0"/>
        <pt x="717" y="357" on="1"/>
        <pt x="774" y="323" on="0"/>
        <pt x="774" y="269" on="1"/>
        <pt x="774" y="0" on="1"/>
        <pt x="617" y="0" on="1"/>
        <pt x="617" y="279" on="1"/>
        <pt x="209" y="279" on="1"/>
        <pt x="209" y="0" on="1"/>
        <pt x="54" y="0" on="1"/>
        <pt x="54" y="720" on="1"/>
      </contour>
    </TTGlyph>
    <TTGlyph name="L" xMin="57" yMin="0" xMax="777" yMax="721">
      <contour>
        <pt x="57" y="0" on="1"/>
        <pt x="57" y="721" on="1"/>
        <pt x="212" y="721" on="1"/>
        <pt x="212" y="156" on="1"/>
        <pt x="777" y="156" on="1"/>
        <pt x="777" y="0" on="1"/>
      </contour>
    </TTGlyph>
    <TTGlyph name="M" xMin="56" yMin="0" xMax="864" yMax="720">
      <contour>
        <pt x="460" y="429" on="1"/>
        <pt x="703" y="720" on="1"/>
        <pt x="864" y="720" on="1"/>
        <pt x="864" y="0" on="1"/>
        <pt x="708" y="0" on="1"/>
        <pt x="708" y="483" on="1"/>
        <pt x="460" y="187" on="1"/>
        <pt x="211" y="482" on="1"/>
        <pt x="211" y="0" on="1"/>
        <pt x="56" y="0" on="1"/>
        <pt x="56" y="720" on="1"/>
        <pt x="216" y="720" on="1"/>
      </contour>
    </TTGlyph>
    <TTGlyph name="M.alt" xMin="54" yMin="0" xMax="1076" yMax="720">
      <contour>
        <pt x="929" y="720" on="1"/>
        <pt x="989" y="720" on="0"/>
        <pt x="1076" y="633" on="0"/>
        <pt x="1076" y="572" on="1"/>
        <pt x="1076" y="0" on="1"/>
        <pt x="920" y="0" on="1"/>
        <pt x="920" y="564" on="1"/>
        <pt x="632" y="564" on="1"/>
        <pt x="632" y="0" on="1"/>
        <pt x="476" y="0" on="1"/>
        <pt x="476" y="564" on="1"/>
        <pt x="209" y="564" on="1"/>
        <pt x="209" y="0" on="1"/>
        <pt x="54" y="0" on="1"/>
        <pt x="54" y="720" on="1"/>
      </contour>
    </TTGlyph>
    <TTGlyph name="N" xMin="56" yMin="0" xMax="776" yMax="720">
      <contour>
        <pt x="619" y="240" on="1"/>
        <pt x="619" y="720" on="1"/>
        <pt x="776" y="720" on="1"/>
        <pt x="776" y="0" on="1"/>
        <pt x="616" y="0" on="1"/>
        <pt x="211" y="482" on="1"/>
        <pt x="211" y="0" on="1"/>
        <pt x="56" y="0" on="1"/>
        <pt x="56" y="720" on="1"/>
        <pt x="216" y="720" on="1"/>
      </contour>
    </TTGlyph>
    <TTGlyph name="N.alt" xMin="54" yMin="0" xMax="774" yMax="720">
      <contour>
        <pt x="209" y="0" on="1"/>
        <pt x="54" y="0" on="1"/>
        <pt x="54" y="720" on="1"/>
        <pt x="626" y="720" on="1"/>
        <pt x="687" y="720" on="0"/>
        <pt x="774" y="633" on="0"/>
        <pt x="774" y="572" on="1"/>
        <pt x="774" y="0" on="1"/>
        <pt x="617" y="0" on="1"/>
        <pt x="617" y="564" on="1"/>
        <pt x="209" y="564" on="1"/>
      </contour>
    </TTGlyph>
    <TTGlyph name="Ntilde" xMin="56" yMin="0" xMax="776" yMax="951">
      <contour>
        <pt x="619" y="240" on="1"/>
        <pt x="619" y="720" on="1"/>
        <pt x="776" y="720" on="1"/>
        <pt x="776" y="0" on="1"/>
        <pt x="616" y="0" on="1"/>
        <pt x="211" y="482" on="1"/>
        <pt x="211" y="0" on="1"/>
        <pt x="56" y="0" on="1"/>
        <pt x="56" y="720" on="1"/>
        <pt x="216" y="720" on="1"/>
      </contour>
      <contour>
        <pt x="499" y="889" on="1"/>
        <pt x="538" y="889" on="0"/>
        <pt x="595" y="926" on="1"/>
        <pt x="595" y="800" on="1"/>
        <pt x="533" y="774" on="0"/>
        <pt x="459" y="774" on="0"/>
        <pt x="344" y="836" on="0"/>
        <pt x="315" y="836" on="1"/>
        <pt x="304" y="836" on="1"/>
        <pt x="262" y="836" on="0"/>
        <pt x="220" y="800" on="1"/>
        <pt x="220" y="924" on="1"/>
        <pt x="288" y="951" on="0"/>
        <pt x="315" y="951" on="1"/>
        <pt x="352" y="951" on="0"/>
        <pt x="468" y="893" on="0"/>
      </contour>
    </TTGlyph>
    <TTGlyph name="O" xMin="54" yMin="0" xMax="774" yMax="720">
      <contour>
        <pt x="202" y="720" on="1"/>
        <pt x="626" y="720" on="1"/>
        <pt x="687" y="720" on="0"/>
        <pt x="774" y="633" on="0"/>
        <pt x="774" y="572" on="1"/>
        <pt x="774" y="148" on="1"/>
        <pt x="774" y="87" on="0"/>
        <pt x="687" y="0" on="0"/>
        <pt x="626" y="0" on="1"/>
        <pt x="202" y="0" on="1"/>
        <pt x="140" y="0" on="0"/>
        <pt x="54" y="86" on="0"/>
        <pt x="54" y="148" on="1"/>
        <pt x="54" y="572" on="1"/>
        <pt x="54" y="634" on="0"/>
        <pt x="140" y="720" on="0"/>
      </contour>
      <contour>
        <pt x="209" y="564" on="1"/>
        <pt x="209" y="156" on="1"/>
        <pt x="617" y="156" on="1"/>
        <pt x="617" y="564" on="1"/>
      </contour>
    </TTGlyph>
    <TTGlyph name="O.alt" xMin="52" yMin="0" xMax="772" yMax="720">
      <contour>
        <pt x="200" y="720" on="1"/>
        <pt x="624" y="720" on="1"/>
        <pt x="685" y="720" on="0"/>
        <pt x="772" y="633" on="0"/>
        <pt x="772" y="572" on="1"/>
        <pt x="772" y="148" on="1"/>
        <pt x="772" y="87" on="0"/>
        <pt x="685" y="0" on="0"/>
        <pt x="624" y="0" on="1"/>
        <pt x="200" y="0" on="1"/>
        <pt x="138" y="0" on="0"/>
        <pt x="52" y="86" on="0"/>
        <pt x="52" y="148" on="1"/>
        <pt x="52" y="572" on="1"/>
        <pt x="52" y="634" on="0"/>
        <pt x="138" y="720" on="0"/>
      </contour>
      <contour>
        <pt x="207" y="564" on="1"/>
        <pt x="207" y="156" on="1"/>
        <pt x="615" y="156" on="1"/>
        <pt x="615" y="564" on="1"/>
      </contour>
      <contour>
        <pt x="490" y="282" on="1"/>
        <pt x="334" y="282" on="1"/>
        <pt x="334" y="438" on="1"/>
        <pt x="490" y="438" on="1"/>
      </contour>
    </TTGlyph>
    <TTGlyph name="OE" xMin="53" yMin="0" xMax="1282" yMax="720">
      <contour>
        <pt x="773" y="564" on="1"/>
        <pt x="773" y="438" on="1"/>
        <pt x="1182" y="438" on="1"/>
        <pt x="1182" y="282" on="1"/>
        <pt x="773" y="282" on="1"/>
        <pt x="773" y="156" on="1"/>
        <pt x="1282" y="156" on="1"/>
        <pt x="1282" y="0" on="1"/>
        <pt x="201" y="0" on="1"/>
        <pt x="140" y="0" on="0"/>
        <pt x="53" y="87" on="0"/>
        <pt x="53" y="148" on="1"/>
        <pt x="53" y="572" on="1"/>
        <pt x="53" y="633" on="0"/>
        <pt x="140" y="720" on="0"/>
        <pt x="201" y="720" on="1"/>
        <pt x="1282" y="720" on="1"/>
        <pt x="1282" y="564" on="1"/>
      </contour>
      <contour>
        <pt x="210" y="564" on="1"/>
        <pt x="210" y="156" on="1"/>
        <pt x="618" y="156" on="1"/>
        <pt x="618" y="564" on="1"/>
      </contour>
    </TTGlyph>
    <TTGlyph name="Oacute" xMin="54" yMin="0" xMax="774" yMax="973">
      <contour>
        <pt x="202" y="720" on="1"/>
        <pt x="626" y="720" on="1"/>
        <pt x="687" y="720" on="0"/>
        <pt x="774" y="633" on="0"/>
        <pt x="774" y="572" on="1"/>
        <pt x="774" y="148" on="1"/>
        <pt x="774" y="87" on="0"/>
        <pt x="687" y="0" on="0"/>
        <pt x="626" y="0" on="1"/>
        <pt x="202" y="0" on="1"/>
        <pt x="140" y="0" on="0"/>
        <pt x="54" y="86" on="0"/>
        <pt x="54" y="148" on="1"/>
        <pt x="54" y="572" on="1"/>
        <pt x="54" y="634" on="0"/>
        <pt x="140" y="720" on="0"/>
      </contour>
      <contour>
        <pt x="209" y="564" on="1"/>
        <pt x="209" y="156" on="1"/>
        <pt x="617" y="156" on="1"/>
        <pt x="617" y="564" on="1"/>
      </contour>
      <contour>
        <pt x="340" y="770" on="1"/>
        <pt x="391" y="973" on="1"/>
        <pt x="548" y="973" on="1"/>
        <pt x="497" y="770" on="1"/>
      </contour>
    </TTGlyph>
    <TTGlyph name="Ocircumflex" xMin="54" yMin="0" xMax="774" yMax="953">
      <contour>
        <pt x="202" y="720" on="1"/>
        <pt x="626" y="720" on="1"/>
        <pt x="687" y="720" on="0"/>
        <pt x="774" y="633" on="0"/>
        <pt x="774" y="572" on="1"/>
        <pt x="774" y="148" on="1"/>
        <pt x="774" y="87" on="0"/>
        <pt x="687" y="0" on="0"/>
        <pt x="626" y="0" on="1"/>
        <pt x="202" y="0" on="1"/>
        <pt x="140" y="0" on="0"/>
        <pt x="54" y="86" on="0"/>
        <pt x="54" y="148" on="1"/>
        <pt x="54" y="572" on="1"/>
        <pt x="54" y="634" on="0"/>
        <pt x="140" y="720" on="0"/>
      </contour>
      <contour>
        <pt x="209" y="564" on="1"/>
        <pt x="209" y="156" on="1"/>
        <pt x="617" y="156" on="1"/>
        <pt x="617" y="564" on="1"/>
      </contour>
      <contour>
        <pt x="395" y="769" on="1"/>
        <pt x="262" y="769" on="1"/>
        <pt x="372" y="953" on="1"/>
        <pt x="472" y="953" on="1"/>
        <pt x="582" y="769" on="1"/>
        <pt x="448" y="769" on="1"/>
        <pt x="420" y="813" on="1"/>
      </contour>
    </TTGlyph>
    <TTGlyph name="Odieresis" xMin="54" yMin="0" xMax="774" yMax="924">
      <contour>
        <pt x="202" y="720" on="1"/>
        <pt x="626" y="720" on="1"/>
        <pt x="687" y="720" on="0"/>
        <pt x="774" y="633" on="0"/>
        <pt x="774" y="572" on="1"/>
        <pt x="774" y="148" on="1"/>
        <pt x="774" y="87" on="0"/>
        <pt x="687" y="0" on="0"/>
        <pt x="626" y="0" on="1"/>
        <pt x="202" y="0" on="1"/>
        <pt x="140" y="0" on="0"/>
        <pt x="54" y="86" on="0"/>
        <pt x="54" y="148" on="1"/>
        <pt x="54" y="572" on="1"/>
        <pt x="54" y="634" on="0"/>
        <pt x="140" y="720" on="0"/>
      </contour>
      <contour>
        <pt x="209" y="564" on="1"/>
        <pt x="209" y="156" on="1"/>
        <pt x="617" y="156" on="1"/>
        <pt x="617" y="564" on="1"/>
      </contour>
      <contour>
        <pt x="602" y="924" on="1"/>
        <pt x="602" y="770" on="1"/>
        <pt x="448" y="770" on="1"/>
        <pt x="448" y="924" on="1"/>
      </contour>
      <contour>
        <pt x="388" y="924" on="1"/>
        <pt x="388" y="770" on="1"/>
        <pt x="235" y="770" on="1"/>
        <pt x="235" y="924" on="1"/>
      </contour>
    </TTGlyph>
    <TTGlyph name="Ograve" xMin="54" yMin="0" xMax="774" yMax="973">
      <contour>
        <pt x="202" y="720" on="1"/>
        <pt x="626" y="720" on="1"/>
        <pt x="687" y="720" on="0"/>
        <pt x="774" y="633" on="0"/>
        <pt x="774" y="572" on="1"/>
        <pt x="774" y="148" on="1"/>
        <pt x="774" y="87" on="0"/>
        <pt x="687" y="0" on="0"/>
        <pt x="626" y="0" on="1"/>
        <pt x="202" y="0" on="1"/>
        <pt x="140" y="0" on="0"/>
        <pt x="54" y="86" on="0"/>
        <pt x="54" y="148" on="1"/>
        <pt x="54" y="572" on="1"/>
        <pt x="54" y="634" on="0"/>
        <pt x="140" y="720" on="0"/>
      </contour>
      <contour>
        <pt x="209" y="564" on="1"/>
        <pt x="209" y="156" on="1"/>
        <pt x="617" y="156" on="1"/>
        <pt x="617" y="564" on="1"/>
      </contour>
      <contour>
        <pt x="457" y="973" on="1"/>
        <pt x="508" y="770" on="1"/>
        <pt x="351" y="770" on="1"/>
        <pt x="300" y="973" on="1"/>
      </contour>
    </TTGlyph>
    <TTGlyph name="Otilde" xMin="54" yMin="0" xMax="774" yMax="951">
      <contour>
        <pt x="202" y="720" on="1"/>
        <pt x="626" y="720" on="1"/>
        <pt x="687" y="720" on="0"/>
        <pt x="774" y="633" on="0"/>
        <pt x="774" y="572" on="1"/>
        <pt x="774" y="148" on="1"/>
        <pt x="774" y="87" on="0"/>
        <pt x="687" y="0" on="0"/>
        <pt x="626" y="0" on="1"/>
        <pt x="202" y="0" on="1"/>
        <pt x="140" y="0" on="0"/>
        <pt x="54" y="86" on="0"/>
        <pt x="54" y="148" on="1"/>
        <pt x="54" y="572" on="1"/>
        <pt x="54" y="634" on="0"/>
        <pt x="140" y="720" on="0"/>
      </contour>
      <contour>
        <pt x="209" y="564" on="1"/>
        <pt x="209" y="156" on="1"/>
        <pt x="617" y="156" on="1"/>
        <pt x="617" y="564" on="1"/>
      </contour>
      <contour>
        <pt x="487" y="889" on="1"/>
        <pt x="526" y="889" on="0"/>
        <pt x="583" y="926" on="1"/>
        <pt x="583" y="800" on="1"/>
        <pt x="521" y="774" on="0"/>
        <pt x="447" y="774" on="0"/>
        <pt x="332" y="836" on="0"/>
        <pt x="303" y="836" on="1"/>
        <pt x="292" y="836" on="1"/>
        <pt x="250" y="836" on="0"/>
        <pt x="208" y="800" on="1"/>
        <pt x="208" y="924" on="1"/>
        <pt x="276" y="951" on="0"/>
        <pt x="303" y="951" on="1"/>
        <pt x="340" y="951" on="0"/>
        <pt x="456" y="893" on="0"/>
      </contour>
    </TTGlyph>
    <TTGlyph name="P" xMin="56" yMin="0" xMax="776" yMax="719">
      <contour>
        <pt x="56" y="719" on="1"/>
        <pt x="627" y="719" on="1"/>
        <pt x="688" y="719" on="0"/>
        <pt x="776" y="632" on="0"/>
        <pt x="776" y="571" on="1"/>
        <pt x="776" y="385" on="1"/>
        <pt x="776" y="324" on="0"/>
        <pt x="688" y="237" on="0"/>
        <pt x="627" y="237" on="1"/>
        <pt x="211" y="236" on="1"/>
        <pt x="214" y="236" on="0"/>
        <pt x="214" y="230" on="1"/>
        <pt x="212" y="230" on="0"/>
        <pt x="211" y="231" on="1"/>
        <pt x="211" y="0" on="1"/>
        <pt x="56" y="0" on="1"/>
      </contour>
      <contour>
        <pt x="211" y="564" on="1"/>
        <pt x="211" y="393" on="1"/>
        <pt x="619" y="393" on="1"/>
        <pt x="619" y="564" on="1"/>
      </contour>
    </TTGlyph>
    <TTGlyph name="Q" xMin="54" yMin="0" xMax="856" yMax="720">
      <contour>
        <pt x="774" y="572" on="1"/>
        <pt x="774" y="156" on="1"/>
        <pt x="856" y="156" on="1"/>
        <pt x="856" y="0" on="1"/>
        <pt x="202" y="0" on="1"/>
        <pt x="140" y="0" on="0"/>
        <pt x="54" y="86" on="0"/>
        <pt x="54" y="148" on="1"/>
        <pt x="54" y="572" on="1"/>
        <pt x="54" y="634" on="0"/>
        <pt x="140" y="720" on="0"/>
        <pt x="202" y="720" on="1"/>
        <pt x="625" y="720" on="1"/>
        <pt x="687" y="720" on="0"/>
        <pt x="774" y="633" on="0"/>
      </contour>
      <contour>
        <pt x="209" y="564" on="1"/>
        <pt x="209" y="156" on="1"/>
        <pt x="617" y="156" on="1"/>
        <pt x="617" y="564" on="1"/>
      </contour>
    </TTGlyph>
    <TTGlyph name="Q.alt" xMin="54" yMin="-120" xMax="774" yMax="720">
      <contour>
        <pt x="626" y="720" on="1"/>
        <pt x="687" y="720" on="0"/>
        <pt x="774" y="633" on="0"/>
        <pt x="774" y="572" on="1"/>
        <pt x="774" y="148" on="1"/>
        <pt x="774" y="87" on="0"/>
        <pt x="687" y="0" on="0"/>
        <pt x="626" y="0" on="1"/>
        <pt x="492" y="0" on="1"/>
        <pt x="492" y="-120" on="1"/>
        <pt x="335" y="-120" on="1"/>
        <pt x="335" y="0" on="1"/>
        <pt x="202" y="0" on="1"/>
        <pt x="140" y="0" on="0"/>
        <pt x="54" y="86" on="0"/>
        <pt x="54" y="148" on="1"/>
        <pt x="54" y="572" on="1"/>
        <pt x="54" y="634" on="0"/>
        <pt x="140" y="720" on="0"/>
        <pt x="202" y="720" on="1"/>
      </contour>
      <contour>
        <pt x="209" y="564" on="1"/>
        <pt x="209" y="156" on="1"/>
        <pt x="617" y="156" on="1"/>
        <pt x="617" y="564" on="1"/>
      </contour>
    </TTGlyph>
    <TTGlyph name="R" xMin="55" yMin="0" xMax="775" yMax="719">
      <contour>
        <pt x="775" y="571" on="1"/>
        <pt x="775" y="385" on="1"/>
        <pt x="775" y="324" on="0"/>
        <pt x="687" y="237" on="0"/>
        <pt x="626" y="237" on="1"/>
        <pt x="619" y="237" on="1"/>
        <pt x="775" y="53" on="1"/>
        <pt x="775" y="0" on="1"/>
        <pt x="615" y="0" on="1"/>
        <pt x="416" y="237" on="1"/>
        <pt x="210" y="236" on="1"/>
        <pt x="213" y="236" on="0"/>
        <pt x="213" y="230" on="1"/>
        <pt x="211" y="230" on="0"/>
        <pt x="210" y="231" on="1"/>
        <pt x="210" y="0" on="1"/>
        <pt x="55" y="0" on="1"/>
        <pt x="55" y="719" on="1"/>
        <pt x="626" y="719" on="1"/>
        <pt x="687" y="719" on="0"/>
        <pt x="775" y="632" on="0"/>
      </contour>
      <contour>
        <pt x="210" y="564" on="1"/>
        <pt x="210" y="393" on="1"/>
        <pt x="618" y="393" on="1"/>
        <pt x="618" y="564" on="1"/>
      </contour>
    </TTGlyph>
    <TTGlyph name="R.alt" xMin="54" yMin="0" xMax="774" yMax="721">
      <contour>
        <pt x="774" y="571" on="1"/>
        <pt x="774" y="385" on="1"/>
        <pt x="774" y="340" on="0"/>
        <pt x="740" y="315" on="1"/>
        <pt x="774" y="291" on="0"/>
        <pt x="774" y="245" on="1"/>
        <pt x="774" y="0" on="1"/>
        <pt x="617" y="0" on="1"/>
        <pt x="617" y="237" on="1"/>
        <pt x="209" y="237" on="1"/>
        <pt x="209" y="0" on="1"/>
        <pt x="54" y="0" on="1"/>
        <pt x="54" y="721" on="1"/>
        <pt x="626" y="720" on="1"/>
        <pt x="687" y="720" on="0"/>
        <pt x="774" y="632" on="0"/>
      </contour>
      <contour>
        <pt x="209" y="564" on="1"/>
        <pt x="209" y="393" on="1"/>
        <pt x="617" y="393" on="1"/>
        <pt x="617" y="564" on="1"/>
      </contour>
    </TTGlyph>
    <TTGlyph name="S" xMin="51" yMin="0" xMax="771" yMax="720">
      <contour>
        <pt x="771" y="572" on="1"/>
        <pt x="771" y="505" on="1"/>
        <pt x="614" y="505" on="1"/>
        <pt x="614" y="564" on="1"/>
        <pt x="206" y="564" on="1"/>
        <pt x="206" y="438" on="1"/>
        <pt x="623" y="438" on="1"/>
        <pt x="684" y="438" on="0"/>
        <pt x="771" y="351" on="0"/>
        <pt x="771" y="290" on="1"/>
        <pt x="771" y="148" on="1"/>
        <pt x="771" y="87" on="0"/>
        <pt x="684" y="0" on="0"/>
        <pt x="623" y="0" on="1"/>
        <pt x="199" y="0" on="1"/>
        <pt x="138" y="0" on="0"/>
        <pt x="51" y="86" on="0"/>
        <pt x="51" y="148" on="1"/>
        <pt x="51" y="215" on="1"/>
        <pt x="206" y="215" on="1"/>
        <pt x="206" y="156" on="1"/>
        <pt x="614" y="156" on="1"/>
        <pt x="614" y="282" on="1"/>
        <pt x="199" y="282" on="1"/>
        <pt x="138" y="282" on="0"/>
        <pt x="51" y="368" on="0"/>
        <pt x="51" y="430" on="1"/>
        <pt x="51" y="572" on="1"/>
        <pt x="51" y="634" on="0"/>
        <pt x="138" y="720" on="0"/>
        <pt x="199" y="720" on="1"/>
        <pt x="623" y="720" on="1"/>
        <pt x="684" y="720" on="0"/>
        <pt x="771" y="633" on="0"/>
      </contour>
    </TTGlyph>
    <TTGlyph name="S.alt" xMin="46" yMin="0" xMax="766" yMax="720">
      <contour>
        <pt x="766" y="564" on="1"/>
        <pt x="202" y="564" on="1"/>
        <pt x="202" y="438" on="1"/>
        <pt x="618" y="438" on="1"/>
        <pt x="679" y="438" on="0"/>
        <pt x="766" y="351" on="0"/>
        <pt x="766" y="290" on="1"/>
        <pt x="766" y="148" on="1"/>
        <pt x="766" y="87" on="0"/>
        <pt x="679" y="0" on="0"/>
        <pt x="618" y="0" on="1"/>
        <pt x="46" y="0" on="1"/>
        <pt x="46" y="156" on="1"/>
        <pt x="610" y="156" on="1"/>
        <pt x="610" y="282" on="1"/>
        <pt x="194" y="282" on="1"/>
        <pt x="132" y="282" on="0"/>
        <pt x="46" y="368" on="0"/>
        <pt x="46" y="430" on="1"/>
        <pt x="46" y="572" on="1"/>
        <pt x="46" y="634" on="0"/>
        <pt x="132" y="720" on="0"/>
        <pt x="194" y="720" on="1"/>
        <pt x="766" y="720" on="1"/>
      </contour>
    </TTGlyph>
    <TTGlyph name="Scaron" xMin="51" yMin="0" xMax="771" yMax="953">
      <contour>
        <pt x="771" y="572" on="1"/>
        <pt x="771" y="505" on="1"/>
        <pt x="614" y="505" on="1"/>
        <pt x="614" y="564" on="1"/>
        <pt x="206" y="564" on="1"/>
        <pt x="206" y="438" on="1"/>
        <pt x="623" y="438" on="1"/>
        <pt x="684" y="438" on="0"/>
        <pt x="771" y="351" on="0"/>
        <pt x="771" y="290" on="1"/>
        <pt x="771" y="148" on="1"/>
        <pt x="771" y="87" on="0"/>
        <pt x="684" y="0" on="0"/>
        <pt x="623" y="0" on="1"/>
        <pt x="199" y="0" on="1"/>
        <pt x="138" y="0" on="0"/>
        <pt x="51" y="86" on="0"/>
        <pt x="51" y="148" on="1"/>
        <pt x="51" y="215" on="1"/>
        <pt x="206" y="215" on="1"/>
        <pt x="206" y="156" on="1"/>
        <pt x="614" y="156" on="1"/>
        <pt x="614" y="282" on="1"/>
        <pt x="199" y="282" on="1"/>
        <pt x="138" y="282" on="0"/>
        <pt x="51" y="368" on="0"/>
        <pt x="51" y="430" on="1"/>
        <pt x="51" y="572" on="1"/>
        <pt x="51" y="634" on="0"/>
        <pt x="138" y="720" on="0"/>
        <pt x="199" y="720" on="1"/>
        <pt x="623" y="720" on="1"/>
        <pt x="684" y="720" on="0"/>
        <pt x="771" y="633" on="0"/>
      </contour>
      <contour>
        <pt x="259" y="953" on="1"/>
        <pt x="390" y="953" on="1"/>
        <pt x="417" y="909" on="1"/>
        <pt x="444" y="953" on="1"/>
        <pt x="579" y="953" on="1"/>
        <pt x="469" y="769" on="1"/>
        <pt x="369" y="769" on="1"/>
      </contour>
    </TTGlyph>
    <TTGlyph name="T" xMin="20" yMin="0" xMax="740" yMax="720">
      <contour>
        <pt x="20" y="720" on="1"/>
        <pt x="740" y="720" on="1"/>
        <pt x="740" y="564" on="1"/>
        <pt x="458" y="564" on="1"/>
        <pt x="458" y="0" on="1"/>
        <pt x="302" y="0" on="1"/>
        <pt x="302" y="564" on="1"/>
        <pt x="20" y="564" on="1"/>
      </contour>
    </TTGlyph>
    <TTGlyph name="U" xMin="54" yMin="0" xMax="774" yMax="720">
      <contour>
        <pt x="209" y="720" on="1"/>
        <pt x="209" y="156" on="1"/>
        <pt x="617" y="156" on="1"/>
        <pt x="617" y="720" on="1"/>
        <pt x="774" y="720" on="1"/>
        <pt x="774" y="148" on="1"/>
        <pt x="774" y="87" on="0"/>
        <pt x="687" y="0" on="0"/>
        <pt x="626" y="0" on="1"/>
        <pt x="202" y="0" on="1"/>
        <pt x="140" y="0" on="0"/>
        <pt x="54" y="86" on="0"/>
        <pt x="54" y="148" on="1"/>
        <pt x="54" y="720" on="1"/>
      </contour>
    </TTGlyph>
    <TTGlyph name="Uacute" xMin="54" yMin="0" xMax="774" yMax="973">
      <contour>
        <pt x="209" y="720" on="1"/>
        <pt x="209" y="156" on="1"/>
        <pt x="617" y="156" on="1"/>
        <pt x="617" y="720" on="1"/>
        <pt x="774" y="720" on="1"/>
        <pt x="774" y="148" on="1"/>
        <pt x="774" y="87" on="0"/>
        <pt x="687" y="0" on="0"/>
        <pt x="626" y="0" on="1"/>
        <pt x="202" y="0" on="1"/>
        <pt x="140" y="0" on="0"/>
        <pt x="54" y="86" on="0"/>
        <pt x="54" y="148" on="1"/>
        <pt x="54" y="720" on="1"/>
      </contour>
      <contour>
        <pt x="320" y="770" on="1"/>
        <pt x="371" y="973" on="1"/>
        <pt x="528" y="973" on="1"/>
        <pt x="477" y="770" on="1"/>
      </contour>
    </TTGlyph>
    <TTGlyph name="Ucircumflex" xMin="54" yMin="0" xMax="774" yMax="953">
      <contour>
        <pt x="209" y="720" on="1"/>
        <pt x="209" y="156" on="1"/>
        <pt x="617" y="156" on="1"/>
        <pt x="617" y="720" on="1"/>
        <pt x="774" y="720" on="1"/>
        <pt x="774" y="148" on="1"/>
        <pt x="774" y="87" on="0"/>
        <pt x="687" y="0" on="0"/>
        <pt x="626" y="0" on="1"/>
        <pt x="202" y="0" on="1"/>
        <pt x="140" y="0" on="0"/>
        <pt x="54" y="86" on="0"/>
        <pt x="54" y="148" on="1"/>
        <pt x="54" y="720" on="1"/>
      </contour>
      <contour>
        <pt x="395" y="769" on="1"/>
        <pt x="262" y="769" on="1"/>
        <pt x="372" y="953" on="1"/>
        <pt x="472" y="953" on="1"/>
        <pt x="582" y="769" on="1"/>
        <pt x="448" y="769" on="1"/>
        <pt x="420" y="813" on="1"/>
      </contour>
    </TTGlyph>
    <TTGlyph name="Udieresis" xMin="54" yMin="0" xMax="774" yMax="924">
      <contour>
        <pt x="209" y="720" on="1"/>
        <pt x="209" y="156" on="1"/>
        <pt x="617" y="156" on="1"/>
        <pt x="617" y="720" on="1"/>
        <pt x="774" y="720" on="1"/>
        <pt x="774" y="148" on="1"/>
        <pt x="774" y="87" on="0"/>
        <pt x="687" y="0" on="0"/>
        <pt x="626" y="0" on="1"/>
        <pt x="202" y="0" on="1"/>
        <pt x="140" y="0" on="0"/>
        <pt x="54" y="86" on="0"/>
        <pt x="54" y="148" on="1"/>
        <pt x="54" y="720" on="1"/>
      </contour>
      <contour>
        <pt x="602" y="924" on="1"/>
        <pt x="602" y="770" on="1"/>
        <pt x="448" y="770" on="1"/>
        <pt x="448" y="924" on="1"/>
      </contour>
      <contour>
        <pt x="388" y="924" on="1"/>
        <pt x="388" y="770" on="1"/>
        <pt x="235" y="770" on="1"/>
        <pt x="235" y="924" on="1"/>
      </contour>
    </TTGlyph>
    <TTGlyph name="Ugrave" xMin="54" yMin="0" xMax="774" yMax="973">
      <contour>
        <pt x="209" y="720" on="1"/>
        <pt x="209" y="156" on="1"/>
        <pt x="617" y="156" on="1"/>
        <pt x="617" y="720" on="1"/>
        <pt x="774" y="720" on="1"/>
        <pt x="774" y="148" on="1"/>
        <pt x="774" y="87" on="0"/>
        <pt x="687" y="0" on="0"/>
        <pt x="626" y="0" on="1"/>
        <pt x="202" y="0" on="1"/>
        <pt x="140" y="0" on="0"/>
        <pt x="54" y="86" on="0"/>
        <pt x="54" y="148" on="1"/>
        <pt x="54" y="720" on="1"/>
      </contour>
      <contour>
        <pt x="457" y="973" on="1"/>
        <pt x="508" y="770" on="1"/>
        <pt x="351" y="770" on="1"/>
        <pt x="300" y="973" on="1"/>
      </contour>
    </TTGlyph>
    <TTGlyph name="V" xMin="35" yMin="0" xMax="998" yMax="720">
      <contour>
        <pt x="517" y="197" on="1"/>
        <pt x="819" y="720" on="1"/>
        <pt x="998" y="720" on="1"/>
        <pt x="581" y="0" on="1"/>
        <pt x="452" y="0" on="1"/>
        <pt x="35" y="720" on="1"/>
        <pt x="215" y="720" on="1"/>
      </contour>
    </TTGlyph>
    <TTGlyph name="V.alt" xMin="54" yMin="0" xMax="761" yMax="720">
      <contour>
        <pt x="54" y="720" on="1"/>
        <pt x="207" y="720" on="1"/>
        <pt x="207" y="234" on="1"/>
        <pt x="605" y="720" on="1"/>
        <pt x="761" y="720" on="1"/>
        <pt x="761" y="656" on="1"/>
        <pt x="211" y="0" on="1"/>
        <pt x="54" y="0" on="1"/>
      </contour>
    </TTGlyph>
    <TTGlyph name="V.alt2" xMin="0" yMin="0" xMax="720" yMax="720">
      <contour>
        <pt x="563" y="240" on="1"/>
        <pt x="563" y="720" on="1"/>
        <pt x="720" y="720" on="1"/>
        <pt x="720" y="0" on="1"/>
        <pt x="561" y="0" on="1"/>
        <pt x="0" y="668" on="1"/>
        <pt x="0" y="720" on="1"/>
        <pt x="160" y="720" on="1"/>
      </contour>
    </TTGlyph>
    <TTGlyph name="V.alt3" xMin="53" yMin="0" xMax="773" yMax="720">
      <contour>
        <pt x="616" y="720" on="1"/>
        <pt x="773" y="720" on="1"/>
        <pt x="773" y="0" on="1"/>
        <pt x="201" y="0" on="1"/>
        <pt x="140" y="0" on="0"/>
        <pt x="53" y="86" on="0"/>
        <pt x="53" y="148" on="1"/>
        <pt x="53" y="720" on="1"/>
        <pt x="208" y="720" on="1"/>
        <pt x="208" y="156" on="1"/>
        <pt x="616" y="156" on="1"/>
      </contour>
    </TTGlyph>
    <TTGlyph name="W" xMin="35" yMin="0" xMax="1136" yMax="720">
      <contour>
        <pt x="972" y="720" on="1"/>
        <pt x="1136" y="720" on="1"/>
        <pt x="874" y="0" on="1"/>
        <pt x="755" y="0" on="1"/>
        <pt x="585" y="463" on="1"/>
        <pt x="521" y="287" on="1"/>
        <pt x="416" y="0" on="1"/>
        <pt x="297" y="0" on="1"/>
        <pt x="35" y="720" on="1"/>
        <pt x="200" y="720" on="1"/>
        <pt x="357" y="291" on="1"/>
        <pt x="382" y="358" on="1"/>
        <pt x="514" y="720" on="1"/>
        <pt x="657" y="720" on="1"/>
        <pt x="815" y="291" on="1"/>
        <pt x="840" y="358" on="1"/>
      </contour>
    </TTGlyph>
    <TTGlyph name="W.alt" xMin="80" yMin="0" xMax="1149" yMax="720">
      <contour>
        <pt x="988" y="720" on="1"/>
        <pt x="1149" y="720" on="1"/>
        <pt x="1149" y="668" on="1"/>
        <pt x="588" y="0" on="1"/>
        <pt x="429" y="0" on="1"/>
        <pt x="429" y="225" on="1"/>
        <pt x="240" y="0" on="1"/>
        <pt x="80" y="0" on="1"/>
        <pt x="80" y="720" on="1"/>
        <pt x="236" y="720" on="1"/>
        <pt x="236" y="237" on="1"/>
        <pt x="370" y="397" on="1"/>
        <pt x="369" y="397" on="1"/>
        <pt x="640" y="720" on="1"/>
        <pt x="800" y="720" on="1"/>
        <pt x="800" y="667" on="1"/>
        <pt x="585" y="413" on="1"/>
        <pt x="585" y="237" on="1"/>
        <pt x="687" y="359" on="1"/>
      </contour>
    </TTGlyph>
    <TTGlyph name="W.alt2" xMin="-1" yMin="0" xMax="1068" yMax="720">
      <contour>
        <pt x="159" y="720" on="1"/>
        <pt x="563" y="240" on="1"/>
        <pt x="563" y="413" on="1"/>
        <pt x="348" y="667" on="1"/>
        <pt x="348" y="720" on="1"/>
        <pt x="507" y="720" on="1"/>
        <pt x="912" y="238" on="1"/>
        <pt x="912" y="720" on="1"/>
        <pt x="1068" y="720" on="1"/>
        <pt x="1068" y="0" on="1"/>
        <pt x="909" y="0" on="1"/>
        <pt x="719" y="225" on="1"/>
        <pt x="719" y="0" on="1"/>
        <pt x="560" y="0" on="1"/>
        <pt x="-1" y="668" on="1"/>
        <pt x="-1" y="720" on="1"/>
      </contour>
    </TTGlyph>
    <TTGlyph name="W.alt3" xMin="54" yMin="0" xMax="958" yMax="720">
      <contour>
        <pt x="506" y="349" on="1"/>
        <pt x="213" y="0" on="1"/>
        <pt x="54" y="0" on="1"/>
        <pt x="54" y="720" on="1"/>
        <pt x="209" y="720" on="1"/>
        <pt x="209" y="239" on="1"/>
        <pt x="507" y="591" on="1"/>
        <pt x="802" y="240" on="1"/>
        <pt x="802" y="720" on="1"/>
        <pt x="958" y="720" on="1"/>
        <pt x="958" y="0" on="1"/>
        <pt x="799" y="0" on="1"/>
      </contour>
    </TTGlyph>
    <TTGlyph name="W.alt4" xMin="53" yMin="0" xMax="1075" yMax="720">
      <contour>
        <pt x="201" y="0" on="1"/>
        <pt x="140" y="0" on="0"/>
        <pt x="53" y="86" on="0"/>
        <pt x="53" y="148" on="1"/>
        <pt x="53" y="720" on="1"/>
        <pt x="208" y="720" on="1"/>
        <pt x="208" y="156" on="1"/>
        <pt x="497" y="156" on="1"/>
        <pt x="497" y="720" on="1"/>
        <pt x="653" y="720" on="1"/>
        <pt x="653" y="156" on="1"/>
        <pt x="919" y="156" on="1"/>
        <pt x="919" y="720" on="1"/>
        <pt x="1075" y="720" on="1"/>
        <pt x="1075" y="0" on="1"/>
      </contour>
    </TTGlyph>
    <TTGlyph name="X" xMin="46" yMin="0" xMax="766" yMax="720">
      <contour>
        <pt x="605" y="720" on="1"/>
        <pt x="766" y="720" on="1"/>
        <pt x="766" y="667" on="1"/>
        <pt x="508" y="360" on="1"/>
        <pt x="766" y="54" on="1"/>
        <pt x="766" y="0" on="1"/>
        <pt x="605" y="0" on="1"/>
        <pt x="405" y="236" on="1"/>
        <pt x="207" y="0" on="1"/>
        <pt x="46" y="0" on="1"/>
        <pt x="46" y="53" on="1"/>
        <pt x="303" y="360" on="1"/>
        <pt x="46" y="667" on="1"/>
        <pt x="46" y="720" on="1"/>
        <pt x="207" y="720" on="1"/>
        <pt x="407" y="483" on="1"/>
        <pt x="436" y="520" on="0"/>
        <pt x="578" y="687" on="0"/>
      </contour>
    </TTGlyph>
    <TTGlyph name="X.alt" xMin="54" yMin="0" xMax="775" yMax="720">
      <contour>
        <pt x="618" y="720" on="1"/>
        <pt x="775" y="720" on="1"/>
        <pt x="775" y="445" on="1"/>
        <pt x="775" y="390" on="0"/>
        <pt x="719" y="357" on="1"/>
        <pt x="774" y="326" on="0"/>
        <pt x="774" y="269" on="1"/>
        <pt x="774" y="0" on="1"/>
        <pt x="617" y="0" on="1"/>
        <pt x="617" y="279" on="1"/>
        <pt x="210" y="279" on="1"/>
        <pt x="210" y="0" on="1"/>
        <pt x="55" y="0" on="1"/>
        <pt x="55" y="269" on="1"/>
        <pt x="55" y="323" on="0"/>
        <pt x="109" y="357" on="1"/>
        <pt x="54" y="395" on="0"/>
        <pt x="54" y="445" on="1"/>
        <pt x="54" y="720" on="1"/>
        <pt x="209" y="720" on="1"/>
        <pt x="209" y="435" on="1"/>
        <pt x="618" y="435" on="1"/>
      </contour>
    </TTGlyph>
    <TTGlyph name="Y" xMin="17" yMin="0" xMax="840" yMax="720">
      <contour>
        <pt x="653" y="720" on="1"/>
        <pt x="840" y="720" on="1"/>
        <pt x="506" y="268" on="1"/>
        <pt x="506" y="0" on="1"/>
        <pt x="350" y="0" on="1"/>
        <pt x="350" y="269" on="1"/>
        <pt x="219" y="445" on="1"/>
        <pt x="17" y="720" on="1"/>
        <pt x="202" y="720" on="1"/>
        <pt x="428" y="436" on="1"/>
      </contour>
    </TTGlyph>
    <TTGlyph name="Y.alt" xMin="51" yMin="0" xMax="771" yMax="720">
      <contour>
        <pt x="614" y="720" on="1"/>
        <pt x="771" y="720" on="1"/>
        <pt x="771" y="148" on="1"/>
        <pt x="771" y="87" on="0"/>
        <pt x="684" y="0" on="0"/>
        <pt x="623" y="0" on="1"/>
        <pt x="51" y="0" on="1"/>
        <pt x="51" y="156" on="1"/>
        <pt x="614" y="156" on="1"/>
        <pt x="614" y="282" on="1"/>
        <pt x="199" y="282" on="1"/>
        <pt x="138" y="282" on="0"/>
        <pt x="51" y="368" on="0"/>
        <pt x="51" y="430" on="1"/>
        <pt x="51" y="720" on="1"/>
        <pt x="206" y="720" on="1"/>
        <pt x="206" y="438" on="1"/>
        <pt x="614" y="438" on="1"/>
      </contour>
    </TTGlyph>
    <TTGlyph name="Yacute" xMin="17" yMin="0" xMax="840" yMax="973">
      <contour>
        <pt x="653" y="720" on="1"/>
        <pt x="840" y="720" on="1"/>
        <pt x="506" y="268" on="1"/>
        <pt x="506" y="0" on="1"/>
        <pt x="350" y="0" on="1"/>
        <pt x="350" y="269" on="1"/>
        <pt x="219" y="445" on="1"/>
        <pt x="17" y="720" on="1"/>
        <pt x="202" y="720" on="1"/>
        <pt x="428" y="436" on="1"/>
      </contour>
      <contour>
        <pt x="329" y="770" on="1"/>
        <pt x="380" y="973" on="1"/>
        <pt x="537" y="973" on="1"/>
        <pt x="486" y="770" on="1"/>
      </contour>
    </TTGlyph>
    <TTGlyph name="Ydieresis" xMin="17" yMin="0" xMax="840" yMax="924">
      <contour>
        <pt x="653" y="720" on="1"/>
        <pt x="840" y="720" on="1"/>
        <pt x="506" y="268" on="1"/>
        <pt x="506" y="0" on="1"/>
        <pt x="350" y="0" on="1"/>
        <pt x="350" y="269" on="1"/>
        <pt x="219" y="445" on="1"/>
        <pt x="17" y="720" on="1"/>
        <pt x="202" y="720" on="1"/>
        <pt x="428" y="436" on="1"/>
      </contour>
      <contour>
        <pt x="611" y="924" on="1"/>
        <pt x="611" y="770" on="1"/>
        <pt x="457" y="770" on="1"/>
        <pt x="457" y="924" on="1"/>
      </contour>
      <contour>
        <pt x="397" y="924" on="1"/>
        <pt x="397" y="770" on="1"/>
        <pt x="244" y="770" on="1"/>
        <pt x="244" y="924" on="1"/>
      </contour>
    </TTGlyph>
    <TTGlyph name="Z" xMin="51" yMin="0" xMax="771" yMax="720">
      <contour>
        <pt x="51" y="564" on="1"/>
        <pt x="51" y="720" on="1"/>
        <pt x="771" y="720" on="1"/>
        <pt x="771" y="561" on="1"/>
        <pt x="289" y="156" on="1"/>
        <pt x="771" y="156" on="1"/>
        <pt x="771" y="0" on="1"/>
        <pt x="51" y="0" on="1"/>
        <pt x="51" y="159" on="1"/>
        <pt x="533" y="564" on="1"/>
      </contour>
    </TTGlyph>
    <TTGlyph name="Z.alt" xMin="49" yMin="0" xMax="769" yMax="720">
      <contour>
        <pt x="197" y="438" on="1"/>
        <pt x="612" y="438" on="1"/>
        <pt x="612" y="564" on="1"/>
        <pt x="49" y="564" on="1"/>
        <pt x="49" y="720" on="1"/>
        <pt x="621" y="720" on="1"/>
        <pt x="682" y="720" on="0"/>
        <pt x="769" y="633" on="0"/>
        <pt x="769" y="572" on="1"/>
        <pt x="769" y="430" on="1"/>
        <pt x="769" y="369" on="0"/>
        <pt x="682" y="282" on="0"/>
        <pt x="621" y="282" on="1"/>
        <pt x="204" y="282" on="1"/>
        <pt x="204" y="156" on="1"/>
        <pt x="769" y="156" on="1"/>
        <pt x="769" y="0" on="1"/>
        <pt x="197" y="0" on="1"/>
        <pt x="136" y="0" on="0"/>
        <pt x="49" y="86" on="0"/>
        <pt x="49" y="148" on="1"/>
        <pt x="49" y="290" on="1"/>
        <pt x="49" y="352" on="0"/>
        <pt x="136" y="438" on="0"/>
      </contour>
    </TTGlyph>
    <TTGlyph name="Zcaron" xMin="51" yMin="0" xMax="771" yMax="953">
      <contour>
        <pt x="51" y="564" on="1"/>
        <pt x="51" y="720" on="1"/>
        <pt x="771" y="720" on="1"/>
        <pt x="771" y="561" on="1"/>
        <pt x="289" y="156" on="1"/>
        <pt x="771" y="156" on="1"/>
        <pt x="771" y="0" on="1"/>
        <pt x="51" y="0" on="1"/>
        <pt x="51" y="159" on="1"/>
        <pt x="533" y="564" on="1"/>
      </contour>
      <contour>
        <pt x="258" y="953" on="1"/>
        <pt x="389" y="953" on="1"/>
        <pt x="416" y="909" on="1"/>
        <pt x="443" y="953" on="1"/>
        <pt x="578" y="953" on="1"/>
        <pt x="468" y="769" on="1"/>
        <pt x="368" y="769" on="1"/>
      </contour>
    </TTGlyph>
    <TTGlyph name="a" xMin="52" yMin="0" xMax="640" yMax="580">
      <contour>
        <pt x="495" y="580" on="1"/>
        <pt x="555" y="580" on="0"/>
        <pt x="640" y="494" on="0"/>
        <pt x="640" y="435" on="1"/>
        <pt x="640" y="0" on="1"/>
        <pt x="197" y="0" on="1"/>
        <pt x="137" y="0" on="0"/>
        <pt x="52" y="86" on="0"/>
        <pt x="52" y="145" on="1"/>
        <pt x="52" y="367" on="1"/>
        <pt x="487" y="367" on="1"/>
        <pt x="487" y="427" on="1"/>
        <pt x="52" y="427" on="1"/>
        <pt x="52" y="580" on="1"/>
      </contour>
      <contour>
        <pt x="487" y="153" on="1"/>
        <pt x="487" y="233" on="1"/>
        <pt x="205" y="233" on="1"/>
        <pt x="205" y="153" on="1"/>
      </contour>
    </TTGlyph>
    <TTGlyph name="a.alt" xMin="51" yMin="0" xMax="639" yMax="580">
      <contour>
        <pt x="494" y="580" on="1"/>
        <pt x="554" y="580" on="0"/>
        <pt x="639" y="494" on="0"/>
        <pt x="639" y="435" on="1"/>
        <pt x="639" y="0" on="1"/>
        <pt x="196" y="0" on="1"/>
        <pt x="137" y="0" on="0"/>
        <pt x="51" y="86" on="0"/>
        <pt x="51" y="145" on="1"/>
        <pt x="51" y="435" on="1"/>
        <pt x="51" y="494" on="0"/>
        <pt x="137" y="580" on="0"/>
        <pt x="196" y="580" on="1"/>
      </contour>
      <contour>
        <pt x="204" y="153" on="1"/>
        <pt x="486" y="153" on="1"/>
        <pt x="486" y="427" on="1"/>
        <pt x="204" y="427" on="1"/>
      </contour>
    </TTGlyph>
    <TTGlyph name="a.sc" xMin="53" yMin="0" xMax="669" yMax="580">
      <contour>
        <pt x="199" y="580" on="1"/>
        <pt x="524" y="580" on="1"/>
        <pt x="584" y="580" on="0"/>
        <pt x="669" y="494" on="0"/>
        <pt x="669" y="435" on="1"/>
        <pt x="669" y="0" on="1"/>
        <pt x="516" y="0" on="1"/>
        <pt x="516" y="138" on="1"/>
        <pt x="206" y="138" on="1"/>
        <pt x="206" y="0" on="1"/>
        <pt x="53" y="0" on="1"/>
        <pt x="53" y="435" on="1"/>
        <pt x="53" y="494" on="0"/>
        <pt x="139" y="580" on="0"/>
      </contour>
      <contour>
        <pt x="206" y="291" on="1"/>
        <pt x="516" y="291" on="1"/>
        <pt x="516" y="427" on="1"/>
        <pt x="206" y="427" on="1"/>
      </contour>
    </TTGlyph>
    <TTGlyph name="aacute" xMin="52" yMin="0" xMax="640" yMax="841">
      <contour>
        <pt x="495" y="580" on="1"/>
        <pt x="555" y="580" on="0"/>
        <pt x="640" y="494" on="0"/>
        <pt x="640" y="435" on="1"/>
        <pt x="640" y="0" on="1"/>
        <pt x="197" y="0" on="1"/>
        <pt x="137" y="0" on="0"/>
        <pt x="52" y="86" on="0"/>
        <pt x="52" y="145" on="1"/>
        <pt x="52" y="367" on="1"/>
        <pt x="487" y="367" on="1"/>
        <pt x="487" y="427" on="1"/>
        <pt x="52" y="427" on="1"/>
        <pt x="52" y="580" on="1"/>
      </contour>
      <contour>
        <pt x="487" y="153" on="1"/>
        <pt x="487" y="233" on="1"/>
        <pt x="205" y="233" on="1"/>
        <pt x="205" y="153" on="1"/>
      </contour>
      <contour>
        <pt x="278" y="638" on="1"/>
        <pt x="329" y="841" on="1"/>
        <pt x="486" y="841" on="1"/>
        <pt x="435" y="638" on="1"/>
      </contour>
    </TTGlyph>
    <TTGlyph name="acircumflex" xMin="52" yMin="0" xMax="640" yMax="822">
      <contour>
        <pt x="495" y="580" on="1"/>
        <pt x="555" y="580" on="0"/>
        <pt x="640" y="494" on="0"/>
        <pt x="640" y="435" on="1"/>
        <pt x="640" y="0" on="1"/>
        <pt x="197" y="0" on="1"/>
        <pt x="137" y="0" on="0"/>
        <pt x="52" y="86" on="0"/>
        <pt x="52" y="145" on="1"/>
        <pt x="52" y="367" on="1"/>
        <pt x="487" y="367" on="1"/>
        <pt x="487" y="427" on="1"/>
        <pt x="52" y="427" on="1"/>
        <pt x="52" y="580" on="1"/>
      </contour>
      <contour>
        <pt x="487" y="153" on="1"/>
        <pt x="487" y="233" on="1"/>
        <pt x="205" y="233" on="1"/>
        <pt x="205" y="153" on="1"/>
      </contour>
      <contour>
        <pt x="343" y="638" on="1"/>
        <pt x="210" y="638" on="1"/>
        <pt x="320" y="822" on="1"/>
        <pt x="420" y="822" on="1"/>
        <pt x="530" y="638" on="1"/>
        <pt x="396" y="638" on="1"/>
        <pt x="368" y="682" on="1"/>
      </contour>
    </TTGlyph>
    <TTGlyph name="acute" xMin="33" yMin="747" xMax="241" yMax="950">
      <contour>
        <pt x="33" y="747" on="1"/>
        <pt x="84" y="950" on="1"/>
        <pt x="241" y="950" on="1"/>
        <pt x="190" y="747" on="1"/>
      </contour>
    </TTGlyph>
    <TTGlyph name="adieresis" xMin="52" yMin="0" xMax="640" yMax="792">
      <contour>
        <pt x="495" y="580" on="1"/>
        <pt x="555" y="580" on="0"/>
        <pt x="640" y="494" on="0"/>
        <pt x="640" y="435" on="1"/>
        <pt x="640" y="0" on="1"/>
        <pt x="197" y="0" on="1"/>
        <pt x="137" y="0" on="0"/>
        <pt x="52" y="86" on="0"/>
        <pt x="52" y="145" on="1"/>
        <pt x="52" y="367" on="1"/>
        <pt x="487" y="367" on="1"/>
        <pt x="487" y="427" on="1"/>
        <pt x="52" y="427" on="1"/>
        <pt x="52" y="580" on="1"/>
      </contour>
      <contour>
        <pt x="487" y="153" on="1"/>
        <pt x="487" y="233" on="1"/>
        <pt x="205" y="233" on="1"/>
        <pt x="205" y="153" on="1"/>
      </contour>
      <contour>
        <pt x="540" y="792" on="1"/>
        <pt x="540" y="638" on="1"/>
        <pt x="386" y="638" on="1"/>
        <pt x="386" y="792" on="1"/>
      </contour>
      <contour>
        <pt x="326" y="792" on="1"/>
        <pt x="326" y="638" on="1"/>
        <pt x="173" y="638" on="1"/>
        <pt x="173" y="792" on="1"/>
      </contour>
    </TTGlyph>
    <TTGlyph name="ae" xMin="53" yMin="0" xMax="1077" yMax="580">
      <contour>
        <pt x="933" y="580" on="1"/>
        <pt x="993" y="580" on="0"/>
        <pt x="1077" y="495" on="0"/>
        <pt x="1077" y="435" on="1"/>
        <pt x="1077" y="213" on="1"/>
        <pt x="642" y="213" on="1"/>
        <pt x="642" y="153" on="1"/>
        <pt x="1077" y="153" on="1"/>
        <pt x="1077" y="0" on="1"/>
        <pt x="198" y="0" on="1"/>
        <pt x="138" y="0" on="0"/>
        <pt x="53" y="86" on="0"/>
        <pt x="53" y="145" on="1"/>
        <pt x="53" y="367" on="1"/>
        <pt x="489" y="367" on="1"/>
        <pt x="489" y="427" on="1"/>
        <pt x="53" y="427" on="1"/>
        <pt x="53" y="580" on="1"/>
      </contour>
      <contour>
        <pt x="489" y="153" on="1"/>
        <pt x="489" y="233" on="1"/>
        <pt x="206" y="233" on="1"/>
        <pt x="206" y="153" on="1"/>
      </contour>
      <contour>
        <pt x="642" y="347" on="1"/>
        <pt x="924" y="347" on="1"/>
        <pt x="924" y="427" on="1"/>
        <pt x="642" y="427" on="1"/>
      </contour>
    </TTGlyph>
    <TTGlyph name="agrave" xMin="52" yMin="0" xMax="640" yMax="841">
      <contour>
        <pt x="495" y="580" on="1"/>
        <pt x="555" y="580" on="0"/>
        <pt x="640" y="494" on="0"/>
        <pt x="640" y="435" on="1"/>
        <pt x="640" y="0" on="1"/>
        <pt x="197" y="0" on="1"/>
        <pt x="137" y="0" on="0"/>
        <pt x="52" y="86" on="0"/>
        <pt x="52" y="145" on="1"/>
        <pt x="52" y="367" on="1"/>
        <pt x="487" y="367" on="1"/>
        <pt x="487" y="427" on="1"/>
        <pt x="52" y="427" on="1"/>
        <pt x="52" y="580" on="1"/>
      </contour>
      <contour>
        <pt x="487" y="153" on="1"/>
        <pt x="487" y="233" on="1"/>
        <pt x="205" y="233" on="1"/>
        <pt x="205" y="153" on="1"/>
      </contour>
      <contour>
        <pt x="415" y="841" on="1"/>
        <pt x="466" y="638" on="1"/>
        <pt x="309" y="638" on="1"/>
        <pt x="258" y="841" on="1"/>
      </contour>
    </TTGlyph>
    <TTGlyph name="ampersand" xMin="53" yMin="-18" xMax="874" yMax="719">
      <contour>
        <pt x="759" y="208" on="1"/>
        <pt x="874" y="140" on="1"/>
        <pt x="874" y="-18" on="1"/>
        <pt x="734" y="62" on="1"/>
        <pt x="689" y="0" on="0"/>
        <pt x="614" y="0" on="1"/>
        <pt x="198" y="0" on="1"/>
        <pt x="138" y="0" on="0"/>
        <pt x="53" y="86" on="0"/>
        <pt x="53" y="145" on="1"/>
        <pt x="53" y="330" on="1"/>
        <pt x="53" y="352" on="0"/>
        <pt x="75" y="400" on="0"/>
        <pt x="96" y="414" on="1"/>
        <pt x="89" y="431" on="0"/>
        <pt x="89" y="467" on="1"/>
        <pt x="89" y="574" on="1"/>
        <pt x="89" y="634" on="0"/>
        <pt x="175" y="719" on="0"/>
        <pt x="234" y="719" on="1"/>
        <pt x="587" y="719" on="1"/>
        <pt x="640" y="719" on="0"/>
        <pt x="723" y="651" on="0"/>
        <pt x="732" y="600" on="1"/>
        <pt x="732" y="512" on="1"/>
        <pt x="579" y="512" on="1"/>
        <pt x="579" y="565" on="1"/>
        <pt x="242" y="565" on="1"/>
        <pt x="242" y="457" on="1"/>
        <pt x="606" y="274" on="1"/>
        <pt x="606" y="369" on="1"/>
        <pt x="759" y="369" on="1"/>
      </contour>
      <contour>
        <pt x="432" y="205" on="1"/>
        <pt x="206" y="319" on="1"/>
        <pt x="206" y="153" on="1"/>
        <pt x="536" y="153" on="1"/>
        <pt x="521" y="161" on="0"/>
        <pt x="451" y="195" on="0"/>
      </contour>
    </TTGlyph>
    <TTGlyph name="aring" xMin="52" yMin="0" xMax="640" yMax="839">
      <contour>
        <pt x="495" y="580" on="1"/>
        <pt x="555" y="580" on="0"/>
        <pt x="640" y="494" on="0"/>
        <pt x="640" y="435" on="1"/>
        <pt x="640" y="0" on="1"/>
        <pt x="197" y="0" on="1"/>
        <pt x="137" y="0" on="0"/>
        <pt x="52" y="86" on="0"/>
        <pt x="52" y="145" on="1"/>
        <pt x="52" y="367" on="1"/>
        <pt x="487" y="367" on="1"/>
        <pt x="487" y="427" on="1"/>
        <pt x="52" y="427" on="1"/>
        <pt x="52" y="580" on="1"/>
      </contour>
      <contour>
        <pt x="487" y="153" on="1"/>
        <pt x="487" y="233" on="1"/>
        <pt x="205" y="233" on="1"/>
        <pt x="205" y="153" on="1"/>
      </contour>
      <contour>
        <pt x="281" y="839" on="1"/>
        <pt x="332" y="839" on="1"/>
        <pt x="363" y="839" on="0"/>
        <pt x="408" y="794" on="0"/>
        <pt x="408" y="763" on="1"/>
        <pt x="408" y="714" on="1"/>
        <pt x="408" y="683" on="0"/>
        <pt x="363" y="638" on="0"/>
        <pt x="332" y="638" on="1"/>
        <pt x="281" y="638" on="1"/>
        <pt x="250" y="638" on="0"/>
        <pt x="204" y="683" on="0"/>
        <pt x="204" y="714" on="1"/>
        <pt x="204" y="763" on="1"/>
        <pt x="204" y="794" on="0"/>
        <pt x="250" y="839" on="0"/>
      </contour>
      <contour>
        <pt x="281" y="761" on="1"/>
        <pt x="281" y="707" on="1"/>
        <pt x="332" y="707" on="1"/>
        <pt x="332" y="761" on="1"/>
      </contour>
    </TTGlyph>
    <TTGlyph name="asciitilde" xMin="24" yMin="210" xMax="399" yMax="387">
      <contour>
        <pt x="303" y="325" on="1"/>
        <pt x="343" y="325" on="0"/>
        <pt x="399" y="361" on="1"/>
        <pt x="399" y="235" on="1"/>
        <pt x="339" y="210" on="0"/>
        <pt x="300" y="210" on="1"/>
        <pt x="264" y="210" on="0"/>
        <pt x="147" y="271" on="0"/>
        <pt x="113" y="271" on="1"/>
        <pt x="75" y="271" on="0"/>
        <pt x="24" y="232" on="1"/>
        <pt x="24" y="364" on="1"/>
        <pt x="77" y="387" on="0"/>
        <pt x="119" y="387" on="1"/>
        <pt x="157" y="387" on="0"/>
        <pt x="274" y="330" on="0"/>
      </contour>
    </TTGlyph>
    <TTGlyph name="asterisk" xMin="25" yMin="261" xMax="492" yMax="706">
      <contour>
        <pt x="445" y="627" on="1"/>
        <pt x="492" y="479" on="1"/>
        <pt x="382" y="444" on="1"/>
        <pt x="451" y="351" on="1"/>
        <pt x="328" y="261" on="1"/>
        <pt x="257" y="354" on="1"/>
        <pt x="191" y="261" on="1"/>
        <pt x="66" y="351" on="1"/>
        <pt x="135" y="444" on="1"/>
        <pt x="25" y="479" on="1"/>
        <pt x="72" y="627" on="1"/>
        <pt x="181" y="590" on="1"/>
        <pt x="181" y="706" on="1"/>
        <pt x="335" y="706" on="1"/>
        <pt x="335" y="590" on="1"/>
        <pt x="345" y="593" on="0"/>
      </contour>
    </TTGlyph>
    <TTGlyph name="at" xMin="57" yMin="0" xMax="764" yMax="720">
      <contour>
        <pt x="380" y="519" on="1"/>
        <pt x="442" y="519" on="1"/>
        <pt x="502" y="519" on="0"/>
        <pt x="567" y="454" on="0"/>
        <pt x="567" y="394" on="1"/>
        <pt x="567" y="331" on="1"/>
        <pt x="611" y="331" on="1"/>
        <pt x="611" y="567" on="1"/>
        <pt x="210" y="567" on="1"/>
        <pt x="210" y="153" on="1"/>
        <pt x="764" y="153" on="1"/>
        <pt x="764" y="0" on="1"/>
        <pt x="203" y="0" on="1"/>
        <pt x="143" y="0" on="0"/>
        <pt x="57" y="86" on="0"/>
        <pt x="57" y="145" on="1"/>
        <pt x="57" y="575" on="1"/>
        <pt x="57" y="635" on="0"/>
        <pt x="143" y="720" on="0"/>
        <pt x="203" y="720" on="1"/>
        <pt x="618" y="720" on="1"/>
        <pt x="678" y="720" on="0"/>
        <pt x="764" y="635" on="0"/>
        <pt x="764" y="575" on="1"/>
        <pt x="764" y="216" on="1"/>
        <pt x="380" y="216" on="1"/>
        <pt x="320" y="216" on="0"/>
        <pt x="254" y="281" on="0"/>
        <pt x="254" y="341" on="1"/>
        <pt x="254" y="394" on="1"/>
        <pt x="254" y="454" on="0"/>
        <pt x="320" y="519" on="0"/>
      </contour>
      <contour>
        <pt x="360" y="331" on="1"/>
        <pt x="461" y="331" on="1"/>
        <pt x="461" y="413" on="1"/>
        <pt x="360" y="413" on="1"/>
      </contour>
    </TTGlyph>
    <TTGlyph name="atilde" xMin="52" yMin="0" xMax="640" yMax="818">
      <contour>
        <pt x="495" y="580" on="1"/>
        <pt x="555" y="580" on="0"/>
        <pt x="640" y="494" on="0"/>
        <pt x="640" y="435" on="1"/>
        <pt x="640" y="0" on="1"/>
        <pt x="197" y="0" on="1"/>
        <pt x="137" y="0" on="0"/>
        <pt x="52" y="86" on="0"/>
        <pt x="52" y="145" on="1"/>
        <pt x="52" y="367" on="1"/>
        <pt x="487" y="367" on="1"/>
        <pt x="487" y="427" on="1"/>
        <pt x="52" y="427" on="1"/>
        <pt x="52" y="580" on="1"/>
      </contour>
      <contour>
        <pt x="487" y="153" on="1"/>
        <pt x="487" y="233" on="1"/>
        <pt x="205" y="233" on="1"/>
        <pt x="205" y="153" on="1"/>
      </contour>
      <contour>
        <pt x="415" y="756" on="1"/>
        <pt x="454" y="756" on="0"/>
        <pt x="511" y="793" on="1"/>
        <pt x="511" y="667" on="1"/>
        <pt x="449" y="641" on="0"/>
        <pt x="375" y="641" on="0"/>
        <pt x="260" y="703" on="0"/>
        <pt x="231" y="703" on="1"/>
        <pt x="220" y="703" on="1"/>
        <pt x="178" y="703" on="0"/>
        <pt x="136" y="667" on="1"/>
        <pt x="136" y="791" on="1"/>
        <pt x="204" y="818" on="0"/>
        <pt x="231" y="818" on="1"/>
        <pt x="268" y="818" on="0"/>
        <pt x="384" y="760" on="0"/>
      </contour>
    </TTGlyph>
    <TTGlyph name="b" xMin="54" yMin="0" xMax="642" yMax="770">
      <contour>
        <pt x="497" y="580" on="1"/>
        <pt x="557" y="580" on="0"/>
        <pt x="642" y="494" on="0"/>
        <pt x="642" y="435" on="1"/>
        <pt x="642" y="145" on="1"/>
        <pt x="642" y="86" on="0"/>
        <pt x="557" y="0" on="0"/>
        <pt x="497" y="0" on="1"/>
        <pt x="54" y="0" on="1"/>
        <pt x="54" y="770" on="1"/>
        <pt x="207" y="770" on="1"/>
        <pt x="207" y="580" on="1"/>
      </contour>
      <contour>
        <pt x="207" y="427" on="1"/>
        <pt x="207" y="153" on="1"/>
        <pt x="489" y="153" on="1"/>
        <pt x="489" y="427" on="1"/>
      </contour>
    </TTGlyph>
    <TTGlyph name="b.sc" xMin="54" yMin="0" xMax="652" yMax="581">
      <contour>
        <pt x="624" y="435" on="1"/>
        <pt x="624" y="356" on="1"/>
        <pt x="624" y="328" on="0"/>
        <pt x="619" y="311" on="1"/>
        <pt x="652" y="272" on="0"/>
        <pt x="652" y="219" on="1"/>
        <pt x="652" y="145" on="1"/>
        <pt x="652" y="86" on="0"/>
        <pt x="566" y="0" on="0"/>
        <pt x="507" y="0" on="1"/>
        <pt x="54" y="0" on="1"/>
        <pt x="54" y="581" on="1"/>
        <pt x="479" y="581" on="1"/>
        <pt x="539" y="581" on="0"/>
        <pt x="624" y="495" on="0"/>
      </contour>
      <contour>
        <pt x="207" y="221" on="1"/>
        <pt x="207" y="153" on="1"/>
        <pt x="499" y="153" on="1"/>
        <pt x="499" y="221" on="1"/>
      </contour>
      <contour>
        <pt x="207" y="438" on="1"/>
        <pt x="207" y="364" on="1"/>
        <pt x="471" y="364" on="1"/>
        <pt x="471" y="438" on="1"/>
      </contour>
    </TTGlyph>
    <TTGlyph name="backslash" xMin="5" yMin="0" xMax="521" yMax="720">
      <contour>
        <pt x="5" y="720" on="1"/>
        <pt x="60" y="720" on="1"/>
        <pt x="521" y="154" on="1"/>
        <pt x="521" y="0" on="1"/>
        <pt x="466" y="0" on="1"/>
        <pt x="5" y="566" on="1"/>
      </contour>
    </TTGlyph>
    <TTGlyph name="bar" xMin="54" yMin="-99" xMax="207" yMax="804">
      <contour>
        <pt x="54" y="-99" on="1"/>
        <pt x="54" y="804" on="1"/>
        <pt x="207" y="804" on="1"/>
        <pt x="207" y="-99" on="1"/>
      </contour>
    </TTGlyph>
    <TTGlyph name="braceleft" xMin="23" yMin="0" xMax="274" yMax="720">
      <contour>
        <pt x="216" y="331" on="1"/>
        <pt x="216" y="153" on="1"/>
        <pt x="274" y="153" on="1"/>
        <pt x="274" y="0" on="1"/>
        <pt x="209" y="0" on="1"/>
        <pt x="148" y="0" on="0"/>
        <pt x="63" y="86" on="0"/>
        <pt x="63" y="145" on="1"/>
        <pt x="63" y="280" on="1"/>
        <pt x="47" y="290" on="1"/>
        <pt x="48" y="290" on="1"/>
        <pt x="45" y="291" on="0"/>
        <pt x="26" y="302" on="0"/>
        <pt x="23" y="303" on="1"/>
        <pt x="23" y="434" on="1"/>
        <pt x="63" y="456" on="1"/>
        <pt x="63" y="575" on="1"/>
        <pt x="63" y="635" on="0"/>
        <pt x="148" y="720" on="0"/>
        <pt x="209" y="720" on="1"/>
        <pt x="274" y="720" on="1"/>
        <pt x="274" y="567" on="1"/>
        <pt x="216" y="567" on="1"/>
        <pt x="216" y="406" on="1"/>
        <pt x="171" y="368" on="1"/>
        <pt x="194" y="348" on="1"/>
        <pt x="194" y="349" on="1"/>
      </contour>
    </TTGlyph>
    <TTGlyph name="braceright" xMin="51" yMin="0" xMax="302" yMax="720">
      <contour>
        <pt x="51" y="0" on="1"/>
        <pt x="51" y="153" on="1"/>
        <pt x="109" y="153" on="1"/>
        <pt x="109" y="330" on="1"/>
        <pt x="154" y="368" on="1"/>
        <pt x="109" y="406" on="1"/>
        <pt x="109" y="567" on="1"/>
        <pt x="51" y="567" on="1"/>
        <pt x="51" y="720" on="1"/>
        <pt x="116" y="720" on="1"/>
        <pt x="176" y="720" on="0"/>
        <pt x="262" y="635" on="0"/>
        <pt x="262" y="575" on="1"/>
        <pt x="262" y="457" on="1"/>
        <pt x="302" y="433" on="1"/>
        <pt x="302" y="305" on="1"/>
        <pt x="262" y="280" on="1"/>
        <pt x="262" y="145" on="1"/>
        <pt x="262" y="86" on="0"/>
        <pt x="176" y="0" on="0"/>
        <pt x="116" y="0" on="1"/>
      </contour>
    </TTGlyph>
    <TTGlyph name="bracketleft" xMin="54" yMin="0" xMax="265" yMax="720">
      <contour>
        <pt x="54" y="0" on="1"/>
        <pt x="54" y="720" on="1"/>
        <pt x="265" y="720" on="1"/>
        <pt x="265" y="567" on="1"/>
        <pt x="207" y="567" on="1"/>
        <pt x="207" y="153" on="1"/>
        <pt x="265" y="153" on="1"/>
        <pt x="265" y="0" on="1"/>
      </contour>
    </TTGlyph>
    <TTGlyph name="bracketright" xMin="51" yMin="0" xMax="262" yMax="720">
      <contour>
        <pt x="51" y="567" on="1"/>
        <pt x="51" y="720" on="1"/>
        <pt x="262" y="720" on="1"/>
        <pt x="262" y="0" on="1"/>
        <pt x="51" y="0" on="1"/>
        <pt x="51" y="153" on="1"/>
        <pt x="108" y="153" on="1"/>
        <pt x="108" y="567" on="1"/>
      </contour>
    </TTGlyph>
    <TTGlyph name="breve" xMin="40" yMin="747" xMax="282" yMax="880">
      <contour>
        <pt x="181" y="880" on="1"/>
        <pt x="282" y="880" on="1"/>
        <pt x="282" y="845" on="1"/>
        <pt x="282" y="805" on="0"/>
        <pt x="226" y="747" on="0"/>
        <pt x="184" y="747" on="1"/>
        <pt x="138" y="747" on="1"/>
        <pt x="96" y="747" on="0"/>
        <pt x="40" y="805" on="0"/>
        <pt x="40" y="845" on="1"/>
        <pt x="40" y="880" on="1"/>
        <pt x="142" y="880" on="1"/>
        <pt x="142" y="850" on="1"/>
        <pt x="181" y="850" on="1"/>
      </contour>
    </TTGlyph>
    <TTGlyph name="bullet" xMin="108" yMin="279" xMax="262" yMax="428">
      <contour>
        <pt x="174" y="428" on="1"/>
        <pt x="195" y="428" on="1"/>
        <pt x="262" y="428" on="0"/>
        <pt x="262" y="362" on="1"/>
        <pt x="262" y="344" on="1"/>
        <pt x="262" y="279" on="0"/>
        <pt x="195" y="279" on="1"/>
        <pt x="174" y="279" on="1"/>
        <pt x="108" y="279" on="0"/>
        <pt x="108" y="344" on="1"/>
        <pt x="108" y="362" on="1"/>
        <pt x="108" y="428" on="0"/>
      </contour>
    </TTGlyph>
    <TTGlyph name="c" xMin="51" yMin="0" xMax="639" yMax="580">
      <contour>
        <pt x="638" y="427" on="1"/>
        <pt x="204" y="427" on="1"/>
        <pt x="204" y="153" on="1"/>
        <pt x="639" y="153" on="1"/>
        <pt x="639" y="0" on="1"/>
        <pt x="196" y="0" on="1"/>
        <pt x="137" y="0" on="0"/>
        <pt x="51" y="86" on="0"/>
        <pt x="51" y="145" on="1"/>
        <pt x="51" y="435" on="1"/>
        <pt x="51" y="494" on="0"/>
        <pt x="137" y="580" on="0"/>
        <pt x="196" y="580" on="1"/>
        <pt x="638" y="580" on="1"/>
      </contour>
    </TTGlyph>
    <TTGlyph name="c.sc" xMin="51" yMin="0" xMax="638" yMax="581">
      <contour>
        <pt x="638" y="428" on="1"/>
        <pt x="204" y="428" on="1"/>
        <pt x="204" y="153" on="1"/>
        <pt x="638" y="153" on="1"/>
        <pt x="638" y="0" on="1"/>
        <pt x="196" y="0" on="1"/>
        <pt x="136" y="0" on="0"/>
        <pt x="51" y="86" on="0"/>
        <pt x="51" y="145" on="1"/>
        <pt x="51" y="435" on="1"/>
        <pt x="51" y="495" on="0"/>
        <pt x="136" y="581" on="0"/>
        <pt x="196" y="581" on="1"/>
        <pt x="638" y="581" on="1"/>
      </contour>
    </TTGlyph>
    <TTGlyph name="caron" xMin="27" yMin="746" xMax="347" yMax="930">
      <contour>
        <pt x="27" y="930" on="1"/>
        <pt x="158" y="930" on="1"/>
        <pt x="185" y="886" on="1"/>
        <pt x="212" y="930" on="1"/>
        <pt x="347" y="930" on="1"/>
        <pt x="237" y="746" on="1"/>
        <pt x="137" y="746" on="1"/>
      </contour>
    </TTGlyph>
    <TTGlyph name="ccedilla" xMin="51" yMin="-128" xMax="639" yMax="580">
      <contour>
        <pt x="204" y="153" on="1"/>
        <pt x="639" y="153" on="1"/>
        <pt x="639" y="0" on="1"/>
        <pt x="410" y="0" on="1"/>
        <pt x="405" y="-24" on="0"/>
        <pt x="376" y="-108" on="0"/>
        <pt x="371" y="-128" on="1"/>
        <pt x="274" y="-128" on="1"/>
        <pt x="279" y="-104" on="0"/>
        <pt x="308" y="-20" on="0"/>
        <pt x="313" y="0" on="1"/>
        <pt x="196" y="0" on="1"/>
        <pt x="137" y="0" on="0"/>
        <pt x="51" y="86" on="0"/>
        <pt x="51" y="145" on="1"/>
        <pt x="51" y="435" on="1"/>
        <pt x="51" y="494" on="0"/>
        <pt x="137" y="580" on="0"/>
        <pt x="196" y="580" on="1"/>
        <pt x="638" y="580" on="1"/>
        <pt x="638" y="427" on="1"/>
        <pt x="204" y="427" on="1"/>
      </contour>
    </TTGlyph>
    <TTGlyph name="cedilla" xMin="33" yMin="-146" xMax="241" yMax="56">
      <contour>
        <pt x="33" y="-146" on="1"/>
        <pt x="84" y="56" on="1"/>
        <pt x="241" y="56" on="1"/>
        <pt x="190" y="-146" on="1"/>
      </contour>
    </TTGlyph>
    <TTGlyph name="cent" xMin="33" yMin="-99" xMax="621" yMax="705">
      <contour>
        <pt x="621" y="435" on="1"/>
        <pt x="445" y="435" on="1"/>
        <pt x="445" y="153" on="1"/>
        <pt x="621" y="153" on="1"/>
        <pt x="621" y="0" on="1"/>
        <pt x="445" y="0" on="1"/>
        <pt x="445" y="-99" on="1"/>
        <pt x="291" y="-99" on="1"/>
        <pt x="291" y="0" on="1"/>
        <pt x="179" y="0" on="1"/>
        <pt x="119" y="0" on="0"/>
        <pt x="33" y="86" on="0"/>
        <pt x="33" y="145" on="1"/>
        <pt x="33" y="444" on="1"/>
        <pt x="33" y="504" on="0"/>
        <pt x="119" y="590" on="0"/>
        <pt x="179" y="590" on="1"/>
        <pt x="291" y="590" on="1"/>
        <pt x="291" y="705" on="1"/>
        <pt x="445" y="705" on="1"/>
        <pt x="445" y="590" on="1"/>
        <pt x="621" y="590" on="1"/>
      </contour>
      <contour>
        <pt x="291" y="153" on="1"/>
        <pt x="291" y="435" on="1"/>
        <pt x="186" y="435" on="1"/>
        <pt x="186" y="153" on="1"/>
      </contour>
    </TTGlyph>
    <TTGlyph name="circumflex" xMin="28" yMin="746" xMax="348" yMax="930">
      <contour>
        <pt x="161" y="746" on="1"/>
        <pt x="28" y="746" on="1"/>
        <pt x="138" y="930" on="1"/>
        <pt x="238" y="930" on="1"/>
        <pt x="348" y="746" on="1"/>
        <pt x="214" y="746" on="1"/>
        <pt x="186" y="790" on="1"/>
      </contour>
    </TTGlyph>
    <TTGlyph name="colon" xMin="54" yMin="0" xMax="207" yMax="580">
      <contour>
        <pt x="54" y="153" on="1"/>
        <pt x="207" y="153" on="1"/>
        <pt x="207" y="0" on="1"/>
        <pt x="54" y="0" on="1"/>
      </contour>
      <contour>
        <pt x="207" y="580" on="1"/>
        <pt x="207" y="426" on="1"/>
        <pt x="54" y="426" on="1"/>
        <pt x="54" y="580" on="1"/>
      </contour>
    </TTGlyph>
    <TTGlyph name="comma" xMin="54" yMin="-133" xMax="207" yMax="142">
      <contour>
        <pt x="54" y="142" on="1"/>
        <pt x="207" y="142" on="1"/>
        <pt x="207" y="16" on="1"/>
        <pt x="207" y="-38" on="0"/>
        <pt x="120" y="-122" on="0"/>
        <pt x="54" y="-133" on="1"/>
      </contour>
    </TTGlyph>
    <TTGlyph name="d" xMin="23" yMin="0" xMax="612" yMax="770">
      <contour>
        <pt x="459" y="770" on="1"/>
        <pt x="612" y="770" on="1"/>
        <pt x="612" y="0" on="1"/>
        <pt x="168" y="0" on="1"/>
        <pt x="108" y="0" on="0"/>
        <pt x="23" y="86" on="0"/>
        <pt x="23" y="145" on="1"/>
        <pt x="23" y="435" on="1"/>
        <pt x="23" y="494" on="0"/>
        <pt x="108" y="580" on="0"/>
        <pt x="168" y="580" on="1"/>
        <pt x="459" y="580" on="1"/>
      </contour>
      <contour>
        <pt x="177" y="427" on="1"/>
        <pt x="177" y="153" on="1"/>
        <pt x="459" y="153" on="1"/>
        <pt x="459" y="427" on="1"/>
      </contour>
    </TTGlyph>
    <TTGlyph name="d.sc" xMin="54" yMin="0" xMax="652" yMax="581">
      <contour>
        <pt x="54" y="581" on="1"/>
        <pt x="507" y="581" on="1"/>
        <pt x="566" y="581" on="0"/>
        <pt x="652" y="495" on="0"/>
        <pt x="652" y="435" on="1"/>
        <pt x="652" y="145" on="1"/>
        <pt x="652" y="86" on="0"/>
        <pt x="566" y="0" on="0"/>
        <pt x="507" y="0" on="1"/>
        <pt x="54" y="0" on="1"/>
      </contour>
      <contour>
        <pt x="207" y="428" on="1"/>
        <pt x="207" y="153" on="1"/>
        <pt x="499" y="153" on="1"/>
        <pt x="499" y="428" on="1"/>
      </contour>
    </TTGlyph>
    <TTGlyph name="degree" xMin="45" yMin="343" xMax="417" yMax="706">
      <contour>
        <pt x="191" y="706" on="1"/>
        <pt x="272" y="706" on="1"/>
        <pt x="331" y="706" on="0"/>
        <pt x="417" y="621" on="0"/>
        <pt x="417" y="561" on="1"/>
        <pt x="417" y="489" on="1"/>
        <pt x="417" y="429" on="0"/>
        <pt x="331" y="343" on="0"/>
        <pt x="272" y="343" on="1"/>
        <pt x="191" y="343" on="1"/>
        <pt x="131" y="343" on="0"/>
        <pt x="45" y="429" on="0"/>
        <pt x="45" y="489" on="1"/>
        <pt x="45" y="561" on="1"/>
        <pt x="45" y="621" on="0"/>
        <pt x="131" y="706" on="0"/>
      </contour>
      <contour>
        <pt x="180" y="571" on="1"/>
        <pt x="180" y="479" on="1"/>
        <pt x="282" y="479" on="1"/>
        <pt x="282" y="571" on="1"/>
      </contour>
    </TTGlyph>
    <TTGlyph name="dieresis" xMin="54" yMin="747" xMax="421" yMax="901">
      <contour>
        <pt x="421" y="901" on="1"/>
        <pt x="421" y="747" on="1"/>
        <pt x="267" y="747" on="1"/>
        <pt x="267" y="901" on="1"/>
      </contour>
      <contour>
        <pt x="207" y="901" on="1"/>
        <pt x="207" y="747" on="1"/>
        <pt x="54" y="747" on="1"/>
        <pt x="54" y="901" on="1"/>
      </contour>
    </TTGlyph>
    <TTGlyph name="divide" xMin="7" yMin="0" xMax="497" yMax="616">
      <contour>
        <pt x="497" y="393" on="1"/>
        <pt x="497" y="240" on="1"/>
        <pt x="7" y="240" on="1"/>
        <pt x="7" y="393" on="1"/>
      </contour>
      <contour>
        <pt x="183" y="153" on="1"/>
        <pt x="336" y="153" on="1"/>
        <pt x="336" y="0" on="1"/>
        <pt x="183" y="0" on="1"/>
      </contour>
      <contour>
        <pt x="336" y="616" on="1"/>
        <pt x="336" y="462" on="1"/>
        <pt x="183" y="462" on="1"/>
        <pt x="183" y="616" on="1"/>
      </contour>
    </TTGlyph>
    <TTGlyph name="dollar" xMin="34" yMin="-98" xMax="740" yMax="818">
      <contour>
        <pt x="740" y="575" on="1"/>
        <pt x="740" y="509" on="1"/>
        <pt x="587" y="509" on="1"/>
        <pt x="587" y="567" on="1"/>
        <pt x="464" y="567" on="1"/>
        <pt x="464" y="433" on="1"/>
        <pt x="595" y="433" on="1"/>
        <pt x="655" y="433" on="0"/>
        <pt x="740" y="347" on="0"/>
        <pt x="740" y="287" on="1"/>
        <pt x="740" y="145" on="1"/>
        <pt x="740" y="86" on="0"/>
        <pt x="655" y="0" on="0"/>
        <pt x="595" y="0" on="1"/>
        <pt x="464" y="0" on="1"/>
        <pt x="464" y="-98" on="1"/>
        <pt x="310" y="-98" on="1"/>
        <pt x="310" y="0" on="1"/>
        <pt x="179" y="0" on="1"/>
        <pt x="119" y="0" on="0"/>
        <pt x="34" y="86" on="0"/>
        <pt x="34" y="145" on="1"/>
        <pt x="34" y="211" on="1"/>
        <pt x="187" y="211" on="1"/>
        <pt x="187" y="153" on="1"/>
        <pt x="310" y="153" on="1"/>
        <pt x="310" y="280" on="1"/>
        <pt x="179" y="280" on="1"/>
        <pt x="119" y="280" on="0"/>
        <pt x="34" y="365" on="0"/>
        <pt x="34" y="425" on="1"/>
        <pt x="34" y="575" on="1"/>
        <pt x="34" y="635" on="0"/>
        <pt x="119" y="720" on="0"/>
        <pt x="179" y="720" on="1"/>
        <pt x="310" y="720" on="1"/>
        <pt x="310" y="818" on="1"/>
        <pt x="464" y="818" on="1"/>
        <pt x="464" y="720" on="1"/>
        <pt x="595" y="720" on="1"/>
        <pt x="655" y="720" on="0"/>
        <pt x="740" y="635" on="0"/>
      </contour>
      <contour>
        <pt x="310" y="433" on="1"/>
        <pt x="310" y="567" on="1"/>
        <pt x="187" y="567" on="1"/>
        <pt x="187" y="433" on="1"/>
      </contour>
      <contour>
        <pt x="464" y="280" on="1"/>
        <pt x="464" y="153" on="1"/>
        <pt x="587" y="153" on="1"/>
        <pt x="587" y="280" on="1"/>
      </contour>
    </TTGlyph>
    <TTGlyph name="dotaccent" xMin="45" yMin="748" xMax="231" yMax="931">
      <contour>
        <pt x="122" y="931" on="1"/>
        <pt x="154" y="931" on="1"/>
        <pt x="185" y="931" on="0"/>
        <pt x="231" y="886" on="0"/>
        <pt x="231" y="855" on="1"/>
        <pt x="231" y="824" on="1"/>
        <pt x="231" y="793" on="0"/>
        <pt x="185" y="748" on="0"/>
        <pt x="154" y="748" on="1"/>
        <pt x="122" y="748" on="1"/>
        <pt x="91" y="748" on="0"/>
        <pt x="45" y="793" on="0"/>
        <pt x="45" y="824" on="1"/>
        <pt x="45" y="855" on="1"/>
        <pt x="45" y="886" on="0"/>
        <pt x="91" y="931" on="0"/>
      </contour>
    </TTGlyph>
    <TTGlyph name="dotlessi" xMin="52" yMin="0" xMax="205" yMax="580">
      <contour>
        <pt x="52" y="0" on="1"/>
        <pt x="52" y="580" on="1"/>
        <pt x="205" y="580" on="1"/>
        <pt x="205" y="0" on="1"/>
      </contour>
    </TTGlyph>
    <TTGlyph name="e" xMin="51" yMin="0" xMax="639" yMax="580">
      <contour>
        <pt x="494" y="580" on="1"/>
        <pt x="554" y="580" on="0"/>
        <pt x="639" y="494" on="0"/>
        <pt x="639" y="435" on="1"/>
        <pt x="639" y="213" on="1"/>
        <pt x="204" y="213" on="1"/>
        <pt x="204" y="153" on="1"/>
        <pt x="639" y="153" on="1"/>
        <pt x="639" y="0" on="1"/>
        <pt x="196" y="0" on="1"/>
        <pt x="137" y="0" on="0"/>
        <pt x="51" y="86" on="0"/>
        <pt x="51" y="145" on="1"/>
        <pt x="51" y="435" on="1"/>
        <pt x="51" y="494" on="0"/>
        <pt x="137" y="580" on="0"/>
        <pt x="196" y="580" on="1"/>
      </contour>
      <contour>
        <pt x="204" y="347" on="1"/>
        <pt x="486" y="347" on="1"/>
        <pt x="486" y="427" on="1"/>
        <pt x="204" y="427" on="1"/>
      </contour>
    </TTGlyph>
    <TTGlyph name="e.sc" xMin="54" yMin="0" xMax="589" yMax="581">
      <contour>
        <pt x="589" y="581" on="1"/>
        <pt x="589" y="428" on="1"/>
        <pt x="207" y="428" on="1"/>
        <pt x="207" y="367" on="1"/>
        <pt x="492" y="367" on="1"/>
        <pt x="492" y="213" on="1"/>
        <pt x="207" y="213" on="1"/>
        <pt x="207" y="153" on="1"/>
        <pt x="589" y="153" on="1"/>
        <pt x="589" y="0" on="1"/>
        <pt x="54" y="0" on="1"/>
        <pt x="54" y="581" on="1"/>
      </contour>
    </TTGlyph>
    <TTGlyph name="eacute" xMin="51" yMin="0" xMax="639" yMax="842">
      <contour>
        <pt x="494" y="580" on="1"/>
        <pt x="554" y="580" on="0"/>
        <pt x="639" y="494" on="0"/>
        <pt x="639" y="435" on="1"/>
        <pt x="639" y="213" on="1"/>
        <pt x="204" y="213" on="1"/>
        <pt x="204" y="153" on="1"/>
        <pt x="639" y="153" on="1"/>
        <pt x="639" y="0" on="1"/>
        <pt x="196" y="0" on="1"/>
        <pt x="137" y="0" on="0"/>
        <pt x="51" y="86" on="0"/>
        <pt x="51" y="145" on="1"/>
        <pt x="51" y="435" on="1"/>
        <pt x="51" y="494" on="0"/>
        <pt x="137" y="580" on="0"/>
        <pt x="196" y="580" on="1"/>
      </contour>
      <contour>
        <pt x="204" y="347" on="1"/>
        <pt x="486" y="347" on="1"/>
        <pt x="486" y="427" on="1"/>
        <pt x="204" y="427" on="1"/>
      </contour>
      <contour>
        <pt x="265" y="639" on="1"/>
        <pt x="316" y="842" on="1"/>
        <pt x="473" y="842" on="1"/>
        <pt x="422" y="639" on="1"/>
      </contour>
    </TTGlyph>
    <TTGlyph name="ecircumflex" xMin="51" yMin="0" xMax="639" yMax="822">
      <contour>
        <pt x="494" y="580" on="1"/>
        <pt x="554" y="580" on="0"/>
        <pt x="639" y="494" on="0"/>
        <pt x="639" y="435" on="1"/>
        <pt x="639" y="213" on="1"/>
        <pt x="204" y="213" on="1"/>
        <pt x="204" y="153" on="1"/>
        <pt x="639" y="153" on="1"/>
        <pt x="639" y="0" on="1"/>
        <pt x="196" y="0" on="1"/>
        <pt x="137" y="0" on="0"/>
        <pt x="51" y="86" on="0"/>
        <pt x="51" y="145" on="1"/>
        <pt x="51" y="435" on="1"/>
        <pt x="51" y="494" on="0"/>
        <pt x="137" y="580" on="0"/>
        <pt x="196" y="580" on="1"/>
      </contour>
      <contour>
        <pt x="204" y="347" on="1"/>
        <pt x="486" y="347" on="1"/>
        <pt x="486" y="427" on="1"/>
        <pt x="204" y="427" on="1"/>
      </contour>
      <contour>
        <pt x="330" y="638" on="1"/>
        <pt x="197" y="638" on="1"/>
        <pt x="307" y="822" on="1"/>
        <pt x="407" y="822" on="1"/>
        <pt x="517" y="638" on="1"/>
        <pt x="383" y="638" on="1"/>
        <pt x="355" y="682" on="1"/>
      </contour>
    </TTGlyph>
    <TTGlyph name="edieresis" xMin="51" yMin="0" xMax="639" yMax="792">
      <contour>
        <pt x="494" y="580" on="1"/>
        <pt x="554" y="580" on="0"/>
        <pt x="639" y="494" on="0"/>
        <pt x="639" y="435" on="1"/>
        <pt x="639" y="213" on="1"/>
        <pt x="204" y="213" on="1"/>
        <pt x="204" y="153" on="1"/>
        <pt x="639" y="153" on="1"/>
        <pt x="639" y="0" on="1"/>
        <pt x="196" y="0" on="1"/>
        <pt x="137" y="0" on="0"/>
        <pt x="51" y="86" on="0"/>
        <pt x="51" y="145" on="1"/>
        <pt x="51" y="435" on="1"/>
        <pt x="51" y="494" on="0"/>
        <pt x="137" y="580" on="0"/>
        <pt x="196" y="580" on="1"/>
      </contour>
      <contour>
        <pt x="204" y="347" on="1"/>
        <pt x="486" y="347" on="1"/>
        <pt x="486" y="427" on="1"/>
        <pt x="204" y="427" on="1"/>
      </contour>
      <contour>
        <pt x="547" y="792" on="1"/>
        <pt x="547" y="638" on="1"/>
        <pt x="393" y="638" on="1"/>
        <pt x="393" y="792" on="1"/>
      </contour>
      <contour>
        <pt x="333" y="792" on="1"/>
        <pt x="333" y="638" on="1"/>
        <pt x="180" y="638" on="1"/>
        <pt x="180" y="792" on="1"/>
      </contour>
    </TTGlyph>
    <TTGlyph name="egrave" xMin="51" yMin="0" xMax="639" yMax="841">
      <contour>
        <pt x="494" y="580" on="1"/>
        <pt x="554" y="580" on="0"/>
        <pt x="639" y="494" on="0"/>
        <pt x="639" y="435" on="1"/>
        <pt x="639" y="213" on="1"/>
        <pt x="204" y="213" on="1"/>
        <pt x="204" y="153" on="1"/>
        <pt x="639" y="153" on="1"/>
        <pt x="639" y="0" on="1"/>
        <pt x="196" y="0" on="1"/>
        <pt x="137" y="0" on="0"/>
        <pt x="51" y="86" on="0"/>
        <pt x="51" y="145" on="1"/>
        <pt x="51" y="435" on="1"/>
        <pt x="51" y="494" on="0"/>
        <pt x="137" y="580" on="0"/>
        <pt x="196" y="580" on="1"/>
      </contour>
      <contour>
        <pt x="204" y="347" on="1"/>
        <pt x="486" y="347" on="1"/>
        <pt x="486" y="427" on="1"/>
        <pt x="204" y="427" on="1"/>
      </contour>
      <contour>
        <pt x="402" y="841" on="1"/>
        <pt x="453" y="638" on="1"/>
        <pt x="296" y="638" on="1"/>
        <pt x="245" y="841" on="1"/>
      </contour>
    </TTGlyph>
    <TTGlyph name="eight" xMin="57" yMin="0" xMax="764" yMax="720">
      <contour>
        <pt x="764" y="601" on="1"/>
        <pt x="764" y="434" on="1"/>
        <pt x="764" y="397" on="0"/>
        <pt x="747" y="365" on="1"/>
        <pt x="764" y="334" on="0"/>
        <pt x="764" y="297" on="1"/>
        <pt x="764" y="145" on="1"/>
        <pt x="764" y="86" on="0"/>
        <pt x="678" y="0" on="0"/>
        <pt x="618" y="0" on="1"/>
        <pt x="203" y="0" on="1"/>
        <pt x="143" y="0" on="0"/>
        <pt x="57" y="86" on="0"/>
        <pt x="57" y="145" on="1"/>
        <pt x="57" y="297" on="1"/>
        <pt x="57" y="329" on="0"/>
        <pt x="74" y="365" on="1"/>
        <pt x="57" y="401" on="0"/>
        <pt x="57" y="434" on="1"/>
        <pt x="57" y="575" on="1"/>
        <pt x="57" y="635" on="0"/>
        <pt x="143" y="720" on="0"/>
        <pt x="203" y="720" on="1"/>
        <pt x="618" y="720" on="1"/>
        <pt x="672" y="720" on="0"/>
        <pt x="755" y="652" on="0"/>
      </contour>
      <contour>
        <pt x="210" y="288" on="1"/>
        <pt x="210" y="153" on="1"/>
        <pt x="611" y="153" on="1"/>
        <pt x="611" y="288" on="1"/>
      </contour>
      <contour>
        <pt x="210" y="566" on="1"/>
        <pt x="210" y="432" on="1"/>
        <pt x="611" y="432" on="1"/>
        <pt x="611" y="566" on="1"/>
      </contour>
    </TTGlyph>
    <TTGlyph name="ellipsis" xMin="54" yMin="0" xMax="591" yMax="153">
      <contour>
        <pt x="400" y="153" on="1"/>
        <pt x="400" y="0" on="1"/>
        <pt x="246" y="0" on="1"/>
        <pt x="246" y="153" on="1"/>
      </contour>
      <contour>
        <pt x="591" y="153" on="1"/>
        <pt x="591" y="0" on="1"/>
        <pt x="438" y="0" on="1"/>
        <pt x="438" y="153" on="1"/>
      </contour>
      <contour>
        <pt x="208" y="153" on="1"/>
        <pt x="208" y="0" on="1"/>
        <pt x="54" y="0" on="1"/>
        <pt x="54" y="153" on="1"/>
      </contour>
    </TTGlyph>
    <TTGlyph name="emdash" xMin="54" yMin="218" xMax="756" yMax="371">
      <contour>
        <pt x="756" y="371" on="1"/>
        <pt x="756" y="218" on="1"/>
        <pt x="54" y="218" on="1"/>
        <pt x="54" y="371" on="1"/>
      </contour>
    </TTGlyph>
    <TTGlyph name="endash" xMin="54" yMin="218" xMax="652" yMax="371">
      <contour>
        <pt x="652" y="371" on="1"/>
        <pt x="652" y="218" on="1"/>
        <pt x="54" y="218" on="1"/>
        <pt x="54" y="371" on="1"/>
      </contour>
    </TTGlyph>
    <TTGlyph name="equal" xMin="59" yMin="129" xMax="585" yMax="484">
      <contour>
        <pt x="585" y="282" on="1"/>
        <pt x="585" y="129" on="1"/>
        <pt x="59" y="129" on="1"/>
        <pt x="59" y="282" on="1"/>
      </contour>
      <contour>
        <pt x="585" y="484" on="1"/>
        <pt x="585" y="331" on="1"/>
        <pt x="59" y="331" on="1"/>
        <pt x="59" y="484" on="1"/>
      </contour>
    </TTGlyph>
    <TTGlyph name="exclam" xMin="58" yMin="0" xMax="211" yMax="720">
      <contour>
        <pt x="211" y="0" on="1"/>
        <pt x="58" y="0" on="1"/>
        <pt x="58" y="153" on="1"/>
        <pt x="211" y="153" on="1"/>
      </contour>
      <contour>
        <pt x="58" y="201" on="1"/>
        <pt x="58" y="720" on="1"/>
        <pt x="211" y="720" on="1"/>
        <pt x="211" y="201" on="1"/>
      </contour>
    </TTGlyph>
    <TTGlyph name="exclamdown" xMin="53" yMin="0" xMax="206" yMax="706">
      <contour>
        <pt x="206" y="706" on="1"/>
        <pt x="206" y="553" on="1"/>
        <pt x="53" y="553" on="1"/>
        <pt x="53" y="706" on="1"/>
      </contour>
      <contour>
        <pt x="206" y="0" on="1"/>
        <pt x="53" y="0" on="1"/>
        <pt x="53" y="526" on="1"/>
        <pt x="206" y="526" on="1"/>
      </contour>
    </TTGlyph>
    <TTGlyph name="f" xMin="53" yMin="0" xMax="421" yMax="770">
      <contour>
        <pt x="421" y="616" on="1"/>
        <pt x="206" y="616" on="1"/>
        <pt x="206" y="580" on="1"/>
        <pt x="421" y="580" on="1"/>
        <pt x="421" y="427" on="1"/>
        <pt x="206" y="427" on="1"/>
        <pt x="206" y="0" on="1"/>
        <pt x="53" y="0" on="1"/>
        <pt x="53" y="625" on="1"/>
        <pt x="53" y="684" on="0"/>
        <pt x="138" y="770" on="0"/>
        <pt x="199" y="770" on="1"/>
        <pt x="421" y="770" on="1"/>
      </contour>
    </TTGlyph>
    <TTGlyph name="f.sc" xMin="54" yMin="0" xMax="589" yMax="581">
      <contour>
        <pt x="54" y="581" on="1"/>
        <pt x="589" y="581" on="1"/>
        <pt x="589" y="428" on="1"/>
        <pt x="207" y="428" on="1"/>
        <pt x="207" y="367" on="1"/>
        <pt x="492" y="367" on="1"/>
        <pt x="492" y="213" on="1"/>
        <pt x="207" y="213" on="1"/>
        <pt x="207" y="0" on="1"/>
        <pt x="54" y="0" on="1"/>
      </contour>
    </TTGlyph>
    <TTGlyph name="five" xMin="57" yMin="0" xMax="764" yMax="720">
      <contour>
        <pt x="764" y="567" on="1"/>
        <pt x="210" y="567" on="1"/>
        <pt x="210" y="442" on="1"/>
        <pt x="618" y="442" on="1"/>
        <pt x="678" y="442" on="0"/>
        <pt x="764" y="357" on="0"/>
        <pt x="764" y="297" on="1"/>
        <pt x="764" y="145" on="1"/>
        <pt x="764" y="86" on="0"/>
        <pt x="678" y="0" on="0"/>
        <pt x="618" y="0" on="1"/>
        <pt x="203" y="0" on="1"/>
        <pt x="143" y="0" on="0"/>
        <pt x="57" y="86" on="0"/>
        <pt x="57" y="145" on="1"/>
        <pt x="57" y="201" on="1"/>
        <pt x="210" y="201" on="1"/>
        <pt x="210" y="153" on="1"/>
        <pt x="611" y="153" on="1"/>
        <pt x="611" y="288" on="1"/>
        <pt x="57" y="288" on="1"/>
        <pt x="57" y="720" on="1"/>
        <pt x="764" y="720" on="1"/>
      </contour>
    </TTGlyph>
    <TTGlyph name="four" xMin="6" yMin="0" xMax="686" yMax="720">
      <contour>
        <pt x="590" y="333" on="1"/>
        <pt x="686" y="333" on="1"/>
        <pt x="686" y="179" on="1"/>
        <pt x="590" y="179" on="1"/>
        <pt x="590" y="0" on="1"/>
        <pt x="437" y="0" on="1"/>
        <pt x="437" y="179" on="1"/>
        <pt x="6" y="179" on="1"/>
        <pt x="6" y="316" on="1"/>
        <pt x="453" y="720" on="1"/>
        <pt x="590" y="720" on="1"/>
      </contour>
      <contour>
        <pt x="437" y="481" on="1"/>
        <pt x="255" y="333" on="1"/>
        <pt x="437" y="333" on="1"/>
      </contour>
    </TTGlyph>
    <TTGlyph name="four.alt" xMin="9" yMin="0" xMax="689" yMax="718">
      <contour>
        <pt x="593" y="331" on="1"/>
        <pt x="689" y="331" on="1"/>
        <pt x="689" y="177" on="1"/>
        <pt x="593" y="177" on="1"/>
        <pt x="593" y="0" on="1"/>
        <pt x="440" y="0" on="1"/>
        <pt x="440" y="177" on="1"/>
        <pt x="9" y="177" on="1"/>
        <pt x="9" y="312" on="1"/>
        <pt x="355" y="718" on="1"/>
        <pt x="493" y="718" on="1"/>
        <pt x="493" y="635" on="1"/>
        <pt x="217" y="331" on="1"/>
        <pt x="440" y="331" on="1"/>
        <pt x="440" y="466" on="1"/>
        <pt x="593" y="466" on="1"/>
      </contour>
    </TTGlyph>
    <TTGlyph name="g" xMin="41" yMin="-229" xMax="630" yMax="580">
      <contour>
        <pt x="630" y="-84" on="1"/>
        <pt x="630" y="-144" on="0"/>
        <pt x="545" y="-229" on="0"/>
        <pt x="485" y="-229" on="1"/>
        <pt x="133" y="-229" on="1"/>
        <pt x="133" y="-75" on="1"/>
        <pt x="477" y="-75" on="1"/>
        <pt x="477" y="0" on="1"/>
        <pt x="187" y="0" on="1"/>
        <pt x="127" y="0" on="0"/>
        <pt x="41" y="86" on="0"/>
        <pt x="41" y="145" on="1"/>
        <pt x="41" y="435" on="1"/>
        <pt x="41" y="494" on="0"/>
        <pt x="127" y="580" on="0"/>
        <pt x="187" y="580" on="1"/>
        <pt x="485" y="580" on="1"/>
        <pt x="545" y="580" on="0"/>
        <pt x="630" y="494" on="0"/>
        <pt x="630" y="435" on="1"/>
      </contour>
      <contour>
        <pt x="194" y="427" on="1"/>
        <pt x="194" y="153" on="1"/>
        <pt x="477" y="153" on="1"/>
        <pt x="477" y="427" on="1"/>
      </contour>
    </TTGlyph>
    <TTGlyph name="g.sc" xMin="51" yMin="0" xMax="639" yMax="581">
      <contour>
        <pt x="639" y="435" on="1"/>
        <pt x="639" y="402" on="1"/>
        <pt x="486" y="402" on="1"/>
        <pt x="486" y="428" on="1"/>
        <pt x="204" y="428" on="1"/>
        <pt x="204" y="153" on="1"/>
        <pt x="486" y="153" on="1"/>
        <pt x="486" y="196" on="1"/>
        <pt x="342" y="196" on="1"/>
        <pt x="342" y="339" on="1"/>
        <pt x="639" y="339" on="1"/>
        <pt x="639" y="145" on="1"/>
        <pt x="639" y="86" on="0"/>
        <pt x="554" y="0" on="0"/>
        <pt x="494" y="0" on="1"/>
        <pt x="196" y="0" on="1"/>
        <pt x="137" y="0" on="0"/>
        <pt x="51" y="86" on="0"/>
        <pt x="51" y="145" on="1"/>
        <pt x="51" y="435" on="1"/>
        <pt x="51" y="495" on="0"/>
        <pt x="137" y="581" on="0"/>
        <pt x="196" y="581" on="1"/>
        <pt x="494" y="581" on="1"/>
        <pt x="554" y="581" on="0"/>
        <pt x="639" y="495" on="0"/>
      </contour>
    </TTGlyph>
    <TTGlyph name="germandbls" xMin="57" yMin="0" xMax="764" yMax="706">
      <contour>
        <pt x="764" y="587" on="1"/>
        <pt x="764" y="431" on="1"/>
        <pt x="764" y="394" on="0"/>
        <pt x="747" y="362" on="1"/>
        <pt x="764" y="331" on="0"/>
        <pt x="764" y="294" on="1"/>
        <pt x="764" y="145" on="1"/>
        <pt x="764" y="86" on="0"/>
        <pt x="678" y="0" on="0"/>
        <pt x="618" y="0" on="1"/>
        <pt x="273" y="0" on="1"/>
        <pt x="273" y="153" on="1"/>
        <pt x="611" y="153" on="1"/>
        <pt x="611" y="285" on="1"/>
        <pt x="273" y="285" on="1"/>
        <pt x="273" y="429" on="1"/>
        <pt x="611" y="429" on="1"/>
        <pt x="611" y="552" on="1"/>
        <pt x="210" y="552" on="1"/>
        <pt x="210" y="0" on="1"/>
        <pt x="57" y="0" on="1"/>
        <pt x="57" y="561" on="1"/>
        <pt x="57" y="621" on="0"/>
        <pt x="143" y="706" on="0"/>
        <pt x="203" y="706" on="1"/>
        <pt x="618" y="706" on="1"/>
        <pt x="672" y="706" on="0"/>
        <pt x="755" y="638" on="0"/>
      </contour>
    </TTGlyph>
    <TTGlyph name="grave" xMin="32" yMin="747" xMax="240" yMax="950">
      <contour>
        <pt x="189" y="950" on="1"/>
        <pt x="240" y="747" on="1"/>
        <pt x="83" y="747" on="1"/>
        <pt x="32" y="950" on="1"/>
      </contour>
    </TTGlyph>
    <TTGlyph name="greater" xMin="59" yMin="-19" xMax="487" yMax="605">
      <contour>
        <pt x="59" y="-19" on="1"/>
        <pt x="59" y="159" on="1"/>
        <pt x="292" y="294" on="1"/>
        <pt x="164" y="366" on="1"/>
        <pt x="149" y="374" on="0"/>
        <pt x="76" y="419" on="0"/>
        <pt x="59" y="428" on="1"/>
        <pt x="59" y="605" on="1"/>
        <pt x="487" y="358" on="1"/>
        <pt x="487" y="229" on="1"/>
      </contour>
    </TTGlyph>
    <TTGlyph name="h" xMin="54" yMin="0" xMax="642" yMax="770">
      <contour>
        <pt x="497" y="580" on="1"/>
        <pt x="556" y="580" on="0"/>
        <pt x="642" y="494" on="0"/>
        <pt x="642" y="435" on="1"/>
        <pt x="642" y="0" on="1"/>
        <pt x="489" y="0" on="1"/>
        <pt x="489" y="427" on="1"/>
        <pt x="207" y="427" on="1"/>
        <pt x="207" y="0" on="1"/>
        <pt x="54" y="0" on="1"/>
        <pt x="54" y="770" on="1"/>
        <pt x="207" y="770" on="1"/>
        <pt x="207" y="580" on="1"/>
      </contour>
    </TTGlyph>
    <TTGlyph name="h.sc" xMin="54" yMin="0" xMax="659" yMax="580">
      <contour>
        <pt x="505" y="580" on="1"/>
        <pt x="659" y="580" on="1"/>
        <pt x="659" y="0" on="1"/>
        <pt x="505" y="0" on="1"/>
        <pt x="505" y="213" on="1"/>
        <pt x="207" y="213" on="1"/>
        <pt x="207" y="0" on="1"/>
        <pt x="54" y="0" on="1"/>
        <pt x="54" y="580" on="1"/>
        <pt x="207" y="580" on="1"/>
        <pt x="207" y="367" on="1"/>
        <pt x="505" y="367" on="1"/>
      </contour>
    </TTGlyph>
    <TTGlyph name="hyphen" xMin="59" yMin="219" xMax="476" yMax="372">
      <contour>
        <pt x="476" y="372" on="1"/>
        <pt x="476" y="219" on="1"/>
        <pt x="59" y="219" on="1"/>
        <pt x="59" y="372" on="1"/>
      </contour>
    </TTGlyph>
    <TTGlyph name="i" xMin="52" yMin="0" xMax="205" yMax="770">
      <contour>
        <pt x="52" y="0" on="1"/>
        <pt x="52" y="580" on="1"/>
        <pt x="205" y="580" on="1"/>
        <pt x="205" y="0" on="1"/>
      </contour>
      <contour>
        <pt x="52" y="770" on="1"/>
        <pt x="205" y="770" on="1"/>
        <pt x="205" y="616" on="1"/>
        <pt x="52" y="616" on="1"/>
      </contour>
    </TTGlyph>
    <TTGlyph name="i.sc" xMin="54" yMin="0" xMax="207" yMax="580">
      <contour>
        <pt x="54" y="0" on="1"/>
        <pt x="54" y="580" on="1"/>
        <pt x="207" y="580" on="1"/>
        <pt x="207" y="0" on="1"/>
      </contour>
    </TTGlyph>
    <TTGlyph name="iacute" xMin="49" yMin="0" xMax="257" yMax="841">
      <contour>
        <pt x="51" y="0" on="1"/>
        <pt x="51" y="580" on="1"/>
        <pt x="204" y="580" on="1"/>
        <pt x="204" y="0" on="1"/>
      </contour>
      <contour>
        <pt x="49" y="638" on="1"/>
        <pt x="100" y="841" on="1"/>
        <pt x="257" y="841" on="1"/>
        <pt x="206" y="638" on="1"/>
      </contour>
    </TTGlyph>
    <TTGlyph name="icircumflex" xMin="-15" yMin="0" xMax="305" yMax="822">
      <contour>
        <pt x="51" y="0" on="1"/>
        <pt x="51" y="580" on="1"/>
        <pt x="204" y="580" on="1"/>
        <pt x="204" y="0" on="1"/>
      </contour>
      <contour>
        <pt x="118" y="638" on="1"/>
        <pt x="-15" y="638" on="1"/>
        <pt x="95" y="822" on="1"/>
        <pt x="195" y="822" on="1"/>
        <pt x="305" y="638" on="1"/>
        <pt x="171" y="638" on="1"/>
        <pt x="143" y="682" on="1"/>
      </contour>
    </TTGlyph>
    <TTGlyph name="idieresis" xMin="-32" yMin="0" xMax="335" yMax="794">
      <contour>
        <pt x="55" y="0" on="1"/>
        <pt x="55" y="580" on="1"/>
        <pt x="208" y="580" on="1"/>
        <pt x="208" y="0" on="1"/>
      </contour>
      <contour>
        <pt x="335" y="794" on="1"/>
        <pt x="335" y="640" on="1"/>
        <pt x="181" y="640" on="1"/>
        <pt x="181" y="794" on="1"/>
      </contour>
      <contour>
        <pt x="121" y="794" on="1"/>
        <pt x="121" y="640" on="1"/>
        <pt x="-32" y="640" on="1"/>
        <pt x="-32" y="794" on="1"/>
      </contour>
    </TTGlyph>
    <TTGlyph name="igrave" xMin="16" yMin="0" xMax="224" yMax="842">
      <contour>
        <pt x="56" y="0" on="1"/>
        <pt x="56" y="580" on="1"/>
        <pt x="209" y="580" on="1"/>
        <pt x="209" y="0" on="1"/>
      </contour>
      <contour>
        <pt x="173" y="842" on="1"/>
        <pt x="224" y="639" on="1"/>
        <pt x="67" y="639" on="1"/>
        <pt x="16" y="842" on="1"/>
      </contour>
    </TTGlyph>
    <TTGlyph name="j" xMin="-187" yMin="-208" xMax="211" yMax="770">
      <contour>
        <pt x="58" y="770" on="1"/>
        <pt x="211" y="770" on="1"/>
        <pt x="211" y="616" on="1"/>
        <pt x="58" y="616" on="1"/>
      </contour>
      <contour>
        <pt x="211" y="580" on="1"/>
        <pt x="211" y="-63" on="1"/>
        <pt x="211" y="-123" on="0"/>
        <pt x="125" y="-208" on="0"/>
        <pt x="65" y="-208" on="1"/>
        <pt x="-187" y="-208" on="1"/>
        <pt x="-187" y="-54" on="1"/>
        <pt x="58" y="-54" on="1"/>
        <pt x="58" y="580" on="1"/>
      </contour>
    </TTGlyph>
    <TTGlyph name="j.sc" xMin="5" yMin="0" xMax="603" yMax="580">
      <contour>
        <pt x="158" y="227" on="1"/>
        <pt x="158" y="153" on="1"/>
        <pt x="450" y="153" on="1"/>
        <pt x="450" y="580" on="1"/>
        <pt x="603" y="580" on="1"/>
        <pt x="603" y="145" on="1"/>
        <pt x="603" y="86" on="0"/>
        <pt x="518" y="0" on="0"/>
        <pt x="458" y="0" on="1"/>
        <pt x="151" y="0" on="1"/>
        <pt x="91" y="0" on="0"/>
        <pt x="5" y="86" on="0"/>
        <pt x="5" y="145" on="1"/>
        <pt x="5" y="227" on="1"/>
      </contour>
    </TTGlyph>
    <TTGlyph name="k" xMin="54" yMin="0" xMax="636" yMax="770">
      <contour>
        <pt x="482" y="580" on="1"/>
        <pt x="636" y="580" on="1"/>
        <pt x="636" y="528" on="1"/>
        <pt x="420" y="290" on="1"/>
        <pt x="636" y="52" on="1"/>
        <pt x="636" y="0" on="1"/>
        <pt x="482" y="0" on="1"/>
        <pt x="285" y="213" on="1"/>
        <pt x="207" y="213" on="1"/>
        <pt x="207" y="0" on="1"/>
        <pt x="54" y="0" on="1"/>
        <pt x="54" y="770" on="1"/>
        <pt x="207" y="770" on="1"/>
        <pt x="207" y="367" on="1"/>
        <pt x="285" y="367" on="1"/>
      </contour>
    </TTGlyph>
    <TTGlyph name="k.alt" xMin="54" yMin="0" xMax="642" yMax="752">
      <contour>
        <pt x="642" y="580" on="1"/>
        <pt x="642" y="358" on="1"/>
        <pt x="642" y="350" on="0"/>
        <pt x="636" y="329" on="0"/>
        <pt x="631" y="319" on="0"/>
        <pt x="616" y="292" on="0"/>
        <pt x="615" y="290" on="1"/>
        <pt x="642" y="238" on="0"/>
        <pt x="642" y="222" on="1"/>
        <pt x="642" y="0" on="1"/>
        <pt x="489" y="0" on="1"/>
        <pt x="489" y="213" on="1"/>
        <pt x="207" y="213" on="1"/>
        <pt x="207" y="0" on="1"/>
        <pt x="54" y="0" on="1"/>
        <pt x="54" y="752" on="1"/>
        <pt x="207" y="752" on="1"/>
        <pt x="207" y="367" on="1"/>
        <pt x="489" y="367" on="1"/>
        <pt x="489" y="580" on="1"/>
      </contour>
    </TTGlyph>
    <TTGlyph name="k.sc" xMin="54" yMin="0" xMax="636" yMax="580">
      <contour>
        <pt x="482" y="580" on="1"/>
        <pt x="636" y="580" on="1"/>
        <pt x="636" y="528" on="1"/>
        <pt x="420" y="290" on="1"/>
        <pt x="636" y="52" on="1"/>
        <pt x="636" y="0" on="1"/>
        <pt x="482" y="0" on="1"/>
        <pt x="285" y="213" on="1"/>
        <pt x="207" y="213" on="1"/>
        <pt x="207" y="0" on="1"/>
        <pt x="54" y="0" on="1"/>
        <pt x="54" y="580" on="1"/>
        <pt x="207" y="580" on="1"/>
        <pt x="207" y="367" on="1"/>
        <pt x="285" y="367" on="1"/>
      </contour>
    </TTGlyph>
    <TTGlyph name="l" xMin="52" yMin="0" xMax="323" yMax="771">
      <contour>
        <pt x="52" y="771" on="1"/>
        <pt x="206" y="771" on="1"/>
        <pt x="206" y="153" on="1"/>
        <pt x="323" y="153" on="1"/>
        <pt x="323" y="0" on="1"/>
        <pt x="197" y="0" on="1"/>
        <pt x="138" y="0" on="0"/>
        <pt x="52" y="86" on="0"/>
        <pt x="52" y="145" on="1"/>
      </contour>
    </TTGlyph>
    <TTGlyph name="l.sc" xMin="54" yMin="0" xMax="652" yMax="580">
      <contour>
        <pt x="54" y="0" on="1"/>
        <pt x="54" y="580" on="1"/>
        <pt x="207" y="580" on="1"/>
        <pt x="207" y="153" on="1"/>
        <pt x="652" y="153" on="1"/>
        <pt x="652" y="0" on="1"/>
      </contour>
    </TTGlyph>
    <TTGlyph name="less" xMin="5" yMin="-17" xMax="432" yMax="607">
      <contour>
        <pt x="198" y="296" on="1"/>
        <pt x="432" y="160" on="1"/>
        <pt x="432" y="-17" on="1"/>
        <pt x="5" y="231" on="1"/>
        <pt x="5" y="359" on="1"/>
        <pt x="432" y="607" on="1"/>
        <pt x="432" y="431" on="1"/>
      </contour>
    </TTGlyph>
    <TTGlyph name="m" xMin="54" yMin="0" xMax="897" yMax="580">
      <contour>
        <pt x="752" y="580" on="1"/>
        <pt x="812" y="580" on="0"/>
        <pt x="897" y="494" on="0"/>
        <pt x="897" y="435" on="1"/>
        <pt x="897" y="0" on="1"/>
        <pt x="745" y="0" on="1"/>
        <pt x="745" y="427" on="1"/>
        <pt x="553" y="427" on="1"/>
        <pt x="553" y="0" on="1"/>
        <pt x="399" y="0" on="1"/>
        <pt x="399" y="427" on="1"/>
        <pt x="207" y="427" on="1"/>
        <pt x="207" y="0" on="1"/>
        <pt x="54" y="0" on="1"/>
        <pt x="54" y="580" on="1"/>
      </contour>
    </TTGlyph>
    <TTGlyph name="m.sc" xMin="54" yMin="0" xMax="758" yMax="581">
      <contour>
        <pt x="406" y="304" on="1"/>
        <pt x="598" y="581" on="1"/>
        <pt x="758" y="581" on="1"/>
        <pt x="758" y="0" on="1"/>
        <pt x="604" y="0" on="1"/>
        <pt x="604" y="341" on="1"/>
        <pt x="406" y="60" on="1"/>
        <pt x="207" y="341" on="1"/>
        <pt x="207" y="0" on="1"/>
        <pt x="54" y="0" on="1"/>
        <pt x="54" y="581" on="1"/>
        <pt x="213" y="581" on="1"/>
      </contour>
    </TTGlyph>
    <TTGlyph name="minus" xMin="59" yMin="219" xMax="476" yMax="372">
      <contour>
        <pt x="476" y="372" on="1"/>
        <pt x="476" y="219" on="1"/>
        <pt x="59" y="219" on="1"/>
        <pt x="59" y="372" on="1"/>
      </contour>
    </TTGlyph>
    <TTGlyph name="multiply" xMin="53" yMin="82" xMax="507" yMax="516">
      <contour>
        <pt x="507" y="516" on="1"/>
        <pt x="507" y="466" on="1"/>
        <pt x="377" y="300" on="1"/>
        <pt x="507" y="132" on="1"/>
        <pt x="507" y="82" on="1"/>
        <pt x="348" y="82" on="1"/>
        <pt x="279" y="175" on="1"/>
        <pt x="269" y="159" on="0"/>
        <pt x="219" y="96" on="0"/>
        <pt x="210" y="82" on="1"/>
        <pt x="53" y="82" on="1"/>
        <pt x="53" y="132" on="1"/>
        <pt x="182" y="300" on="1"/>
        <pt x="53" y="466" on="1"/>
        <pt x="53" y="516" on="1"/>
        <pt x="211" y="516" on="1"/>
        <pt x="279" y="422" on="1"/>
        <pt x="348" y="516" on="1"/>
      </contour>
    </TTGlyph>
    <TTGlyph name="n" xMin="54" yMin="0" xMax="642" yMax="580">
      <contour>
        <pt x="497" y="580" on="1"/>
        <pt x="557" y="580" on="0"/>
        <pt x="642" y="494" on="0"/>
        <pt x="642" y="435" on="1"/>
        <pt x="642" y="0" on="1"/>
        <pt x="489" y="0" on="1"/>
        <pt x="489" y="427" on="1"/>
        <pt x="207" y="427" on="1"/>
        <pt x="207" y="0" on="1"/>
        <pt x="54" y="0" on="1"/>
        <pt x="54" y="580" on="1"/>
      </contour>
    </TTGlyph>
    <TTGlyph name="n.sc" xMin="54" yMin="0" xMax="652" yMax="580">
      <contour>
        <pt x="499" y="238" on="1"/>
        <pt x="499" y="580" on="1"/>
        <pt x="652" y="580" on="1"/>
        <pt x="652" y="0" on="1"/>
        <pt x="493" y="0" on="1"/>
        <pt x="207" y="344" on="1"/>
        <pt x="207" y="0" on="1"/>
        <pt x="54" y="0" on="1"/>
        <pt x="54" y="580" on="1"/>
        <pt x="212" y="580" on="1"/>
      </contour>
    </TTGlyph>
    <TTGlyph name="nine" xMin="51" yMin="0" xMax="761" yMax="720">
      <contour>
        <pt x="616" y="0" on="1"/>
        <pt x="200" y="0" on="1"/>
        <pt x="147" y="0" on="0"/>
        <pt x="62" y="88" on="0"/>
        <pt x="51" y="153" on="1"/>
        <pt x="608" y="153" on="1"/>
        <pt x="608" y="281" on="1"/>
        <pt x="200" y="281" on="1"/>
        <pt x="140" y="281" on="0"/>
        <pt x="54" y="367" on="0"/>
        <pt x="54" y="427" on="1"/>
        <pt x="54" y="575" on="1"/>
        <pt x="54" y="635" on="0"/>
        <pt x="140" y="720" on="0"/>
        <pt x="200" y="720" on="1"/>
        <pt x="616" y="720" on="1"/>
        <pt x="676" y="720" on="0"/>
        <pt x="761" y="635" on="0"/>
        <pt x="761" y="575" on="1"/>
        <pt x="761" y="145" on="1"/>
        <pt x="761" y="86" on="0"/>
        <pt x="676" y="0" on="0"/>
      </contour>
      <contour>
        <pt x="208" y="435" on="1"/>
        <pt x="608" y="435" on="1"/>
        <pt x="608" y="567" on="1"/>
        <pt x="208" y="567" on="1"/>
      </contour>
    </TTGlyph>
    <TTGlyph name="nine.alt" xMin="12" yMin="0" xMax="719" yMax="719">
      <contour>
        <pt x="158" y="719" on="1"/>
        <pt x="574" y="719" on="1"/>
        <pt x="634" y="719" on="0"/>
        <pt x="719" y="633" on="0"/>
        <pt x="719" y="573" on="1"/>
        <pt x="719" y="0" on="1"/>
        <pt x="566" y="0" on="1"/>
        <pt x="566" y="280" on="1"/>
        <pt x="158" y="280" on="1"/>
        <pt x="98" y="280" on="0"/>
        <pt x="12" y="365" on="0"/>
        <pt x="12" y="425" on="1"/>
        <pt x="12" y="573" on="1"/>
        <pt x="12" y="633" on="0"/>
        <pt x="98" y="719" on="0"/>
      </contour>
      <contour>
        <pt x="566" y="433" on="1"/>
        <pt x="566" y="565" on="1"/>
        <pt x="166" y="565" on="1"/>
        <pt x="166" y="433" on="1"/>
      </contour>
    </TTGlyph>
    <TTGlyph name="ntilde" xMin="54" yMin="0" xMax="642" yMax="817">
      <contour>
        <pt x="497" y="580" on="1"/>
        <pt x="557" y="580" on="0"/>
        <pt x="642" y="494" on="0"/>
        <pt x="642" y="435" on="1"/>
        <pt x="642" y="0" on="1"/>
        <pt x="489" y="0" on="1"/>
        <pt x="489" y="427" on="1"/>
        <pt x="207" y="427" on="1"/>
        <pt x="207" y="0" on="1"/>
        <pt x="54" y="0" on="1"/>
        <pt x="54" y="580" on="1"/>
      </contour>
      <contour>
        <pt x="417" y="755" on="1"/>
        <pt x="456" y="755" on="0"/>
        <pt x="513" y="792" on="1"/>
        <pt x="513" y="666" on="1"/>
        <pt x="451" y="640" on="0"/>
        <pt x="377" y="640" on="0"/>
        <pt x="262" y="702" on="0"/>
        <pt x="233" y="702" on="1"/>
        <pt x="222" y="702" on="1"/>
        <pt x="180" y="702" on="0"/>
        <pt x="138" y="666" on="1"/>
        <pt x="138" y="790" on="1"/>
        <pt x="206" y="817" on="0"/>
        <pt x="233" y="817" on="1"/>
        <pt x="270" y="817" on="0"/>
        <pt x="386" y="759" on="0"/>
      </contour>
    </TTGlyph>
    <TTGlyph name="numbersign" xMin="32" yMin="0" xMax="750" yMax="720">
      <contour>
        <pt x="750" y="570" on="1"/>
        <pt x="750" y="417" on="1"/>
        <pt x="635" y="417" on="1"/>
        <pt x="601" y="311" on="1"/>
        <pt x="722" y="311" on="1"/>
        <pt x="722" y="158" on="1"/>
        <pt x="551" y="158" on="1"/>
        <pt x="544" y="134" on="0"/>
        <pt x="514" y="24" on="0"/>
        <pt x="506" y="0" on="1"/>
        <pt x="351" y="0" on="1"/>
        <pt x="399" y="158" on="1"/>
        <pt x="259" y="158" on="1"/>
        <pt x="251" y="131" on="0"/>
        <pt x="220" y="19" on="0"/>
        <pt x="215" y="0" on="1"/>
        <pt x="60" y="0" on="1"/>
        <pt x="107" y="158" on="1"/>
        <pt x="32" y="158" on="1"/>
        <pt x="32" y="311" on="1"/>
        <pt x="153" y="311" on="1"/>
        <pt x="187" y="417" on="1"/>
        <pt x="60" y="417" on="1"/>
        <pt x="60" y="570" on="1"/>
        <pt x="236" y="570" on="1"/>
        <pt x="249" y="606" on="0"/>
        <pt x="284" y="720" on="1"/>
        <pt x="442" y="720" on="1"/>
        <pt x="391" y="570" on="1"/>
        <pt x="529" y="570" on="1"/>
        <pt x="577" y="720" on="1"/>
        <pt x="734" y="720" on="1"/>
        <pt x="683" y="570" on="1"/>
      </contour>
      <contour>
        <pt x="309" y="311" on="1"/>
        <pt x="445" y="311" on="1"/>
        <pt x="479" y="417" on="1"/>
        <pt x="343" y="417" on="1"/>
      </contour>
    </TTGlyph>
    <TTGlyph name="o" xMin="51" yMin="0" xMax="639" yMax="580">
      <contour>
        <pt x="196" y="580" on="1"/>
        <pt x="494" y="580" on="1"/>
        <pt x="554" y="580" on="0"/>
        <pt x="639" y="494" on="0"/>
        <pt x="639" y="435" on="1"/>
        <pt x="639" y="145" on="1"/>
        <pt x="639" y="86" on="0"/>
        <pt x="554" y="0" on="0"/>
        <pt x="494" y="0" on="1"/>
        <pt x="196" y="0" on="1"/>
        <pt x="137" y="0" on="0"/>
        <pt x="51" y="86" on="0"/>
        <pt x="51" y="145" on="1"/>
        <pt x="51" y="435" on="1"/>
        <pt x="51" y="494" on="0"/>
        <pt x="137" y="580" on="0"/>
      </contour>
      <contour>
        <pt x="204" y="427" on="1"/>
        <pt x="204" y="153" on="1"/>
        <pt x="486" y="153" on="1"/>
        <pt x="486" y="427" on="1"/>
      </contour>
    </TTGlyph>
    <TTGlyph name="o.sc" xMin="51" yMin="0" xMax="639" yMax="580">
      <contour>
        <pt x="196" y="580" on="1"/>
        <pt x="494" y="580" on="1"/>
        <pt x="554" y="580" on="0"/>
        <pt x="639" y="494" on="0"/>
        <pt x="639" y="435" on="1"/>
        <pt x="639" y="145" on="1"/>
        <pt x="639" y="86" on="0"/>
        <pt x="554" y="0" on="0"/>
        <pt x="494" y="0" on="1"/>
        <pt x="196" y="0" on="1"/>
        <pt x="137" y="0" on="0"/>
        <pt x="51" y="86" on="0"/>
        <pt x="51" y="145" on="1"/>
        <pt x="51" y="435" on="1"/>
        <pt x="51" y="494" on="0"/>
        <pt x="137" y="580" on="0"/>
      </contour>
      <contour>
        <pt x="204" y="427" on="1"/>
        <pt x="204" y="153" on="1"/>
        <pt x="486" y="153" on="1"/>
        <pt x="486" y="427" on="1"/>
      </contour>
    </TTGlyph>
    <TTGlyph name="oacute" xMin="51" yMin="0" xMax="639" yMax="842">
      <contour>
        <pt x="196" y="580" on="1"/>
        <pt x="494" y="580" on="1"/>
        <pt x="554" y="580" on="0"/>
        <pt x="639" y="494" on="0"/>
        <pt x="639" y="435" on="1"/>
        <pt x="639" y="145" on="1"/>
        <pt x="639" y="86" on="0"/>
        <pt x="554" y="0" on="0"/>
        <pt x="494" y="0" on="1"/>
        <pt x="196" y="0" on="1"/>
        <pt x="137" y="0" on="0"/>
        <pt x="51" y="86" on="0"/>
        <pt x="51" y="145" on="1"/>
        <pt x="51" y="435" on="1"/>
        <pt x="51" y="494" on="0"/>
        <pt x="137" y="580" on="0"/>
      </contour>
      <contour>
        <pt x="204" y="427" on="1"/>
        <pt x="204" y="153" on="1"/>
        <pt x="486" y="153" on="1"/>
        <pt x="486" y="427" on="1"/>
      </contour>
      <contour>
        <pt x="262" y="639" on="1"/>
        <pt x="313" y="842" on="1"/>
        <pt x="470" y="842" on="1"/>
        <pt x="419" y="639" on="1"/>
      </contour>
    </TTGlyph>
    <TTGlyph name="ocircumflex" xMin="51" yMin="0" xMax="639" yMax="822">
      <contour>
        <pt x="196" y="580" on="1"/>
        <pt x="494" y="580" on="1"/>
        <pt x="554" y="580" on="0"/>
        <pt x="639" y="494" on="0"/>
        <pt x="639" y="435" on="1"/>
        <pt x="639" y="145" on="1"/>
        <pt x="639" y="86" on="0"/>
        <pt x="554" y="0" on="0"/>
        <pt x="494" y="0" on="1"/>
        <pt x="196" y="0" on="1"/>
        <pt x="137" y="0" on="0"/>
        <pt x="51" y="86" on="0"/>
        <pt x="51" y="145" on="1"/>
        <pt x="51" y="435" on="1"/>
        <pt x="51" y="494" on="0"/>
        <pt x="137" y="580" on="0"/>
      </contour>
      <contour>
        <pt x="204" y="427" on="1"/>
        <pt x="204" y="153" on="1"/>
        <pt x="486" y="153" on="1"/>
        <pt x="486" y="427" on="1"/>
      </contour>
      <contour>
        <pt x="327" y="638" on="1"/>
        <pt x="194" y="638" on="1"/>
        <pt x="304" y="822" on="1"/>
        <pt x="404" y="822" on="1"/>
        <pt x="514" y="638" on="1"/>
        <pt x="380" y="638" on="1"/>
        <pt x="352" y="682" on="1"/>
      </contour>
    </TTGlyph>
    <TTGlyph name="odieresis" xMin="51" yMin="0" xMax="639" yMax="794">
      <contour>
        <pt x="196" y="580" on="1"/>
        <pt x="494" y="580" on="1"/>
        <pt x="554" y="580" on="0"/>
        <pt x="639" y="494" on="0"/>
        <pt x="639" y="435" on="1"/>
        <pt x="639" y="145" on="1"/>
        <pt x="639" y="86" on="0"/>
        <pt x="554" y="0" on="0"/>
        <pt x="494" y="0" on="1"/>
        <pt x="196" y="0" on="1"/>
        <pt x="137" y="0" on="0"/>
        <pt x="51" y="86" on="0"/>
        <pt x="51" y="145" on="1"/>
        <pt x="51" y="435" on="1"/>
        <pt x="51" y="494" on="0"/>
        <pt x="137" y="580" on="0"/>
      </contour>
      <contour>
        <pt x="204" y="427" on="1"/>
        <pt x="204" y="153" on="1"/>
        <pt x="486" y="153" on="1"/>
        <pt x="486" y="427" on="1"/>
      </contour>
      <contour>
        <pt x="534" y="794" on="1"/>
        <pt x="534" y="640" on="1"/>
        <pt x="380" y="640" on="1"/>
        <pt x="380" y="794" on="1"/>
      </contour>
      <contour>
        <pt x="320" y="794" on="1"/>
        <pt x="320" y="640" on="1"/>
        <pt x="167" y="640" on="1"/>
        <pt x="167" y="794" on="1"/>
      </contour>
    </TTGlyph>
    <TTGlyph name="oe" xMin="52" yMin="0" xMax="1076" yMax="580">
      <contour>
        <pt x="1076" y="213" on="1"/>
        <pt x="641" y="213" on="1"/>
        <pt x="641" y="153" on="1"/>
        <pt x="1076" y="153" on="1"/>
        <pt x="1076" y="0" on="1"/>
        <pt x="198" y="0" on="1"/>
        <pt x="138" y="0" on="0"/>
        <pt x="52" y="86" on="0"/>
        <pt x="52" y="145" on="1"/>
        <pt x="52" y="435" on="1"/>
        <pt x="52" y="494" on="0"/>
        <pt x="138" y="580" on="0"/>
        <pt x="198" y="580" on="1"/>
        <pt x="932" y="580" on="1"/>
        <pt x="992" y="580" on="0"/>
        <pt x="1076" y="495" on="0"/>
        <pt x="1076" y="435" on="1"/>
      </contour>
      <contour>
        <pt x="641" y="347" on="1"/>
        <pt x="923" y="347" on="1"/>
        <pt x="923" y="427" on="1"/>
        <pt x="641" y="427" on="1"/>
      </contour>
      <contour>
        <pt x="205" y="427" on="1"/>
        <pt x="205" y="153" on="1"/>
        <pt x="488" y="153" on="1"/>
        <pt x="488" y="427" on="1"/>
      </contour>
    </TTGlyph>
    <TTGlyph name="ograve" xMin="51" yMin="0" xMax="639" yMax="842">
      <contour>
        <pt x="196" y="580" on="1"/>
        <pt x="494" y="580" on="1"/>
        <pt x="554" y="580" on="0"/>
        <pt x="639" y="494" on="0"/>
        <pt x="639" y="435" on="1"/>
        <pt x="639" y="145" on="1"/>
        <pt x="639" y="86" on="0"/>
        <pt x="554" y="0" on="0"/>
        <pt x="494" y="0" on="1"/>
        <pt x="196" y="0" on="1"/>
        <pt x="137" y="0" on="0"/>
        <pt x="51" y="86" on="0"/>
        <pt x="51" y="145" on="1"/>
        <pt x="51" y="435" on="1"/>
        <pt x="51" y="494" on="0"/>
        <pt x="137" y="580" on="0"/>
      </contour>
      <contour>
        <pt x="204" y="427" on="1"/>
        <pt x="204" y="153" on="1"/>
        <pt x="486" y="153" on="1"/>
        <pt x="486" y="427" on="1"/>
      </contour>
      <contour>
        <pt x="399" y="842" on="1"/>
        <pt x="450" y="639" on="1"/>
        <pt x="293" y="639" on="1"/>
        <pt x="242" y="842" on="1"/>
      </contour>
    </TTGlyph>
    <TTGlyph name="one" xMin="1" yMin="0" xMax="390" yMax="720">
      <contour>
        <pt x="1" y="446" on="1"/>
        <pt x="231" y="720" on="1"/>
        <pt x="390" y="720" on="1"/>
        <pt x="390" y="0" on="1"/>
        <pt x="237" y="0" on="1"/>
        <pt x="237" y="487" on="1"/>
        <pt x="235" y="485" on="1"/>
        <pt x="236" y="485" on="1"/>
        <pt x="204" y="446" on="1"/>
      </contour>
    </TTGlyph>
    <TTGlyph name="otilde" xMin="51" yMin="0" xMax="639" yMax="817">
      <contour>
        <pt x="196" y="580" on="1"/>
        <pt x="494" y="580" on="1"/>
        <pt x="554" y="580" on="0"/>
        <pt x="639" y="494" on="0"/>
        <pt x="639" y="435" on="1"/>
        <pt x="639" y="145" on="1"/>
        <pt x="639" y="86" on="0"/>
        <pt x="554" y="0" on="0"/>
        <pt x="494" y="0" on="1"/>
        <pt x="196" y="0" on="1"/>
        <pt x="137" y="0" on="0"/>
        <pt x="51" y="86" on="0"/>
        <pt x="51" y="145" on="1"/>
        <pt x="51" y="435" on="1"/>
        <pt x="51" y="494" on="0"/>
        <pt x="137" y="580" on="0"/>
      </contour>
      <contour>
        <pt x="204" y="427" on="1"/>
        <pt x="204" y="153" on="1"/>
        <pt x="486" y="153" on="1"/>
        <pt x="486" y="427" on="1"/>
      </contour>
      <contour>
        <pt x="419" y="755" on="1"/>
        <pt x="458" y="755" on="0"/>
        <pt x="515" y="792" on="1"/>
        <pt x="515" y="666" on="1"/>
        <pt x="453" y="640" on="0"/>
        <pt x="379" y="640" on="0"/>
        <pt x="264" y="702" on="0"/>
        <pt x="235" y="702" on="1"/>
        <pt x="224" y="702" on="1"/>
        <pt x="182" y="702" on="0"/>
        <pt x="140" y="666" on="1"/>
        <pt x="140" y="790" on="1"/>
        <pt x="208" y="817" on="0"/>
        <pt x="235" y="817" on="1"/>
        <pt x="272" y="817" on="0"/>
        <pt x="388" y="759" on="0"/>
      </contour>
    </TTGlyph>
    <TTGlyph name="p" xMin="54" yMin="-230" xMax="642" yMax="580">
      <contour>
        <pt x="497" y="580" on="1"/>
        <pt x="557" y="580" on="0"/>
        <pt x="642" y="494" on="0"/>
        <pt x="642" y="435" on="1"/>
        <pt x="642" y="145" on="1"/>
        <pt x="642" y="86" on="0"/>
        <pt x="557" y="0" on="0"/>
        <pt x="497" y="0" on="1"/>
        <pt x="207" y="0" on="1"/>
        <pt x="207" y="-230" on="1"/>
        <pt x="54" y="-230" on="1"/>
        <pt x="54" y="580" on="1"/>
      </contour>
      <contour>
        <pt x="207" y="427" on="1"/>
        <pt x="207" y="153" on="1"/>
        <pt x="489" y="153" on="1"/>
        <pt x="489" y="427" on="1"/>
      </contour>
    </TTGlyph>
    <TTGlyph name="p.sc" xMin="54" yMin="0" xMax="642" yMax="580">
      <contour>
        <pt x="54" y="580" on="1"/>
        <pt x="497" y="580" on="1"/>
        <pt x="557" y="580" on="0"/>
        <pt x="642" y="494" on="0"/>
        <pt x="642" y="435" on="1"/>
        <pt x="642" y="323" on="1"/>
        <pt x="642" y="264" on="0"/>
        <pt x="557" y="178" on="0"/>
        <pt x="497" y="178" on="1"/>
        <pt x="207" y="177" on="1"/>
        <pt x="210" y="177" on="0"/>
        <pt x="210" y="171" on="1"/>
        <pt x="208" y="171" on="0"/>
        <pt x="207" y="172" on="1"/>
        <pt x="207" y="0" on="1"/>
        <pt x="54" y="0" on="1"/>
      </contour>
      <contour>
        <pt x="207" y="427" on="1"/>
        <pt x="207" y="332" on="1"/>
        <pt x="489" y="332" on="1"/>
        <pt x="489" y="427" on="1"/>
      </contour>
    </TTGlyph>
    <TTGlyph name="paragraph" xMin="56" yMin="0" xMax="783" yMax="706">
      <contour>
        <pt x="56" y="560" on="1"/>
        <pt x="56" y="619" on="0"/>
        <pt x="142" y="706" on="0"/>
        <pt x="202" y="706" on="1"/>
        <pt x="783" y="706" on="1"/>
        <pt x="783" y="0" on="1"/>
        <pt x="630" y="0" on="1"/>
        <pt x="630" y="232" on="1"/>
        <pt x="564" y="232" on="1"/>
        <pt x="564" y="0" on="1"/>
        <pt x="410" y="0" on="1"/>
        <pt x="410" y="232" on="1"/>
        <pt x="202" y="232" on="1"/>
        <pt x="142" y="232" on="0"/>
        <pt x="56" y="318" on="0"/>
        <pt x="56" y="377" on="1"/>
      </contour>
      <contour>
        <pt x="410" y="552" on="1"/>
        <pt x="209" y="552" on="1"/>
        <pt x="209" y="386" on="1"/>
        <pt x="410" y="386" on="1"/>
      </contour>
      <contour>
        <pt x="564" y="552" on="1"/>
        <pt x="564" y="386" on="1"/>
        <pt x="630" y="386" on="1"/>
        <pt x="630" y="552" on="1"/>
      </contour>
    </TTGlyph>
    <TTGlyph name="parenleft" xMin="52" yMin="0" xMax="263" yMax="720">
      <contour>
        <pt x="263" y="567" on="1"/>
        <pt x="205" y="567" on="1"/>
        <pt x="205" y="153" on="1"/>
        <pt x="263" y="153" on="1"/>
        <pt x="263" y="0" on="1"/>
        <pt x="197" y="0" on="1"/>
        <pt x="137" y="0" on="0"/>
        <pt x="52" y="86" on="0"/>
        <pt x="52" y="145" on="1"/>
        <pt x="52" y="575" on="1"/>
        <pt x="52" y="635" on="0"/>
        <pt x="137" y="720" on="0"/>
        <pt x="197" y="720" on="1"/>
        <pt x="263" y="720" on="1"/>
      </contour>
    </TTGlyph>
    <TTGlyph name="parenright" xMin="56" yMin="0" xMax="268" yMax="720">
      <contour>
        <pt x="56" y="0" on="1"/>
        <pt x="56" y="153" on="1"/>
        <pt x="114" y="153" on="1"/>
        <pt x="114" y="567" on="1"/>
        <pt x="56" y="567" on="1"/>
        <pt x="56" y="720" on="1"/>
        <pt x="123" y="720" on="1"/>
        <pt x="182" y="720" on="0"/>
        <pt x="268" y="635" on="0"/>
        <pt x="268" y="575" on="1"/>
        <pt x="268" y="145" on="1"/>
        <pt x="268" y="86" on="0"/>
        <pt x="182" y="0" on="0"/>
        <pt x="123" y="0" on="1"/>
      </contour>
    </TTGlyph>
    <TTGlyph name="percent" xMin="48" yMin="0" xMax="909" yMax="719">
      <contour>
        <pt x="790" y="719" on="1"/>
        <pt x="841" y="719" on="1"/>
        <pt x="841" y="563" on="1"/>
        <pt x="185" y="0" on="1"/>
        <pt x="134" y="0" on="1"/>
        <pt x="134" y="157" on="1"/>
      </contour>
      <contour>
        <pt x="184" y="712" on="1"/>
        <pt x="265" y="712" on="1"/>
        <pt x="325" y="712" on="0"/>
        <pt x="401" y="637" on="0"/>
        <pt x="401" y="577" on="1"/>
        <pt x="401" y="505" on="1"/>
        <pt x="401" y="445" on="0"/>
        <pt x="325" y="369" on="0"/>
        <pt x="265" y="369" on="1"/>
        <pt x="184" y="369" on="1"/>
        <pt x="124" y="369" on="0"/>
        <pt x="48" y="445" on="0"/>
        <pt x="48" y="505" on="1"/>
        <pt x="48" y="577" on="1"/>
        <pt x="48" y="637" on="0"/>
        <pt x="124" y="712" on="0"/>
      </contour>
      <contour>
        <pt x="692" y="352" on="1"/>
        <pt x="773" y="352" on="1"/>
        <pt x="833" y="352" on="0"/>
        <pt x="909" y="277" on="0"/>
        <pt x="909" y="217" on="1"/>
        <pt x="909" y="145" on="1"/>
        <pt x="909" y="85" on="0"/>
        <pt x="833" y="9" on="0"/>
        <pt x="773" y="9" on="1"/>
        <pt x="692" y="9" on="1"/>
        <pt x="633" y="9" on="0"/>
        <pt x="557" y="85" on="0"/>
        <pt x="557" y="145" on="1"/>
        <pt x="557" y="217" on="1"/>
        <pt x="557" y="277" on="0"/>
        <pt x="633" y="352" on="0"/>
      </contour>
      <contour>
        <pt x="682" y="227" on="1"/>
        <pt x="682" y="134" on="1"/>
        <pt x="784" y="134" on="1"/>
        <pt x="784" y="227" on="1"/>
      </contour>
      <contour>
        <pt x="173" y="587" on="1"/>
        <pt x="173" y="495" on="1"/>
        <pt x="275" y="495" on="1"/>
        <pt x="275" y="587" on="1"/>
      </contour>
    </TTGlyph>
    <TTGlyph name="period" xMin="54" yMin="0" xMax="207" yMax="153">
      <contour>
        <pt x="207" y="153" on="1"/>
        <pt x="207" y="0" on="1"/>
        <pt x="54" y="0" on="1"/>
        <pt x="54" y="153" on="1"/>
      </contour>
    </TTGlyph>
    <TTGlyph name="plus" xMin="17" yMin="86" xMax="434" yMax="503">
      <contour>
        <pt x="147" y="503" on="1"/>
        <pt x="300" y="503" on="1"/>
        <pt x="300" y="372" on="1"/>
        <pt x="434" y="372" on="1"/>
        <pt x="434" y="219" on="1"/>
        <pt x="300" y="219" on="1"/>
        <pt x="300" y="86" on="1"/>
        <pt x="147" y="86" on="1"/>
        <pt x="147" y="219" on="1"/>
        <pt x="17" y="219" on="1"/>
        <pt x="17" y="372" on="1"/>
        <pt x="147" y="372" on="1"/>
      </contour>
    </TTGlyph>
    <TTGlyph name="q" xMin="20" yMin="-230" xMax="609" yMax="580">
      <contour>
        <pt x="20" y="435" on="1"/>
        <pt x="20" y="494" on="0"/>
        <pt x="105" y="580" on="0"/>
        <pt x="165" y="580" on="1"/>
        <pt x="609" y="580" on="1"/>
        <pt x="609" y="-230" on="1"/>
        <pt x="456" y="-230" on="1"/>
        <pt x="456" y="0" on="1"/>
        <pt x="165" y="0" on="1"/>
        <pt x="105" y="0" on="0"/>
        <pt x="20" y="86" on="0"/>
        <pt x="20" y="145" on="1"/>
      </contour>
      <contour>
        <pt x="174" y="427" on="1"/>
        <pt x="174" y="153" on="1"/>
        <pt x="456" y="153" on="1"/>
        <pt x="456" y="427" on="1"/>
      </contour>
    </TTGlyph>
    <TTGlyph name="q.sc" xMin="52" yMin="0" xMax="722" yMax="580">
      <contour>
        <pt x="640" y="435" on="1"/>
        <pt x="640" y="153" on="1"/>
        <pt x="722" y="153" on="1"/>
        <pt x="722" y="0" on="1"/>
        <pt x="197" y="0" on="1"/>
        <pt x="138" y="0" on="0"/>
        <pt x="52" y="86" on="0"/>
        <pt x="52" y="145" on="1"/>
        <pt x="52" y="435" on="1"/>
        <pt x="52" y="494" on="0"/>
        <pt x="138" y="580" on="0"/>
        <pt x="197" y="580" on="1"/>
        <pt x="495" y="580" on="1"/>
        <pt x="555" y="580" on="0"/>
        <pt x="640" y="495" on="0"/>
      </contour>
      <contour>
        <pt x="205" y="427" on="1"/>
        <pt x="205" y="153" on="1"/>
        <pt x="487" y="153" on="1"/>
        <pt x="487" y="427" on="1"/>
      </contour>
    </TTGlyph>
    <TTGlyph name="question" xMin="31" yMin="0" xMax="653" yMax="720">
      <contour>
        <pt x="31" y="720" on="1"/>
        <pt x="507" y="720" on="1"/>
        <pt x="568" y="720" on="0"/>
        <pt x="653" y="635" on="0"/>
        <pt x="653" y="575" on="1"/>
        <pt x="653" y="409" on="1"/>
        <pt x="653" y="349" on="0"/>
        <pt x="568" y="263" on="0"/>
        <pt x="507" y="263" on="1"/>
        <pt x="282" y="263" on="1"/>
        <pt x="282" y="194" on="1"/>
        <pt x="128" y="194" on="1"/>
        <pt x="128" y="272" on="1"/>
        <pt x="128" y="332" on="0"/>
        <pt x="213" y="417" on="0"/>
        <pt x="273" y="417" on="1"/>
        <pt x="500" y="417" on="1"/>
        <pt x="500" y="567" on="1"/>
        <pt x="31" y="567" on="1"/>
      </contour>
      <contour>
        <pt x="282" y="0" on="1"/>
        <pt x="128" y="0" on="1"/>
        <pt x="128" y="153" on="1"/>
        <pt x="282" y="153" on="1"/>
      </contour>
    </TTGlyph>
    <TTGlyph name="question.alt" xMin="27" yMin="0" xMax="641" yMax="720">
      <contour>
        <pt x="170" y="720" on="1"/>
        <pt x="496" y="720" on="1"/>
        <pt x="555" y="720" on="0"/>
        <pt x="641" y="635" on="0"/>
        <pt x="641" y="575" on="1"/>
        <pt x="641" y="409" on="1"/>
        <pt x="641" y="349" on="0"/>
        <pt x="555" y="263" on="0"/>
        <pt x="496" y="263" on="1"/>
        <pt x="332" y="263" on="1"/>
        <pt x="332" y="190" on="1"/>
        <pt x="178" y="190" on="1"/>
        <pt x="178" y="272" on="1"/>
        <pt x="178" y="332" on="0"/>
        <pt x="264" y="417" on="0"/>
        <pt x="323" y="417" on="1"/>
        <pt x="488" y="417" on="1"/>
        <pt x="488" y="567" on="1"/>
        <pt x="180" y="567" on="1"/>
        <pt x="180" y="469" on="1"/>
        <pt x="27" y="469" on="1"/>
        <pt x="27" y="599" on="1"/>
        <pt x="35" y="650" on="0"/>
        <pt x="116" y="720" on="0"/>
      </contour>
      <contour>
        <pt x="332" y="0" on="1"/>
        <pt x="178" y="0" on="1"/>
        <pt x="178" y="153" on="1"/>
        <pt x="332" y="153" on="1"/>
      </contour>
    </TTGlyph>
    <TTGlyph name="questiondown" xMin="19" yMin="0" xMax="642" yMax="706">
      <contour>
        <pt x="642" y="0" on="1"/>
        <pt x="165" y="0" on="1"/>
        <pt x="105" y="0" on="0"/>
        <pt x="19" y="86" on="0"/>
        <pt x="19" y="145" on="1"/>
        <pt x="19" y="312" on="1"/>
        <pt x="19" y="372" on="0"/>
        <pt x="105" y="457" on="0"/>
        <pt x="165" y="457" on="1"/>
        <pt x="391" y="457" on="1"/>
        <pt x="391" y="532" on="1"/>
        <pt x="544" y="532" on="1"/>
        <pt x="544" y="449" on="1"/>
        <pt x="544" y="389" on="0"/>
        <pt x="458" y="303" on="0"/>
        <pt x="398" y="303" on="1"/>
        <pt x="172" y="303" on="1"/>
        <pt x="172" y="153" on="1"/>
        <pt x="642" y="153" on="1"/>
      </contour>
      <contour>
        <pt x="544" y="706" on="1"/>
        <pt x="544" y="553" on="1"/>
        <pt x="391" y="553" on="1"/>
        <pt x="391" y="706" on="1"/>
      </contour>
    </TTGlyph>
    <TTGlyph name="quotedbl" xMin="36" yMin="505" xMax="369" yMax="706">
      <contour>
        <pt x="188" y="706" on="1"/>
        <pt x="188" y="505" on="1"/>
        <pt x="36" y="505" on="1"/>
        <pt x="36" y="706" on="1"/>
      </contour>
      <contour>
        <pt x="369" y="706" on="1"/>
        <pt x="369" y="505" on="1"/>
        <pt x="217" y="505" on="1"/>
        <pt x="217" y="706" on="1"/>
      </contour>
    </TTGlyph>
    <TTGlyph name="quotedblleft" xMin="45" yMin="437" xMax="413" yMax="713">
      <contour>
        <pt x="198" y="437" on="1"/>
        <pt x="45" y="437" on="1"/>
        <pt x="45" y="563" on="1"/>
        <pt x="45" y="618" on="0"/>
        <pt x="133" y="701" on="0"/>
        <pt x="198" y="712" on="1"/>
      </contour>
      <contour>
        <pt x="413" y="438" on="1"/>
        <pt x="260" y="438" on="1"/>
        <pt x="260" y="564" on="1"/>
        <pt x="260" y="619" on="0"/>
        <pt x="347" y="702" on="0"/>
        <pt x="413" y="713" on="1"/>
      </contour>
    </TTGlyph>
    <TTGlyph name="quotedblright" xMin="54" yMin="432" xMax="422" yMax="706">
      <contour>
        <pt x="268" y="706" on="1"/>
        <pt x="422" y="706" on="1"/>
        <pt x="422" y="581" on="1"/>
        <pt x="422" y="527" on="0"/>
        <pt x="334" y="443" on="0"/>
        <pt x="268" y="432" on="1"/>
      </contour>
      <contour>
        <pt x="54" y="706" on="1"/>
        <pt x="207" y="706" on="1"/>
        <pt x="207" y="581" on="1"/>
        <pt x="207" y="527" on="0"/>
        <pt x="120" y="443" on="0"/>
        <pt x="54" y="432" on="1"/>
      </contour>
    </TTGlyph>
    <TTGlyph name="quoteleft" xMin="34" yMin="437" xMax="187" yMax="712">
      <contour>
        <pt x="187" y="437" on="1"/>
        <pt x="34" y="437" on="1"/>
        <pt x="34" y="563" on="1"/>
        <pt x="34" y="618" on="0"/>
        <pt x="121" y="701" on="0"/>
        <pt x="187" y="712" on="1"/>
      </contour>
    </TTGlyph>
    <TTGlyph name="quoteright" xMin="54" yMin="432" xMax="207" yMax="706">
      <contour>
        <pt x="54" y="706" on="1"/>
        <pt x="207" y="706" on="1"/>
        <pt x="207" y="581" on="1"/>
        <pt x="207" y="527" on="0"/>
        <pt x="120" y="443" on="0"/>
        <pt x="54" y="432" on="1"/>
      </contour>
    </TTGlyph>
    <TTGlyph name="quotesingle" xMin="59" yMin="504" xMax="212" yMax="706">
      <contour>
        <pt x="212" y="706" on="1"/>
        <pt x="212" y="504" on="1"/>
        <pt x="59" y="504" on="1"/>
        <pt x="59" y="706" on="1"/>
      </contour>
    </TTGlyph>
    <TTGlyph name="r" xMin="52" yMin="0" xMax="518" yMax="580">
      <contour>
        <pt x="198" y="580" on="1"/>
        <pt x="518" y="580" on="1"/>
        <pt x="518" y="427" on="1"/>
        <pt x="205" y="427" on="1"/>
        <pt x="205" y="0" on="1"/>
        <pt x="52" y="0" on="1"/>
        <pt x="52" y="435" on="1"/>
        <pt x="52" y="494" on="0"/>
        <pt x="138" y="580" on="0"/>
      </contour>
    </TTGlyph>
    <TTGlyph name="r.sc" xMin="54" yMin="0" xMax="652" yMax="580">
      <contour>
        <pt x="643" y="435" on="1"/>
        <pt x="643" y="323" on="1"/>
        <pt x="643" y="267" on="0"/>
        <pt x="566" y="183" on="0"/>
        <pt x="511" y="178" on="1"/>
        <pt x="652" y="54" on="1"/>
        <pt x="652" y="0" on="1"/>
        <pt x="497" y="0" on="1"/>
        <pt x="302" y="178" on="1"/>
        <pt x="207" y="178" on="1"/>
        <pt x="207" y="0" on="1"/>
        <pt x="54" y="0" on="1"/>
        <pt x="54" y="580" on="1"/>
        <pt x="497" y="580" on="1"/>
        <pt x="557" y="580" on="0"/>
        <pt x="643" y="494" on="0"/>
      </contour>
      <contour>
        <pt x="207" y="427" on="1"/>
        <pt x="207" y="332" on="1"/>
        <pt x="489" y="332" on="1"/>
        <pt x="489" y="427" on="1"/>
      </contour>
    </TTGlyph>
    <TTGlyph name="ring" xMin="9" yMin="748" xMax="213" yMax="949">
      <contour>
        <pt x="86" y="949" on="1"/>
        <pt x="137" y="949" on="1"/>
        <pt x="168" y="949" on="0"/>
        <pt x="213" y="904" on="0"/>
        <pt x="213" y="873" on="1"/>
        <pt x="213" y="824" on="1"/>
        <pt x="213" y="793" on="0"/>
        <pt x="168" y="748" on="0"/>
        <pt x="137" y="748" on="1"/>
        <pt x="86" y="748" on="1"/>
        <pt x="55" y="748" on="0"/>
        <pt x="9" y="793" on="0"/>
        <pt x="9" y="824" on="1"/>
        <pt x="9" y="873" on="1"/>
        <pt x="9" y="904" on="0"/>
        <pt x="55" y="949" on="0"/>
      </contour>
      <contour>
        <pt x="86" y="871" on="1"/>
        <pt x="86" y="817" on="1"/>
        <pt x="137" y="817" on="1"/>
        <pt x="137" y="871" on="1"/>
      </contour>
    </TTGlyph>
    <TTGlyph name="s" xMin="48" yMin="0" xMax="637" yMax="580">
      <contour>
        <pt x="637" y="435" on="1"/>
        <pt x="637" y="406" on="1"/>
        <pt x="483" y="406" on="1"/>
        <pt x="483" y="427" on="1"/>
        <pt x="201" y="427" on="1"/>
        <pt x="201" y="367" on="1"/>
        <pt x="491" y="367" on="1"/>
        <pt x="552" y="367" on="0"/>
        <pt x="637" y="282" on="0"/>
        <pt x="637" y="222" on="1"/>
        <pt x="637" y="145" on="1"/>
        <pt x="637" y="86" on="0"/>
        <pt x="552" y="0" on="0"/>
        <pt x="491" y="0" on="1"/>
        <pt x="193" y="0" on="1"/>
        <pt x="134" y="0" on="0"/>
        <pt x="48" y="86" on="0"/>
        <pt x="48" y="145" on="1"/>
        <pt x="48" y="174" on="1"/>
        <pt x="201" y="174" on="1"/>
        <pt x="201" y="153" on="1"/>
        <pt x="483" y="153" on="1"/>
        <pt x="483" y="213" on="1"/>
        <pt x="193" y="213" on="1"/>
        <pt x="134" y="213" on="0"/>
        <pt x="48" y="299" on="0"/>
        <pt x="48" y="358" on="1"/>
        <pt x="48" y="435" on="1"/>
        <pt x="48" y="494" on="0"/>
        <pt x="134" y="580" on="0"/>
        <pt x="193" y="580" on="1"/>
        <pt x="491" y="580" on="1"/>
        <pt x="552" y="580" on="0"/>
        <pt x="637" y="494" on="0"/>
      </contour>
    </TTGlyph>
    <TTGlyph name="s.sc" xMin="49" yMin="0" xMax="638" yMax="580">
      <contour>
        <pt x="638" y="435" on="1"/>
        <pt x="638" y="407" on="1"/>
        <pt x="484" y="407" on="1"/>
        <pt x="484" y="427" on="1"/>
        <pt x="202" y="427" on="1"/>
        <pt x="202" y="367" on="1"/>
        <pt x="492" y="367" on="1"/>
        <pt x="552" y="367" on="0"/>
        <pt x="638" y="281" on="0"/>
        <pt x="638" y="222" on="1"/>
        <pt x="638" y="145" on="1"/>
        <pt x="638" y="86" on="0"/>
        <pt x="552" y="0" on="0"/>
        <pt x="492" y="0" on="1"/>
        <pt x="194" y="0" on="1"/>
        <pt x="135" y="0" on="0"/>
        <pt x="49" y="86" on="0"/>
        <pt x="49" y="145" on="1"/>
        <pt x="49" y="173" on="1"/>
        <pt x="202" y="173" on="1"/>
        <pt x="202" y="153" on="1"/>
        <pt x="484" y="153" on="1"/>
        <pt x="484" y="213" on="1"/>
        <pt x="194" y="213" on="1"/>
        <pt x="135" y="213" on="0"/>
        <pt x="49" y="299" on="0"/>
        <pt x="49" y="358" on="1"/>
        <pt x="49" y="435" on="1"/>
        <pt x="49" y="494" on="0"/>
        <pt x="135" y="580" on="0"/>
        <pt x="194" y="580" on="1"/>
        <pt x="492" y="580" on="1"/>
        <pt x="552" y="580" on="0"/>
        <pt x="638" y="494" on="0"/>
      </contour>
    </TTGlyph>
    <TTGlyph name="scaron" xMin="48" yMin="0" xMax="637" yMax="822">
      <contour>
        <pt x="637" y="435" on="1"/>
        <pt x="637" y="406" on="1"/>
        <pt x="483" y="406" on="1"/>
        <pt x="483" y="427" on="1"/>
        <pt x="201" y="427" on="1"/>
        <pt x="201" y="367" on="1"/>
        <pt x="491" y="367" on="1"/>
        <pt x="552" y="367" on="0"/>
        <pt x="637" y="282" on="0"/>
        <pt x="637" y="222" on="1"/>
        <pt x="637" y="145" on="1"/>
        <pt x="637" y="86" on="0"/>
        <pt x="552" y="0" on="0"/>
        <pt x="491" y="0" on="1"/>
        <pt x="193" y="0" on="1"/>
        <pt x="134" y="0" on="0"/>
        <pt x="48" y="86" on="0"/>
        <pt x="48" y="145" on="1"/>
        <pt x="48" y="174" on="1"/>
        <pt x="201" y="174" on="1"/>
        <pt x="201" y="153" on="1"/>
        <pt x="483" y="153" on="1"/>
        <pt x="483" y="213" on="1"/>
        <pt x="193" y="213" on="1"/>
        <pt x="134" y="213" on="0"/>
        <pt x="48" y="299" on="0"/>
        <pt x="48" y="358" on="1"/>
        <pt x="48" y="435" on="1"/>
        <pt x="48" y="494" on="0"/>
        <pt x="134" y="580" on="0"/>
        <pt x="193" y="580" on="1"/>
        <pt x="491" y="580" on="1"/>
        <pt x="552" y="580" on="0"/>
        <pt x="637" y="494" on="0"/>
      </contour>
      <contour>
        <pt x="191" y="822" on="1"/>
        <pt x="322" y="822" on="1"/>
        <pt x="349" y="778" on="1"/>
        <pt x="376" y="822" on="1"/>
        <pt x="511" y="822" on="1"/>
        <pt x="401" y="638" on="1"/>
        <pt x="301" y="638" on="1"/>
      </contour>
    </TTGlyph>
    <TTGlyph name="semicolon" xMin="51" yMin="-133" xMax="205" yMax="580">
      <contour>
        <pt x="205" y="580" on="1"/>
        <pt x="205" y="426" on="1"/>
        <pt x="51" y="426" on="1"/>
        <pt x="51" y="580" on="1"/>
      </contour>
      <contour>
        <pt x="52" y="142" on="1"/>
        <pt x="205" y="142" on="1"/>
        <pt x="205" y="16" on="1"/>
        <pt x="205" y="-38" on="0"/>
        <pt x="118" y="-122" on="0"/>
        <pt x="52" y="-133" on="1"/>
      </contour>
    </TTGlyph>
    <TTGlyph name="seven" xMin="3" yMin="0" xMax="601" yMax="721">
      <contour>
        <pt x="3" y="721" on="1"/>
        <pt x="456" y="721" on="1"/>
        <pt x="516" y="721" on="0"/>
        <pt x="601" y="636" on="0"/>
        <pt x="601" y="576" on="1"/>
        <pt x="601" y="0" on="1"/>
        <pt x="448" y="0" on="1"/>
        <pt x="448" y="568" on="1"/>
        <pt x="3" y="568" on="1"/>
      </contour>
    </TTGlyph>
    <TTGlyph name="seven.alt" xMin="46" yMin="0" xMax="753" yMax="720">
      <contour>
        <pt x="46" y="720" on="1"/>
        <pt x="753" y="720" on="1"/>
        <pt x="753" y="670" on="1"/>
        <pt x="202" y="0" on="1"/>
        <pt x="46" y="0" on="1"/>
        <pt x="46" y="51" on="1"/>
        <pt x="468" y="567" on="1"/>
        <pt x="46" y="567" on="1"/>
      </contour>
    </TTGlyph>
    <TTGlyph name="six" xMin="57" yMin="0" xMax="764" yMax="720">
      <contour>
        <pt x="655" y="567" on="1"/>
        <pt x="210" y="567" on="1"/>
        <pt x="210" y="442" on="1"/>
        <pt x="618" y="442" on="1"/>
        <pt x="678" y="442" on="0"/>
        <pt x="764" y="357" on="0"/>
        <pt x="764" y="297" on="1"/>
        <pt x="764" y="145" on="1"/>
        <pt x="764" y="86" on="0"/>
        <pt x="678" y="0" on="0"/>
        <pt x="618" y="0" on="1"/>
        <pt x="203" y="0" on="1"/>
        <pt x="143" y="0" on="0"/>
        <pt x="57" y="86" on="0"/>
        <pt x="57" y="145" on="1"/>
        <pt x="57" y="575" on="1"/>
        <pt x="57" y="635" on="0"/>
        <pt x="143" y="720" on="0"/>
        <pt x="203" y="720" on="1"/>
        <pt x="655" y="720" on="1"/>
      </contour>
      <contour>
        <pt x="210" y="288" on="1"/>
        <pt x="210" y="153" on="1"/>
        <pt x="611" y="153" on="1"/>
        <pt x="611" y="288" on="1"/>
      </contour>
    </TTGlyph>
    <TTGlyph name="slash" xMin="6" yMin="0" xMax="522" yMax="720">
      <contour>
        <pt x="6" y="155" on="1"/>
        <pt x="467" y="720" on="1"/>
        <pt x="522" y="720" on="1"/>
        <pt x="522" y="566" on="1"/>
        <pt x="61" y="0" on="1"/>
        <pt x="6" y="0" on="1"/>
      </contour>
    </TTGlyph>
    <TTGlyph name="sterling" xMin="39" yMin="0" xMax="680" yMax="720">
      <contour>
        <pt x="680" y="519" on="1"/>
        <pt x="526" y="519" on="1"/>
        <pt x="526" y="567" on="1"/>
        <pt x="282" y="567" on="1"/>
        <pt x="282" y="430" on="1"/>
        <pt x="584" y="430" on="1"/>
        <pt x="584" y="277" on="1"/>
        <pt x="282" y="277" on="1"/>
        <pt x="282" y="153" on="1"/>
        <pt x="680" y="153" on="1"/>
        <pt x="680" y="0" on="1"/>
        <pt x="39" y="0" on="1"/>
        <pt x="39" y="153" on="1"/>
        <pt x="129" y="153" on="1"/>
        <pt x="129" y="277" on="1"/>
        <pt x="39" y="277" on="1"/>
        <pt x="39" y="430" on="1"/>
        <pt x="129" y="430" on="1"/>
        <pt x="129" y="575" on="1"/>
        <pt x="129" y="635" on="0"/>
        <pt x="215" y="720" on="0"/>
        <pt x="274" y="720" on="1"/>
        <pt x="535" y="720" on="1"/>
        <pt x="595" y="720" on="0"/>
        <pt x="680" y="635" on="0"/>
        <pt x="680" y="575" on="1"/>
      </contour>
    </TTGlyph>
    <TTGlyph name="t" xMin="53" yMin="0" xMax="421" yMax="752">
      <contour>
        <pt x="421" y="427" on="1"/>
        <pt x="206" y="427" on="1"/>
        <pt x="206" y="153" on="1"/>
        <pt x="421" y="153" on="1"/>
        <pt x="421" y="0" on="1"/>
        <pt x="199" y="0" on="1"/>
        <pt x="138" y="0" on="0"/>
        <pt x="53" y="86" on="0"/>
        <pt x="53" y="145" on="1"/>
        <pt x="53" y="752" on="1"/>
        <pt x="206" y="752" on="1"/>
        <pt x="206" y="580" on="1"/>
        <pt x="421" y="580" on="1"/>
      </contour>
    </TTGlyph>
    <TTGlyph name="t.sc" xMin="22" yMin="0" xMax="620" yMax="580">
      <contour>
        <pt x="22" y="580" on="1"/>
        <pt x="620" y="580" on="1"/>
        <pt x="620" y="427" on="1"/>
        <pt x="397" y="427" on="1"/>
        <pt x="397" y="0" on="1"/>
        <pt x="243" y="0" on="1"/>
        <pt x="243" y="427" on="1"/>
        <pt x="22" y="427" on="1"/>
      </contour>
    </TTGlyph>
    <TTGlyph name="three" xMin="53" yMin="0" xMax="760" yMax="720">
      <contour>
        <pt x="733" y="575" on="1"/>
        <pt x="733" y="431" on="1"/>
        <pt x="733" y="406" on="0"/>
        <pt x="727" y="385" on="1"/>
        <pt x="760" y="345" on="0"/>
        <pt x="760" y="294" on="1"/>
        <pt x="760" y="145" on="1"/>
        <pt x="760" y="86" on="0"/>
        <pt x="675" y="0" on="0"/>
        <pt x="615" y="0" on="1"/>
        <pt x="199" y="0" on="1"/>
        <pt x="139" y="0" on="0"/>
        <pt x="53" y="86" on="0"/>
        <pt x="53" y="145" on="1"/>
        <pt x="53" y="201" on="1"/>
        <pt x="206" y="201" on="1"/>
        <pt x="206" y="153" on="1"/>
        <pt x="607" y="153" on="1"/>
        <pt x="607" y="286" on="1"/>
        <pt x="171" y="286" on="1"/>
        <pt x="171" y="439" on="1"/>
        <pt x="580" y="439" on="1"/>
        <pt x="580" y="567" on="1"/>
        <pt x="206" y="567" on="1"/>
        <pt x="206" y="511" on="1"/>
        <pt x="53" y="511" on="1"/>
        <pt x="53" y="575" on="1"/>
        <pt x="53" y="635" on="0"/>
        <pt x="139" y="720" on="0"/>
        <pt x="199" y="720" on="1"/>
        <pt x="588" y="720" on="1"/>
        <pt x="648" y="720" on="0"/>
        <pt x="733" y="635" on="0"/>
      </contour>
    </TTGlyph>
    <TTGlyph name="tilde" xMin="23" yMin="751" xMax="398" yMax="928">
      <contour>
        <pt x="302" y="866" on="1"/>
        <pt x="341" y="866" on="0"/>
        <pt x="398" y="903" on="1"/>
        <pt x="398" y="777" on="1"/>
        <pt x="336" y="751" on="0"/>
        <pt x="262" y="751" on="0"/>
        <pt x="147" y="813" on="0"/>
        <pt x="118" y="813" on="1"/>
        <pt x="107" y="813" on="1"/>
        <pt x="65" y="813" on="0"/>
        <pt x="23" y="777" on="1"/>
        <pt x="23" y="901" on="1"/>
        <pt x="90" y="928" on="0"/>
        <pt x="118" y="928" on="1"/>
        <pt x="156" y="928" on="0"/>
        <pt x="271" y="870" on="0"/>
      </contour>
    </TTGlyph>
    <TTGlyph name="two" xMin="57" yMin="0" xMax="764" yMax="720">
      <contour>
        <pt x="203" y="720" on="1"/>
        <pt x="618" y="720" on="1"/>
        <pt x="678" y="720" on="0"/>
        <pt x="764" y="635" on="0"/>
        <pt x="764" y="575" on="1"/>
        <pt x="764" y="416" on="1"/>
        <pt x="764" y="356" on="0"/>
        <pt x="678" y="270" on="0"/>
        <pt x="618" y="270" on="1"/>
        <pt x="210" y="270" on="1"/>
        <pt x="210" y="153" on="1"/>
        <pt x="764" y="153" on="1"/>
        <pt x="764" y="0" on="1"/>
        <pt x="57" y="0" on="1"/>
        <pt x="57" y="279" on="1"/>
        <pt x="57" y="339" on="0"/>
        <pt x="143" y="424" on="0"/>
        <pt x="203" y="424" on="1"/>
        <pt x="611" y="424" on="1"/>
        <pt x="611" y="567" on="1"/>
        <pt x="210" y="567" on="1"/>
        <pt x="210" y="509" on="1"/>
        <pt x="57" y="509" on="1"/>
        <pt x="57" y="575" on="1"/>
        <pt x="57" y="635" on="0"/>
        <pt x="143" y="720" on="0"/>
      </contour>
    </TTGlyph>
    <TTGlyph name="two.alt" xMin="49" yMin="0" xMax="755" yMax="719">
      <contour>
        <pt x="755" y="453" on="1"/>
        <pt x="642" y="395" on="1"/>
        <pt x="203" y="153" on="1"/>
        <pt x="755" y="153" on="1"/>
        <pt x="755" y="0" on="1"/>
        <pt x="193" y="0" on="1"/>
        <pt x="142" y="0" on="0"/>
        <pt x="62" y="64" on="0"/>
        <pt x="50" y="113" on="1"/>
        <pt x="49" y="247" on="1"/>
        <pt x="601" y="546" on="1"/>
        <pt x="601" y="566" on="1"/>
        <pt x="203" y="566" on="1"/>
        <pt x="203" y="497" on="1"/>
        <pt x="49" y="497" on="1"/>
        <pt x="49" y="574" on="1"/>
        <pt x="49" y="634" on="0"/>
        <pt x="135" y="719" on="0"/>
        <pt x="195" y="719" on="1"/>
        <pt x="611" y="719" on="1"/>
        <pt x="665" y="719" on="0"/>
        <pt x="746" y="651" on="0"/>
        <pt x="755" y="600" on="1"/>
      </contour>
    </TTGlyph>
    <TTGlyph name="u" xMin="53" yMin="0" xMax="641" yMax="580">
      <contour>
        <pt x="488" y="580" on="1"/>
        <pt x="641" y="580" on="1"/>
        <pt x="641" y="145" on="1"/>
        <pt x="641" y="86" on="0"/>
        <pt x="556" y="0" on="0"/>
        <pt x="496" y="0" on="1"/>
        <pt x="198" y="0" on="1"/>
        <pt x="138" y="0" on="0"/>
        <pt x="53" y="86" on="0"/>
        <pt x="53" y="145" on="1"/>
        <pt x="53" y="580" on="1"/>
        <pt x="206" y="580" on="1"/>
        <pt x="206" y="153" on="1"/>
        <pt x="488" y="153" on="1"/>
      </contour>
    </TTGlyph>
    <TTGlyph name="u.sc" xMin="53" yMin="0" xMax="641" yMax="580">
      <contour>
        <pt x="206" y="580" on="1"/>
        <pt x="206" y="153" on="1"/>
        <pt x="488" y="153" on="1"/>
        <pt x="488" y="580" on="1"/>
        <pt x="641" y="580" on="1"/>
        <pt x="641" y="145" on="1"/>
        <pt x="641" y="86" on="0"/>
        <pt x="556" y="0" on="0"/>
        <pt x="496" y="0" on="1"/>
        <pt x="198" y="0" on="1"/>
        <pt x="138" y="0" on="0"/>
        <pt x="53" y="86" on="0"/>
        <pt x="53" y="145" on="1"/>
        <pt x="53" y="580" on="1"/>
      </contour>
    </TTGlyph>
    <TTGlyph name="uacute" xMin="53" yMin="0" xMax="641" yMax="842">
      <contour>
        <pt x="488" y="580" on="1"/>
        <pt x="641" y="580" on="1"/>
        <pt x="641" y="145" on="1"/>
        <pt x="641" y="86" on="0"/>
        <pt x="556" y="0" on="0"/>
        <pt x="496" y="0" on="1"/>
        <pt x="198" y="0" on="1"/>
        <pt x="138" y="0" on="0"/>
        <pt x="53" y="86" on="0"/>
        <pt x="53" y="145" on="1"/>
        <pt x="53" y="580" on="1"/>
        <pt x="206" y="580" on="1"/>
        <pt x="206" y="153" on="1"/>
        <pt x="488" y="153" on="1"/>
      </contour>
      <contour>
        <pt x="273" y="639" on="1"/>
        <pt x="324" y="842" on="1"/>
        <pt x="481" y="842" on="1"/>
        <pt x="430" y="639" on="1"/>
      </contour>
    </TTGlyph>
    <TTGlyph name="ucircumflex" xMin="53" yMin="0" xMax="641" yMax="823">
      <contour>
        <pt x="488" y="580" on="1"/>
        <pt x="641" y="580" on="1"/>
        <pt x="641" y="145" on="1"/>
        <pt x="641" y="86" on="0"/>
        <pt x="556" y="0" on="0"/>
        <pt x="496" y="0" on="1"/>
        <pt x="198" y="0" on="1"/>
        <pt x="138" y="0" on="0"/>
        <pt x="53" y="86" on="0"/>
        <pt x="53" y="145" on="1"/>
        <pt x="53" y="580" on="1"/>
        <pt x="206" y="580" on="1"/>
        <pt x="206" y="153" on="1"/>
        <pt x="488" y="153" on="1"/>
      </contour>
      <contour>
        <pt x="318" y="639" on="1"/>
        <pt x="185" y="639" on="1"/>
        <pt x="295" y="823" on="1"/>
        <pt x="395" y="823" on="1"/>
        <pt x="505" y="639" on="1"/>
        <pt x="371" y="639" on="1"/>
        <pt x="343" y="683" on="1"/>
      </contour>
    </TTGlyph>
    <TTGlyph name="udieresis" xMin="53" yMin="0" xMax="641" yMax="792">
      <contour>
        <pt x="488" y="580" on="1"/>
        <pt x="641" y="580" on="1"/>
        <pt x="641" y="145" on="1"/>
        <pt x="641" y="86" on="0"/>
        <pt x="556" y="0" on="0"/>
        <pt x="496" y="0" on="1"/>
        <pt x="198" y="0" on="1"/>
        <pt x="138" y="0" on="0"/>
        <pt x="53" y="86" on="0"/>
        <pt x="53" y="145" on="1"/>
        <pt x="53" y="580" on="1"/>
        <pt x="206" y="580" on="1"/>
        <pt x="206" y="153" on="1"/>
        <pt x="488" y="153" on="1"/>
      </contour>
      <contour>
        <pt x="545" y="792" on="1"/>
        <pt x="545" y="638" on="1"/>
        <pt x="391" y="638" on="1"/>
        <pt x="391" y="792" on="1"/>
      </contour>
      <contour>
        <pt x="331" y="792" on="1"/>
        <pt x="331" y="638" on="1"/>
        <pt x="178" y="638" on="1"/>
        <pt x="178" y="792" on="1"/>
      </contour>
    </TTGlyph>
    <TTGlyph name="ugrave" xMin="53" yMin="0" xMax="641" yMax="842">
      <contour>
        <pt x="488" y="580" on="1"/>
        <pt x="641" y="580" on="1"/>
        <pt x="641" y="145" on="1"/>
        <pt x="641" y="86" on="0"/>
        <pt x="556" y="0" on="0"/>
        <pt x="496" y="0" on="1"/>
        <pt x="198" y="0" on="1"/>
        <pt x="138" y="0" on="0"/>
        <pt x="53" y="86" on="0"/>
        <pt x="53" y="145" on="1"/>
        <pt x="53" y="580" on="1"/>
        <pt x="206" y="580" on="1"/>
        <pt x="206" y="153" on="1"/>
        <pt x="488" y="153" on="1"/>
      </contour>
      <contour>
        <pt x="390" y="842" on="1"/>
        <pt x="441" y="639" on="1"/>
        <pt x="284" y="639" on="1"/>
        <pt x="233" y="842" on="1"/>
      </contour>
    </TTGlyph>
    <TTGlyph name="underscore" xMin="54" yMin="-155" xMax="761" yMax="-2">
      <contour>
        <pt x="761" y="-2" on="1"/>
        <pt x="761" y="-155" on="1"/>
        <pt x="54" y="-155" on="1"/>
        <pt x="54" y="-2" on="1"/>
      </contour>
    </TTGlyph>
    <TTGlyph name="v" xMin="21" yMin="0" xMax="791" yMax="580">
      <contour>
        <pt x="615" y="580" on="1"/>
        <pt x="791" y="580" on="1"/>
        <pt x="471" y="0" on="1"/>
        <pt x="340" y="0" on="1"/>
        <pt x="21" y="580" on="1"/>
        <pt x="197" y="580" on="1"/>
        <pt x="406" y="195" on="1"/>
      </contour>
    </TTGlyph>
    <TTGlyph name="v.alt" xMin="53" yMin="0" xMax="641" yMax="580">
      <contour>
        <pt x="488" y="580" on="1"/>
        <pt x="641" y="580" on="1"/>
        <pt x="641" y="0" on="1"/>
        <pt x="198" y="0" on="1"/>
        <pt x="138" y="0" on="0"/>
        <pt x="53" y="86" on="0"/>
        <pt x="53" y="145" on="1"/>
        <pt x="53" y="580" on="1"/>
        <pt x="206" y="580" on="1"/>
        <pt x="206" y="153" on="1"/>
        <pt x="488" y="153" on="1"/>
      </contour>
    </TTGlyph>
    <TTGlyph name="v.sc" xMin="21" yMin="0" xMax="799" yMax="580">
      <contour>
        <pt x="410" y="194" on="1"/>
        <pt x="624" y="580" on="1"/>
        <pt x="799" y="580" on="1"/>
        <pt x="476" y="0" on="1"/>
        <pt x="345" y="0" on="1"/>
        <pt x="21" y="580" on="1"/>
        <pt x="196" y="580" on="1"/>
      </contour>
    </TTGlyph>
    <TTGlyph name="w" xMin="35" yMin="0" xMax="1019" yMax="580">
      <contour>
        <pt x="857" y="580" on="1"/>
        <pt x="1019" y="580" on="1"/>
        <pt x="801" y="0" on="1"/>
        <pt x="685" y="0" on="1"/>
        <pt x="528" y="346" on="1"/>
        <pt x="378" y="0" on="1"/>
        <pt x="263" y="0" on="1"/>
        <pt x="35" y="580" on="1"/>
        <pt x="197" y="580" on="1"/>
        <pt x="322" y="279" on="1"/>
        <pt x="365" y="379" on="1"/>
        <pt x="375" y="402" on="0"/>
        <pt x="438" y="544" on="0"/>
        <pt x="453" y="580" on="1"/>
        <pt x="601" y="580" on="1"/>
        <pt x="741" y="275" on="1"/>
      </contour>
    </TTGlyph>
    <TTGlyph name="w.alt" xMin="53" yMin="0" xMax="896" yMax="580">
      <contour>
        <pt x="199" y="0" on="1"/>
        <pt x="139" y="0" on="0"/>
        <pt x="53" y="86" on="0"/>
        <pt x="53" y="145" on="1"/>
        <pt x="53" y="580" on="1"/>
        <pt x="205" y="580" on="1"/>
        <pt x="205" y="153" on="1"/>
        <pt x="397" y="153" on="1"/>
        <pt x="397" y="580" on="1"/>
        <pt x="551" y="580" on="1"/>
        <pt x="551" y="153" on="1"/>
        <pt x="743" y="153" on="1"/>
        <pt x="743" y="580" on="1"/>
        <pt x="896" y="580" on="1"/>
        <pt x="896" y="0" on="1"/>
      </contour>
    </TTGlyph>
    <TTGlyph name="w.sc" xMin="34" yMin="0" xMax="1027" yMax="580">
      <contour>
        <pt x="864" y="580" on="1"/>
        <pt x="1027" y="580" on="1"/>
        <pt x="804" y="0" on="1"/>
        <pt x="688" y="0" on="1"/>
        <pt x="531" y="339" on="1"/>
        <pt x="464" y="188" on="1"/>
        <pt x="381" y="0" on="1"/>
        <pt x="266" y="0" on="1"/>
        <pt x="34" y="580" on="1"/>
        <pt x="196" y="580" on="1"/>
        <pt x="325" y="276" on="1"/>
        <pt x="460" y="580" on="1"/>
        <pt x="600" y="580" on="1"/>
        <pt x="744" y="275" on="1"/>
      </contour>
    </TTGlyph>
    <TTGlyph name="x" xMin="46" yMin="0" xMax="644" yMax="580">
      <contour>
        <pt x="486" y="580" on="1"/>
        <pt x="644" y="580" on="1"/>
        <pt x="644" y="530" on="1"/>
        <pt x="444" y="295" on="1"/>
        <pt x="554" y="161" on="1"/>
        <pt x="644" y="50" on="1"/>
        <pt x="644" y="0" on="1"/>
        <pt x="487" y="0" on="1"/>
        <pt x="345" y="174" on="1"/>
        <pt x="203" y="0" on="1"/>
        <pt x="46" y="0" on="1"/>
        <pt x="46" y="50" on="1"/>
        <pt x="246" y="295" on="1"/>
        <pt x="46" y="530" on="1"/>
        <pt x="46" y="580" on="1"/>
        <pt x="203" y="580" on="1"/>
        <pt x="345" y="412" on="1"/>
      </contour>
    </TTGlyph>
    <TTGlyph name="x.alt" xMin="54" yMin="0" xMax="642" yMax="580">
      <contour>
        <pt x="642" y="580" on="1"/>
        <pt x="642" y="358" on="1"/>
        <pt x="642" y="350" on="0"/>
        <pt x="636" y="329" on="0"/>
        <pt x="631" y="319" on="0"/>
        <pt x="616" y="292" on="0"/>
        <pt x="615" y="290" on="1"/>
        <pt x="642" y="238" on="0"/>
        <pt x="642" y="222" on="1"/>
        <pt x="642" y="0" on="1"/>
        <pt x="489" y="0" on="1"/>
        <pt x="489" y="213" on="1"/>
        <pt x="207" y="213" on="1"/>
        <pt x="207" y="0" on="1"/>
        <pt x="54" y="0" on="1"/>
        <pt x="54" y="222" on="1"/>
        <pt x="54" y="238" on="0"/>
        <pt x="81" y="290" on="1"/>
        <pt x="80" y="292" on="0"/>
        <pt x="65" y="319" on="0"/>
        <pt x="60" y="329" on="0"/>
        <pt x="54" y="350" on="0"/>
        <pt x="54" y="358" on="1"/>
        <pt x="54" y="580" on="1"/>
        <pt x="207" y="580" on="1"/>
        <pt x="207" y="367" on="1"/>
        <pt x="489" y="367" on="1"/>
        <pt x="489" y="580" on="1"/>
      </contour>
    </TTGlyph>
    <TTGlyph name="x.sc" xMin="46" yMin="0" xMax="644" yMax="580">
      <contour>
        <pt x="487" y="580" on="1"/>
        <pt x="644" y="580" on="1"/>
        <pt x="644" y="530" on="1"/>
        <pt x="444" y="296" on="1"/>
        <pt x="644" y="50" on="1"/>
        <pt x="644" y="0" on="1"/>
        <pt x="487" y="0" on="1"/>
        <pt x="345" y="175" on="1"/>
        <pt x="203" y="0" on="1"/>
        <pt x="46" y="0" on="1"/>
        <pt x="46" y="50" on="1"/>
        <pt x="244" y="296" on="1"/>
        <pt x="102" y="462" on="1"/>
        <pt x="46" y="530" on="1"/>
        <pt x="46" y="580" on="1"/>
        <pt x="203" y="580" on="1"/>
        <pt x="345" y="412" on="1"/>
      </contour>
    </TTGlyph>
    <TTGlyph name="y" xMin="42" yMin="-208" xMax="631" yMax="578">
      <contour>
        <pt x="631" y="-63" on="1"/>
        <pt x="631" y="-123" on="0"/>
        <pt x="546" y="-208" on="0"/>
        <pt x="486" y="-208" on="1"/>
        <pt x="134" y="-208" on="1"/>
        <pt x="134" y="-54" on="1"/>
        <pt x="478" y="-54" on="1"/>
        <pt x="478" y="0" on="1"/>
        <pt x="188" y="0" on="1"/>
        <pt x="128" y="0" on="0"/>
        <pt x="42" y="86" on="0"/>
        <pt x="42" y="145" on="1"/>
        <pt x="42" y="578" on="1"/>
        <pt x="195" y="578" on="1"/>
        <pt x="195" y="153" on="1"/>
        <pt x="478" y="153" on="1"/>
        <pt x="478" y="578" on="1"/>
        <pt x="631" y="578" on="1"/>
      </contour>
    </TTGlyph>
    <TTGlyph name="y.sc" xMin="18" yMin="0" xMax="715" yMax="580">
      <contour>
        <pt x="532" y="580" on="1"/>
        <pt x="715" y="580" on="1"/>
        <pt x="443" y="200" on="1"/>
        <pt x="443" y="0" on="1"/>
        <pt x="290" y="0" on="1"/>
        <pt x="290" y="200" on="1"/>
        <pt x="18" y="580" on="1"/>
        <pt x="199" y="580" on="1"/>
        <pt x="367" y="364" on="1"/>
      </contour>
    </TTGlyph>
    <TTGlyph name="yacute" xMin="42" yMin="-208" xMax="631" yMax="842">
      <contour>
        <pt x="631" y="-63" on="1"/>
        <pt x="631" y="-123" on="0"/>
        <pt x="546" y="-208" on="0"/>
        <pt x="486" y="-208" on="1"/>
        <pt x="134" y="-208" on="1"/>
        <pt x="134" y="-54" on="1"/>
        <pt x="478" y="-54" on="1"/>
        <pt x="478" y="0" on="1"/>
        <pt x="188" y="0" on="1"/>
        <pt x="128" y="0" on="0"/>
        <pt x="42" y="86" on="0"/>
        <pt x="42" y="145" on="1"/>
        <pt x="42" y="578" on="1"/>
        <pt x="195" y="578" on="1"/>
        <pt x="195" y="153" on="1"/>
        <pt x="478" y="153" on="1"/>
        <pt x="478" y="578" on="1"/>
        <pt x="631" y="578" on="1"/>
      </contour>
      <contour>
        <pt x="270" y="639" on="1"/>
        <pt x="321" y="842" on="1"/>
        <pt x="478" y="842" on="1"/>
        <pt x="427" y="639" on="1"/>
      </contour>
    </TTGlyph>
    <TTGlyph name="ydieresis" xMin="42" yMin="-208" xMax="631" yMax="794">
      <contour>
        <pt x="631" y="-63" on="1"/>
        <pt x="631" y="-123" on="0"/>
        <pt x="546" y="-208" on="0"/>
        <pt x="486" y="-208" on="1"/>
        <pt x="134" y="-208" on="1"/>
        <pt x="134" y="-54" on="1"/>
        <pt x="478" y="-54" on="1"/>
        <pt x="478" y="0" on="1"/>
        <pt x="188" y="0" on="1"/>
        <pt x="128" y="0" on="0"/>
        <pt x="42" y="86" on="0"/>
        <pt x="42" y="145" on="1"/>
        <pt x="42" y="578" on="1"/>
        <pt x="195" y="578" on="1"/>
        <pt x="195" y="153" on="1"/>
        <pt x="478" y="153" on="1"/>
        <pt x="478" y="578" on="1"/>
        <pt x="631" y="578" on="1"/>
      </contour>
      <contour>
        <pt x="542" y="794" on="1"/>
        <pt x="542" y="640" on="1"/>
        <pt x="388" y="640" on="1"/>
        <pt x="388" y="794" on="1"/>
      </contour>
      <contour>
        <pt x="328" y="794" on="1"/>
        <pt x="328" y="640" on="1"/>
        <pt x="175" y="640" on="1"/>
        <pt x="175" y="794" on="1"/>
      </contour>
    </TTGlyph>
    <TTGlyph name="z" xMin="54" yMin="0" xMax="642" yMax="580">
      <contour>
        <pt x="54" y="427" on="1"/>
        <pt x="54" y="580" on="1"/>
        <pt x="642" y="580" on="1"/>
        <pt x="642" y="423" on="1"/>
        <pt x="293" y="153" on="1"/>
        <pt x="642" y="153" on="1"/>
        <pt x="642" y="0" on="1"/>
        <pt x="54" y="0" on="1"/>
        <pt x="54" y="157" on="1"/>
        <pt x="403" y="427" on="1"/>
      </contour>
    </TTGlyph>
    <TTGlyph name="z.alt" xMin="51" yMin="0" xMax="639" yMax="580">
      <contour>
        <pt x="494" y="213" on="1"/>
        <pt x="204" y="213" on="1"/>
        <pt x="204" y="153" on="1"/>
        <pt x="639" y="153" on="1"/>
        <pt x="639" y="0" on="1"/>
        <pt x="196" y="0" on="1"/>
        <pt x="137" y="0" on="0"/>
        <pt x="51" y="86" on="0"/>
        <pt x="51" y="145" on="1"/>
        <pt x="51" y="222" on="1"/>
        <pt x="51" y="281" on="0"/>
        <pt x="137" y="367" on="0"/>
        <pt x="196" y="367" on="1"/>
        <pt x="486" y="367" on="1"/>
        <pt x="486" y="427" on="1"/>
        <pt x="51" y="427" on="1"/>
        <pt x="51" y="580" on="1"/>
        <pt x="494" y="580" on="1"/>
        <pt x="554" y="580" on="0"/>
        <pt x="639" y="494" on="0"/>
        <pt x="639" y="435" on="1"/>
        <pt x="639" y="358" on="1"/>
        <pt x="639" y="299" on="0"/>
        <pt x="554" y="213" on="0"/>
      </contour>
    </TTGlyph>
    <TTGlyph name="z.sc" xMin="54" yMin="0" xMax="642" yMax="580">
      <contour>
        <pt x="54" y="427" on="1"/>
        <pt x="54" y="580" on="1"/>
        <pt x="642" y="580" on="1"/>
        <pt x="642" y="423" on="1"/>
        <pt x="293" y="153" on="1"/>
        <pt x="642" y="153" on="1"/>
        <pt x="642" y="0" on="1"/>
        <pt x="54" y="0" on="1"/>
        <pt x="54" y="157" on="1"/>
        <pt x="403" y="427" on="1"/>
      </contour>
    </TTGlyph>
    <TTGlyph name="zcaron" xMin="54" yMin="0" xMax="642" yMax="835">
      <contour>
        <pt x="54" y="427" on="1"/>
        <pt x="54" y="580" on="1"/>
        <pt x="642" y="580" on="1"/>
        <pt x="642" y="423" on="1"/>
        <pt x="293" y="153" on="1"/>
        <pt x="642" y="153" on="1"/>
        <pt x="642" y="0" on="1"/>
        <pt x="54" y="0" on="1"/>
        <pt x="54" y="157" on="1"/>
        <pt x="403" y="427" on="1"/>
      </contour>
      <contour>
        <pt x="197" y="835" on="1"/>
        <pt x="328" y="835" on="1"/>
        <pt x="355" y="791" on="1"/>
        <pt x="382" y="835" on="1"/>
        <pt x="517" y="835" on="1"/>
        <pt x="407" y="651" on="1"/>
        <pt x="307" y="651" on="1"/>
      </contour>
    </TTGlyph>
    <TTGlyph name="zero" xMin="57" yMin="0" xMax="764" yMax="720">
      <contour>
        <pt x="203" y="720" on="1"/>
        <pt x="618" y="720" on="1"/>
        <pt x="678" y="720" on="0"/>
        <pt x="764" y="631" on="0"/>
        <pt x="764" y="571" on="1"/>
        <pt x="764" y="155" on="1"/>
        <pt x="764" y="95" on="0"/>
        <pt x="677" y="0" on="0"/>
        <pt x="618" y="0" on="1"/>
        <pt x="203" y="0" on="1"/>
        <pt x="144" y="0" on="0"/>
        <pt x="57" y="95" on="0"/>
        <pt x="57" y="155" on="1"/>
        <pt x="57" y="571" on="1"/>
        <pt x="57" y="631" on="0"/>
        <pt x="143" y="720" on="0"/>
      </contour>
      <contour>
        <pt x="292" y="163" on="1"/>
        <pt x="611" y="163" on="1"/>
        <pt x="611" y="431" on="1"/>
      </contour>
      <contour>
        <pt x="529" y="563" on="1"/>
        <pt x="210" y="563" on="1"/>
        <pt x="210" y="295" on="1"/>
      </contour>
    </TTGlyph>
</ttFont>
